<?xml version="1.0" encoding="UTF-8" standalone="no"?>
<!DOCTYPE svg PUBLIC "-//W3C//DTD SVG 1.1//EN"
 "http://www.w3.org/Graphics/SVG/1.1/DTD/svg11.dtd">
<!-- Generated by graphviz version 2.44.1 (20201121.0304)
 -->
<!-- Title: G Pages: 1 -->
<svg width="723pt" height="723pt"
 viewBox="0.00 0.00 723.00 723.00" xmlns="http://www.w3.org/2000/svg" xmlns:xlink="http://www.w3.org/1999/xlink"><style>
  * {
    fill: transparent !important;
    stroke: rgb(30, 30, 30) !important;
    stroke-width: 1 !important;
  }
  polygon:not(.cluster *, .node *, .edge *, text) {
    stroke: transparent !important;
  }
  text {
    font-size: 10px !important;
    font-family: monospace !important;
    fill: rgb(30, 30, 30) !important;
    stroke: transparent !important;
    transform: translateY(-0.5em);
  }
</style>
<g id="graph0" class="graph" transform="scale(1 1) rotate(0) translate(4 719)">
<title>G</title>
<polygon fill="white" stroke="none" points="-4,4 -4,-719 719,-719 719,4 -4,4"/>
<g id="clust1" class="cluster">
<title>cluster_agents</title>
<polygon fill="none" stroke="black" points="8,-33.85 8,-681.15 707,-681.15 707,-33.85 8,-33.85"/>
<text xml:space="preserve" text-anchor="middle" x="357.5" y="-663.85" font-family="Times,serif" font-size="14.00">Playwright Test Coverage Agent</text>
</g>
<!-- Test Coverage -->
<g id="node1" class="node">
<title>Test Coverage</title>
<polygon fill="lightblue" stroke="black" points="374,-510.85 178,-510.85 178,-474.85 374,-474.85 374,-510.85"/>
<text xml:space="preserve" text-anchor="middle" x="276" y="-484.8" font-family="Times,serif" font-size="14.00">playwright&#45;test&#45;coverage</text>
</g>
<!-- Test Planner -->
<g id="node2" class="node">
<title>Test Planner</title>
<polygon fill="lightblue" stroke="black" points="204.25,-161.85 15.75,-161.85 15.75,-125.85 204.25,-125.85 204.25,-161.85"/>
<text xml:space="preserve" text-anchor="middle" x="110" y="-135.8" font-family="Times,serif" font-size="14.00">playwright&#45;test&#45;planner</text>
</g>
<!-- Test Coverage&#45;&gt;Test Planner -->
<g id="edge1" class="edge">
<title>Test Coverage&#45;&gt;Test Planner</title>
<path fill="none" stroke="black" d="M227.89,-474.38C170.09,-450.48 75.88,-401.5 35.5,-324.1 7.91,-271.21 54.09,-205.77 85.21,-170.41"/>
<polygon fill="black" stroke="black" points="87.61,-172.98 91.73,-163.22 82.42,-168.28 87.61,-172.98"/>
<text xml:space="preserve" text-anchor="middle" x="61.75" y="-310.8" font-family="Times,serif" font-size="14.00">1. Plan</text>
</g>
<!-- Test Generator -->
<g id="node3" class="node">
<title>Test Generator</title>
<polygon fill="lightblue" stroke="black" points="439.75,-161.85 236.25,-161.85 236.25,-125.85 439.75,-125.85 439.75,-161.85"/>
<text xml:space="preserve" text-anchor="middle" x="338" y="-135.8" font-family="Times,serif" font-size="14.00">playwright&#45;test&#45;generator</text>
</g>
<!-- Test Coverage&#45;&gt;Test Generator -->
<g id="edge3" class="edge">
<title>Test Coverage&#45;&gt;Test Generator</title>
<path fill="none" stroke="black" d="M259.65,-474.38C232.1,-442.72 181.39,-373.59 202.5,-313.6 223.5,-253.89 275.53,-199.7 308.66,-169.61"/>
<polygon fill="black" stroke="black" points="310.79,-172.41 315.93,-163.14 306.13,-167.18 310.79,-172.41"/>
<text xml:space="preserve" text-anchor="middle" x="266.25" y="-310.8" font-family="Times,serif" font-size="14.00">2. Generate Tests</text>
</g>
<!-- Test Healer -->
<g id="node4" class="node">
<title>Test Healer</title>
<polygon fill="lightblue" stroke="black" points="668.5,-161.85 487.5,-161.85 487.5,-125.85 668.5,-125.85 668.5,-161.85"/>
<text xml:space="preserve" text-anchor="middle" x="578" y="-135.8" font-family="Times,serif" font-size="14.00">playwright&#45;test&#45;healer</text>
</g>
<!-- Test Coverage&#45;&gt;Test Healer -->
<g id="edge5" class="edge">
<title>Test Coverage&#45;&gt;Test Healer</title>
<path fill="none" stroke="black" d="M295.9,-474.48C329.1,-445.08 397.13,-382.95 448,-324.1 492.23,-272.92 537.07,-207.41 560.79,-171.45"/>
<polygon fill="black" stroke="black" points="563.52,-173.67 566.07,-163.39 557.66,-169.84 563.52,-173.67"/>
<text xml:space="preserve" text-anchor="middle" x="504.47" y="-310.8" font-family="Times,serif" font-size="14.00">3. Heal Tests</text>
</g>
<!-- Test Planner&#45;&gt;Test Coverage -->
<g id="edge2" class="edge">
<title>Test Planner&#45;&gt;Test Coverage</title>
<path fill="none" stroke="black" d="M108.4,-162.28C106.07,-195.37 104.38,-268.91 128.5,-324.1 154.7,-384.04 210.43,-437.83 245.38,-467.54"/>
<polygon fill="black" stroke="black" points="242.71,-469.87 252.63,-473.6 247.2,-464.5 242.71,-469.87"/>
<text xml:space="preserve" text-anchor="middle" x="162.25" y="-310.8" font-family="Times,serif" font-size="14.00">Test Plan</text>
</g>
<!-- Test Generator&#45;&gt;Test Coverage -->
<g id="edge4" class="edge">
<title>Test Generator&#45;&gt;Test Coverage</title>
<path fill="none" stroke="black" d="M338.75,-162.32C339.8,-194.58 340.54,-265.54 330,-324.1 320.89,-374.74 300.44,-431.23 287.49,-464.04"/>
<polygon fill="black" stroke="black" points="284.29,-462.62 283.81,-473.2 290.79,-465.23 284.29,-462.62"/>
<text xml:space="preserve" text-anchor="middle" x="387.85" y="-310.8" font-family="Times,serif" font-size="14.00">Generated Tests</text>
</g>
<!-- Test Healer&#45;&gt;Test Coverage -->
<g id="edge6" class="edge">
<title>Test Healer&#45;&gt;Test Coverage</title>
<path fill="none" stroke="black" d="M580.71,-162.32C585.06,-196.44 590.04,-273.07 557,-324.1 507.86,-399.99 411.22,-446.35 345.13,-470.57"/>
<polygon fill="black" stroke="black" points="344.06,-467.24 335.82,-473.9 346.41,-473.83 344.06,-467.24"/>
<text xml:space="preserve" text-anchor="middle" x="606.92" y="-310.8" font-family="Times,serif" font-size="14.00">Healed Tests</text>
</g>
</g>
</svg>
