<?xml version="1.0" encoding="UTF-8" standalone="no"?>
<!DOCTYPE svg PUBLIC "-//W3C//DTD SVG 1.1//EN"
 "http://www.w3.org/Graphics/SVG/1.1/DTD/svg11.dtd">
<!-- Generated by graphviz version 2.44.1 (20201121.0304)
 -->
<!-- Title: G Pages: 1 -->
<svg width="487pt" height="482pt"
 viewBox="0.00 0.00 487.00 482.00" xmlns="http://www.w3.org/2000/svg" xmlns:xlink="http://www.w3.org/1999/xlink"><style>
  * {
    fill: transparent !important;
    stroke: rgb(30, 30, 30) !important;
    stroke-width: 1 !important;
  }
  polygon:not(.cluster *, .node *, .edge *, text) {
    stroke: transparent !important;
  }
  text {
    font-size: 10px !important;
    font-family: monospace !important;
    fill: rgb(30, 30, 30) !important;
    stroke: transparent !important;
    transform: translateY(-0.5em);
  }
</style>
<g id="graph0" class="graph" transform="scale(1 1) rotate(0) translate(4 478)">
<title>G</title>
<polygon fill="white" stroke="none" points="-4,4 -4,-478 482.58,-478 482.58,4 -4,4"/>
<!-- Test Runner -->
<g id="node1" class="node">
<title>Test Runner</title>
<polygon fill="lightblue" stroke="black" points="286.03,-474 187.53,-474 187.53,-438 286.03,-438 286.03,-474"/>
<text xml:space="preserve" text-anchor="middle" x="236.78" y="-447.95" font-family="Times,serif" font-size="14.00">Test Runner</text>
</g>
<!-- InternalReporter -->
<g id="node2" class="node">
<title>InternalReporter</title>
<polygon fill="lightblue" stroke="black" points="304.78,-392 168.78,-392 168.78,-356 304.78,-356 304.78,-392"/>
<text xml:space="preserve" text-anchor="middle" x="236.78" y="-365.95" font-family="Times,serif" font-size="14.00">InternalReporter</text>
</g>
<!-- Test Runner&#45;&gt;InternalReporter -->
<g id="edge1" class="edge">
<title>Test Runner&#45;&gt;InternalReporter</title>
<path fill="none" stroke="black" d="M236.78,-437.64C236.78,-427.68 236.78,-414.93 236.78,-403.54"/>
<polygon fill="black" stroke="black" points="240.28,-403.84 236.78,-393.84 233.28,-403.84 240.28,-403.84"/>
<text xml:space="preserve" text-anchor="middle" x="281.78" y="-406.95" font-family="Times,serif" font-size="14.00">emits events</text>
</g>
<!-- Multiplexer -->
<g id="node3" class="node">
<title>Multiplexer</title>
<polygon fill="lightblue" stroke="black" points="172.03,-255 73.53,-255 73.53,-219 172.03,-219 172.03,-255"/>
<text xml:space="preserve" text-anchor="middle" x="122.78" y="-228.95" font-family="Times,serif" font-size="14.00">Multiplexer</text>
</g>
<!-- InternalReporter&#45;&gt;Multiplexer -->
<g id="edge2" class="edge">
<title>InternalReporter&#45;&gt;Multiplexer</title>
<path fill="none" stroke="black" d="M197.28,-355.52C188.67,-350.47 180.11,-344.37 173.28,-337.25 153.77,-316.9 140.1,-287.54 131.95,-266.03"/>
<polygon fill="black" stroke="black" points="135.28,-264.94 128.6,-256.72 128.69,-267.31 135.28,-264.94"/>
<text xml:space="preserve" text-anchor="middle" x="229.53" y="-323.95" font-family="Times,serif" font-size="14.00">forwards events</text>
</g>
<!-- TeleReporterEmitter -->
<g id="node5" class="node">
<title>TeleReporterEmitter</title>
<polygon fill="lightblue" stroke="black" points="429.03,-309 270.53,-309 270.53,-273 429.03,-273 429.03,-309"/>
<text xml:space="preserve" text-anchor="middle" x="349.78" y="-282.95" font-family="Times,serif" font-size="14.00">TeleReporterEmitter</text>
</g>
<!-- InternalReporter&#45;&gt;TeleReporterEmitter -->
<g id="edge4" class="edge">
<title>InternalReporter&#45;&gt;TeleReporterEmitter</title>
<path fill="none" stroke="black" d="M261.02,-355.62C277.26,-343.99 298.84,-328.52 316.65,-315.75"/>
<polygon fill="black" stroke="black" points="318.26,-318.9 324.35,-310.23 314.18,-313.21 318.26,-318.9"/>
<text xml:space="preserve" text-anchor="middle" x="356.29" y="-323.95" font-family="Times,serif" font-size="14.00">forwards events</text>
</g>
<!-- ReporterV2 Instances -->
<g id="node4" class="node">
<title>ReporterV2 Instances</title>
<polygon fill="lightblue" stroke="black" points="212.78,-36 46.78,-36 46.78,0 212.78,0 212.78,-36"/>
<text xml:space="preserve" text-anchor="middle" x="129.78" y="-9.95" font-family="Times,serif" font-size="14.00">ReporterV2 Instances</text>
</g>
<!-- Multiplexer&#45;&gt;ReporterV2 Instances -->
<g id="edge3" class="edge">
<title>Multiplexer&#45;&gt;ReporterV2 Instances</title>
<path fill="none" stroke="black" d="M123.34,-218.61C124.54,-181.39 127.37,-93.69 128.85,-47.93"/>
<polygon fill="black" stroke="black" points="132.34,-48.09 129.17,-37.99 125.35,-47.87 132.34,-48.09"/>
<text xml:space="preserve" text-anchor="middle" x="193.4" y="-133.95" font-family="Times,serif" font-size="14.00">distributes events</text>
</g>
<!-- Serialized Events -->
<g id="node6" class="node">
<title>Serialized Events</title>
<polygon fill="lightblue" stroke="black" points="423.53,-201 280.03,-201 280.03,-165 423.53,-165 423.53,-201"/>
<text xml:space="preserve" text-anchor="middle" x="351.78" y="-174.95" font-family="Times,serif" font-size="14.00">Serialized Events</text>
</g>
<!-- TeleReporterEmitter&#45;&gt;Serialized Events -->
<g id="edge5" class="edge">
<title>TeleReporterEmitter&#45;&gt;Serialized Events</title>
<path fill="none" stroke="black" d="M350.1,-272.97C350.41,-256.76 350.87,-232.06 351.24,-212.79"/>
<polygon fill="black" stroke="black" points="354.73,-212.92 351.42,-202.85 347.74,-212.79 354.73,-212.92"/>
<text xml:space="preserve" text-anchor="middle" x="414.83" y="-228.95" font-family="Times,serif" font-size="14.00">serializes events</text>
</g>
<!-- createMergedReport -->
<g id="node7" class="node">
<title>createMergedReport</title>
<polygon fill="lightblue" stroke="black" points="386.28,-119 235.28,-119 235.28,-83 386.28,-83 386.28,-119"/>
<text xml:space="preserve" text-anchor="middle" x="310.78" y="-92.95" font-family="Times,serif" font-size="14.00">createMergedReport</text>
</g>
<!-- Serialized Events&#45;&gt;createMergedReport -->
<g id="edge6" class="edge">
<title>Serialized Events&#45;&gt;createMergedReport</title>
<path fill="none" stroke="black" d="M342.88,-164.64C337.62,-154.37 330.83,-141.12 324.85,-129.46"/>
<polygon fill="black" stroke="black" points="328.02,-127.97 320.35,-120.67 321.79,-131.17 328.02,-127.97"/>
<text xml:space="preserve" text-anchor="middle" x="397.48" y="-133.95" font-family="Times,serif" font-size="14.00">input for merging</text>
</g>
<!-- createMergedReport&#45;&gt;ReporterV2 Instances -->
<g id="edge7" class="edge">
<title>createMergedReport&#45;&gt;ReporterV2 Instances</title>
<path fill="none" stroke="black" d="M271.95,-82.62C244.84,-70.49 208.44,-54.2 179.25,-41.14"/>
<polygon fill="black" stroke="black" points="180.79,-38 170.24,-37.11 177.94,-44.39 180.79,-38"/>
<text xml:space="preserve" text-anchor="middle" x="315.71" y="-50.95" font-family="Times,serif" font-size="14.00">dispatches merged events</text>
</g>
</g>
</svg>
