<?xml version="1.0" encoding="UTF-8" standalone="no"?>
<!DOCTYPE svg PUBLIC "-//W3C//DTD SVG 1.1//EN"
 "http://www.w3.org/Graphics/SVG/1.1/DTD/svg11.dtd">
<!-- Generated by graphviz version 2.44.1 (20201121.0304)
 -->
<!-- Title: G Pages: 1 -->
<svg width="1277pt" height="1296pt"
 viewBox="0.00 0.00 1277.00 1296.00" xmlns="http://www.w3.org/2000/svg" xmlns:xlink="http://www.w3.org/1999/xlink"><style>
  * {
    fill: transparent !important;
    stroke: rgb(30, 30, 30) !important;
    stroke-width: 1 !important;
  }
  polygon:not(.cluster *, .node *, .edge *, text) {
    stroke: transparent !important;
  }
  text {
    font-size: 10px !important;
    font-family: monospace !important;
    fill: rgb(30, 30, 30) !important;
    stroke: transparent !important;
    transform: translateY(-0.5em);
  }
</style>
<g id="graph0" class="graph" transform="scale(1 1) rotate(0) translate(4 1291.95)">
<title>G</title>
<polygon fill="#fdfdfd" stroke="none" points="-4,4 -4,-1291.95 1273.45,-1291.95 1273.45,4 -4,4"/>
<text xml:space="preserve" text-anchor="middle" x="634.73" y="4.5" font-family="Arial" font-size="20.00">Playwright System Architecture Overview</text>
<!-- Client &amp; Test Runner -->
<g id="node1" class="node">
<title>Client &amp; Test Runner</title>
<polygon fill="lightblue" stroke="black" points="619.45,-1241.15 426.25,-1241.15 426.25,-1201.85 619.45,-1201.85 619.45,-1241.15"/>
<text xml:space="preserve" text-anchor="middle" x="522.85" y="-1213.45" font-family="Arial" font-size="14.00">Client &amp; Test Runner</text>
</g>
<!-- Automation Server -->
<g id="node2" class="node">
<title>Automation Server</title>
<polygon fill="lightblue" stroke="black" points="754.2,-483.15 583.5,-483.15 583.5,-443.85 754.2,-443.85 754.2,-483.15"/>
<text xml:space="preserve" text-anchor="middle" x="668.85" y="-455.45" font-family="Arial" font-size="14.00">Automation Server</text>
</g>
<!-- Client &amp; Test Runner&#45;&gt;Automation Server -->
<g id="edge1" class="edge">
<title>Client &amp; Test Runner&#45;&gt;Automation Server</title>
<path fill="none" stroke="#333333" stroke-width="2" d="M595.48,-1192.1C595.48,-1192.1 595.48,-493.04 595.48,-493.04"/>
<polygon fill="#333333" stroke="#333333" stroke-width="2" points="592.68,-1190.59 595.48,-1198.59 598.28,-1190.59 592.68,-1190.59"/>
<polygon fill="#333333" stroke="#333333" stroke-width="2" points="598.28,-494.55 595.48,-486.55 592.68,-494.55 598.28,-494.55"/>
</g>
<!-- Component Testing -->
<g id="node3" class="node">
<title>Component Testing</title>
<polygon fill="lightblue" stroke="black" points="414.2,-862.15 243.5,-862.15 243.5,-822.85 414.2,-822.85 414.2,-862.15"/>
<text xml:space="preserve" text-anchor="middle" x="328.85" y="-834.45" font-family="Arial" font-size="14.00">Component Testing</text>
</g>
<!-- Client &amp; Test Runner&#45;&gt;Component Testing -->
<g id="edge2" class="edge">
<title>Client &amp; Test Runner&#45;&gt;Component Testing</title>
<path fill="none" stroke="#333333" stroke-width="2" d="M504.88,-1192.05C504.88,-1192.05 504.88,-835.5 504.88,-835.5 504.88,-835.5 424.06,-835.5 424.06,-835.5"/>
<polygon fill="#333333" stroke="#333333" stroke-width="2" points="502.08,-1190.53 504.88,-1198.53 507.68,-1190.53 502.08,-1190.53"/>
<polygon fill="#333333" stroke="#333333" stroke-width="2" points="425.57,-832.7 417.57,-835.5 425.57,-838.3 425.57,-832.7"/>
</g>
<!-- AI Test Agents -->
<g id="node4" class="node">
<title>AI Test Agents</title>
<polygon fill="lightblue" stroke="black" points="1119.95,-1241.15 971.75,-1241.15 971.75,-1201.85 1119.95,-1201.85 1119.95,-1241.15"/>
<text xml:space="preserve" text-anchor="middle" x="1045.85" y="-1213.45" font-family="Arial" font-size="14.00">AI Test Agents</text>
</g>
<!-- Client &amp; Test Runner&#45;&gt;AI Test Agents -->
<g id="edge3" class="edge">
<title>Client &amp; Test Runner&#45;&gt;AI Test Agents</title>
<path fill="none" stroke="#333333" stroke-width="2" d="M522.85,-1250.9C522.85,-1250.9 522.85,-1259.5 522.85,-1259.5 522.85,-1259.5 1045.85,-1259.5 1045.85,-1259.5 1045.85,-1259.5 1045.85,-1250.9 1045.85,-1250.9"/>
<polygon fill="#333333" stroke="#333333" stroke-width="2" points="525.65,-1252.42 522.85,-1244.42 520.05,-1252.42 525.65,-1252.42"/>
<polygon fill="#333333" stroke="#333333" stroke-width="2" points="1048.65,-1252.42 1045.85,-1244.42 1043.05,-1252.42 1048.65,-1252.42"/>
</g>
<!-- Reporting &amp; Tracing -->
<g id="node5" class="node">
<title>Reporting &amp; Tracing</title>
<polygon fill="lightblue" stroke="black" points="817.7,-862.15 632,-862.15 632,-822.85 817.7,-822.85 817.7,-862.15"/>
<text xml:space="preserve" text-anchor="middle" x="724.85" y="-834.45" font-family="Arial" font-size="14.00">Reporting &amp; Tracing</text>
</g>
<!-- Client &amp; Test Runner&#45;&gt;Reporting &amp; Tracing -->
<g id="edge4" class="edge">
<title>Client &amp; Test Runner&#45;&gt;Reporting &amp; Tracing</title>
<path fill="none" stroke="#333333" stroke-width="2" d="M607.47,-1191.99C607.47,-1191.99 607.47,-849.5 607.47,-849.5 607.47,-849.5 621.99,-849.5 621.99,-849.5"/>
<polygon fill="#333333" stroke="#333333" stroke-width="2" points="604.67,-1190.47 607.47,-1198.47 610.27,-1190.47 604.67,-1190.47"/>
<polygon fill="#333333" stroke="#333333" stroke-width="2" points="620.48,-852.3 628.48,-849.5 620.48,-846.7 620.48,-852.3"/>
</g>
<!-- Interactive Tools (UI) -->
<g id="node6" class="node">
<title>Interactive Tools (UI)</title>
<polygon fill="lightblue" stroke="black" points="899.95,-1241.15 691.75,-1241.15 691.75,-1201.85 899.95,-1201.85 899.95,-1241.15"/>
<text xml:space="preserve" text-anchor="middle" x="795.85" y="-1213.45" font-family="Arial" font-size="14.00">Interactive Tools (UI)</text>
</g>
<!-- Client &amp; Test Runner&#45;&gt;Interactive Tools (UI) -->
<g id="edge5" class="edge">
<title>Client &amp; Test Runner&#45;&gt;Interactive Tools (UI)</title>
<path fill="none" stroke="#333333" stroke-width="2" d="M629.38,-1228.5C629.38,-1228.5 681.76,-1228.5 681.76,-1228.5"/>
<polygon fill="#333333" stroke="#333333" stroke-width="2" points="630.9,-1225.7 622.9,-1228.5 630.9,-1231.3 630.9,-1225.7"/>
<polygon fill="#333333" stroke="#333333" stroke-width="2" points="680.25,-1231.3 688.25,-1228.5 680.25,-1225.7 680.25,-1231.3"/>
</g>
<!-- Browser Engines (Chromium, Firefox, WebKit) -->
<g id="node7" class="node">
<title>Browser Engines (Chromium, Firefox, WebKit)</title>
<polygon fill="lightblue" stroke="black" points="365.7,-483.15 0,-483.15 0,-443.85 365.7,-443.85 365.7,-483.15"/>
<text xml:space="preserve" text-anchor="middle" x="182.85" y="-455.45" font-family="Arial" font-size="14.00">Browser Engines (Chromium, Firefox, WebKit)</text>
</g>
<!-- Automation Server&#45;&gt;Browser Engines (Chromium, Firefox, WebKit) -->
<g id="edge6" class="edge">
<title>Automation Server&#45;&gt;Browser Engines (Chromium, Firefox, WebKit)</title>
<path fill="none" stroke="#333333" stroke-width="2" d="M573.57,-463.5C573.57,-463.5 375.66,-463.5 375.66,-463.5"/>
<polygon fill="#333333" stroke="#333333" stroke-width="2" points="572.05,-466.3 580.05,-463.5 572.05,-460.7 572.05,-466.3"/>
<polygon fill="#333333" stroke="#333333" stroke-width="2" points="377.18,-460.7 369.18,-463.5 377.18,-466.3 377.18,-460.7"/>
</g>
<!-- Android Automation -->
<g id="node8" class="node">
<title>Android Automation</title>
<polygon fill="lightblue" stroke="black" points="1003.95,-483.15 825.75,-483.15 825.75,-443.85 1003.95,-443.85 1003.95,-483.15"/>
<text xml:space="preserve" text-anchor="middle" x="914.85" y="-455.45" font-family="Arial" font-size="14.00">Android Automation</text>
</g>
<!-- Automation Server&#45;&gt;Android Automation -->
<g id="edge7" class="edge">
<title>Automation Server&#45;&gt;Android Automation</title>
<path fill="none" stroke="#333333" stroke-width="2" d="M764.06,-463.5C764.06,-463.5 815.77,-463.5 815.77,-463.5"/>
<polygon fill="#333333" stroke="#333333" stroke-width="2" points="765.57,-460.7 757.57,-463.5 765.57,-466.3 765.57,-460.7"/>
<polygon fill="#333333" stroke="#333333" stroke-width="2" points="814.26,-466.3 822.26,-463.5 814.26,-460.7 814.26,-466.3"/>
</g>
<!-- Electron Integration -->
<g id="node9" class="node">
<title>Electron Integration</title>
<polygon fill="lightblue" stroke="black" points="1269.45,-483.15 1076.25,-483.15 1076.25,-443.85 1269.45,-443.85 1269.45,-483.15"/>
<text xml:space="preserve" text-anchor="middle" x="1172.85" y="-455.45" font-family="Arial" font-size="14.00">Electron Integration</text>
</g>
<!-- Automation Server&#45;&gt;Electron Integration -->
<g id="edge8" class="edge">
<title>Automation Server&#45;&gt;Electron Integration</title>
<path fill="none" stroke="#333333" stroke-width="2" d="M693.1,-492.99C693.1,-492.99 693.1,-653.5 693.1,-653.5 693.1,-653.5 1098.1,-653.5 1098.1,-653.5 1098.1,-653.5 1098.1,-492.99 1098.1,-492.99"/>
<polygon fill="#333333" stroke="#333333" stroke-width="2" points="695.9,-494.5 693.1,-486.5 690.3,-494.5 695.9,-494.5"/>
<polygon fill="#333333" stroke="#333333" stroke-width="2" points="1100.9,-494.5 1098.1,-486.5 1095.3,-494.5 1100.9,-494.5"/>
</g>
<!-- Component Testing&#45;&gt;Browser Engines (Chromium, Firefox, WebKit) -->
<g id="edge9" class="edge">
<title>Component Testing&#45;&gt;Browser Engines (Chromium, Firefox, WebKit)</title>
<path fill="none" stroke="#333333" stroke-width="2" d="M304.6,-812.88C304.6,-812.88 304.6,-493.07 304.6,-493.07"/>
<polygon fill="#333333" stroke="#333333" stroke-width="2" points="301.8,-811.36 304.6,-819.36 307.4,-811.36 301.8,-811.36"/>
<polygon fill="#333333" stroke="#333333" stroke-width="2" points="307.4,-494.59 304.6,-486.59 301.8,-494.59 307.4,-494.59"/>
</g>
<!-- Reporting &amp; Tracing&#45;&gt;Interactive Tools (UI) -->
<g id="edge11" class="edge">
<title>Reporting &amp; Tracing&#45;&gt;Interactive Tools (UI)</title>
<path fill="none" stroke="#333333" stroke-width="2" d="M754.73,-862.61C754.73,-862.61 754.73,-1191.93 754.73,-1191.93"/>
<polygon fill="#333333" stroke="#333333" stroke-width="2" points="751.93,-1190.41 754.73,-1198.41 757.53,-1190.41 751.93,-1190.41"/>
</g>
<!-- Interactive Tools (UI)&#45;&gt;Automation Server -->
<g id="edge10" class="edge">
<title>Interactive Tools (UI)&#45;&gt;Automation Server</title>
<path fill="none" stroke="#333333" stroke-width="2" d="M681.99,-1214.5C681.99,-1214.5 625.73,-1214.5 625.73,-1214.5 625.73,-1214.5 625.73,-493.1 625.73,-493.1"/>
<polygon fill="#333333" stroke="#333333" stroke-width="2" points="680.47,-1217.3 688.47,-1214.5 680.47,-1211.7 680.47,-1217.3"/>
<polygon fill="#333333" stroke="#333333" stroke-width="2" points="628.53,-494.61 625.73,-486.61 622.93,-494.61 628.53,-494.61"/>
</g>
<!-- Dev &amp; Build System -->
<g id="node10" class="node">
<title>Dev &amp; Build System</title>
<polygon fill="lightblue" stroke="black" points="417.95,-105.15 239.75,-105.15 239.75,-65.85 417.95,-65.85 417.95,-105.15"/>
<text xml:space="preserve" text-anchor="middle" x="328.85" y="-77.45" font-family="Arial" font-size="14.00">Dev &amp; Build System</text>
</g>
<!-- Dev &amp; Build System&#45;&gt;Component Testing -->
<g id="edge13" class="edge">
<title>Dev &amp; Build System&#45;&gt;Component Testing</title>
<path fill="none" stroke="#333333" stroke-width="2" d="M389.95,-105.36C389.95,-105.36 389.95,-812.99 389.95,-812.99"/>
<polygon fill="#333333" stroke="#333333" stroke-width="2" points="387.15,-811.47 389.95,-819.47 392.75,-811.47 387.15,-811.47"/>
</g>
<!-- Dev &amp; Build System&#45;&gt;Browser Engines (Chromium, Firefox, WebKit) -->
<g id="edge12" class="edge">
<title>Dev &amp; Build System&#45;&gt;Browser Engines (Chromium, Firefox, WebKit)</title>
<path fill="none" stroke="#333333" stroke-width="2" d="M302.73,-105.56C302.73,-105.56 302.73,-433.98 302.73,-433.98"/>
<polygon fill="#333333" stroke="#333333" stroke-width="2" points="299.93,-432.47 302.73,-440.47 305.53,-432.47 299.93,-432.47"/>
</g>
</g>
</svg>
