<?xml version="1.0" encoding="UTF-8" standalone="no"?>
<!DOCTYPE svg PUBLIC "-//W3C//DTD SVG 1.1//EN"
 "http://www.w3.org/Graphics/SVG/1.1/DTD/svg11.dtd">
<!-- Generated by graphviz version 2.44.1 (20201121.0304)
 -->
<!-- Title: G Pages: 1 -->
<svg width="834pt" height="616pt"
 viewBox="0.00 0.00 834.00 616.00" xmlns="http://www.w3.org/2000/svg" xmlns:xlink="http://www.w3.org/1999/xlink"><style>
  * {
    fill: transparent !important;
    stroke: rgb(30, 30, 30) !important;
    stroke-width: 1 !important;
  }
  polygon:not(.cluster *, .node *, .edge *, text) {
    stroke: transparent !important;
  }
  text {
    font-size: 10px !important;
    font-family: monospace !important;
    fill: rgb(30, 30, 30) !important;
    stroke: transparent !important;
    transform: translateY(-0.5em);
  }
</style>
<g id="graph0" class="graph" transform="scale(1 1) rotate(0) translate(4 612.25)">
<title>G</title>
<polygon fill="white" stroke="none" points="-4,4 -4,-612.25 830,-612.25 830,4 -4,4"/>
<!-- Juggler -->
<g id="node1" class="node">
<title>Juggler</title>
<polygon fill="lightblue" stroke="black" points="393.75,-606 190.25,-606 190.25,-570 393.75,-570 393.75,-606"/>
<text xml:space="preserve" text-anchor="middle" x="292" y="-579.95" font-family="Times,serif" font-size="14.00">Juggler (Main Entrypoint)</text>
</g>
<!-- TargetRegistry -->
<g id="node2" class="node">
<title>TargetRegistry</title>
<polygon fill="lightblue" stroke="black" points="508.75,-417 185.25,-417 185.25,-381 508.75,-381 508.75,-417"/>
<text xml:space="preserve" text-anchor="middle" x="347" y="-390.95" font-family="Times,serif" font-size="14.00">Target Registry (Page/Context Management)</text>
</g>
<!-- Juggler&#45;&gt;TargetRegistry -->
<g id="edge1" class="edge">
<title>Juggler&#45;&gt;TargetRegistry</title>
<path fill="none" stroke="black" d="M290.82,-569.82C289.83,-547.41 289.98,-507.26 300.5,-475 306.16,-457.65 316.62,-440.22 326.18,-426.52"/>
<polygon fill="black" stroke="black" points="328.97,-428.64 332.02,-418.5 323.31,-424.53 328.97,-428.64"/>
<text xml:space="preserve" text-anchor="middle" x="326.75" y="-484.95" font-family="Times,serif" font-size="14.00">manages</text>
</g>
<!-- NetworkObserver -->
<g id="node3" class="node">
<title>NetworkObserver</title>
<polygon fill="lightblue" stroke="black" points="655.75,-511 362.25,-511 362.25,-475 655.75,-475 655.75,-511"/>
<text xml:space="preserve" text-anchor="middle" x="509" y="-484.95" font-family="Times,serif" font-size="14.00">Network Observer (Traffic Monitoring)</text>
</g>
<!-- Juggler&#45;&gt;NetworkObserver -->
<g id="edge2" class="edge">
<title>Juggler&#45;&gt;NetworkObserver</title>
<path fill="none" stroke="black" d="M332.82,-569.51C368.28,-554.31 419.8,-532.23 457.98,-515.87"/>
<polygon fill="black" stroke="black" points="459.16,-519.17 466.98,-512.01 456.41,-512.73 459.16,-519.17"/>
<text xml:space="preserve" text-anchor="middle" x="454.74" y="-531.95" font-family="Times,serif" font-size="14.00">initializes</text>
</g>
<!-- SimpleChannel -->
<g id="node4" class="node">
<title>SimpleChannel</title>
<polygon fill="lightblue" stroke="black" points="404.25,-228 65.75,-228 65.75,-192 404.25,-192 404.25,-228"/>
<text xml:space="preserve" text-anchor="middle" x="235" y="-201.95" font-family="Times,serif" font-size="14.00">SimpleChannel (Inter&#45;Process Communication)</text>
</g>
<!-- Juggler&#45;&gt;SimpleChannel -->
<g id="edge3" class="edge">
<title>Juggler&#45;&gt;SimpleChannel</title>
<path fill="none" stroke="black" d="M189.87,-573.98C105.67,-560.3 0,-534.97 0,-494 0,-494 0,-494 0,-303 0,-275.67 11.33,-267.02 34,-251.75 45.59,-243.94 58.36,-237.57 71.66,-232.38"/>
<polygon fill="black" stroke="black" points="72.81,-235.69 81.01,-228.98 70.42,-229.11 72.81,-235.69"/>
<text xml:space="preserve" text-anchor="middle" x="48.75" y="-390.95" font-family="Times,serif" font-size="14.00">uses for pipe</text>
</g>
<!-- ProtocolHandlers -->
<g id="node5" class="node">
<title>ProtocolHandlers</title>
<polygon fill="lightblue" stroke="black" points="493.75,-322 200.25,-322 200.25,-286 493.75,-286 493.75,-322"/>
<text xml:space="preserve" text-anchor="middle" x="347" y="-295.95" font-family="Times,serif" font-size="14.00">Protocol Handlers (Browser/Page APIs)</text>
</g>
<!-- TargetRegistry&#45;&gt;ProtocolHandlers -->
<g id="edge4" class="edge">
<title>TargetRegistry&#45;&gt;ProtocolHandlers</title>
<path fill="none" stroke="black" d="M347,-380.51C347,-367.39 347,-349.14 347,-333.87"/>
<polygon fill="black" stroke="black" points="350.5,-333.93 347,-323.93 343.5,-333.93 350.5,-333.93"/>
<text xml:space="preserve" text-anchor="middle" x="425.75" y="-342.95" font-family="Times,serif" font-size="14.00">creates Page Handlers</text>
</g>
<!-- ContentScripts -->
<g id="node6" class="node">
<title>ContentScripts</title>
<polygon fill="lightblue" stroke="black" points="345,-133 89,-133 89,-97 345,-97 345,-133"/>
<text xml:space="preserve" text-anchor="middle" x="217" y="-106.95" font-family="Times,serif" font-size="14.00">Content Scripts (In&#45;page Agents)</text>
</g>
<!-- TargetRegistry&#45;&gt;ContentScripts -->
<g id="edge5" class="edge">
<title>TargetRegistry&#45;&gt;ContentScripts</title>
<path fill="none" stroke="black" d="M245.18,-380.54C177.38,-363.05 93.17,-328.71 50.5,-262.25 40.98,-247.41 11.65,-255.81 57,-192 75.33,-166.21 104.76,-148.88 133.41,-137.37"/>
<polygon fill="black" stroke="black" points="134.39,-140.74 142.5,-133.92 131.9,-134.2 134.39,-140.74"/>
<text xml:space="preserve" text-anchor="middle" x="129.25" y="-248.95" font-family="Times,serif" font-size="14.00">injects via FrameTree</text>
</g>
<!-- FirefoxInternals -->
<g id="node7" class="node">
<title>FirefoxInternals</title>
<polygon fill="lightblue" stroke="black" points="674,-39 358,-39 358,-3 674,-3 674,-39"/>
<text xml:space="preserve" text-anchor="middle" x="516" y="-12.95" font-family="Times,serif" font-size="14.00">Firefox Internals (XPCOM, Services, DOM)</text>
</g>
<!-- TargetRegistry&#45;&gt;FirefoxInternals -->
<g id="edge6" class="edge">
<title>TargetRegistry&#45;&gt;FirefoxInternals</title>
<path fill="none" stroke="black" d="M506.11,-380.57C543.65,-367.15 573,-344.14 573,-305 573,-305 573,-305 573,-114 573,-88.88 557.45,-64.9 542.6,-47.73"/>
<polygon fill="black" stroke="black" points="545.33,-45.53 536,-40.52 540.17,-50.26 545.33,-45.53"/>
<text xml:space="preserve" text-anchor="middle" x="625.5" y="-201.95" font-family="Times,serif" font-size="14.00">interacts with</text>
</g>
<!-- NetworkObserver&#45;&gt;TargetRegistry -->
<g id="edge7" class="edge">
<title>NetworkObserver&#45;&gt;TargetRegistry</title>
<path fill="none" stroke="black" d="M478.53,-474.7C452.82,-460.09 415.79,-439.07 387.57,-423.04"/>
<polygon fill="black" stroke="black" points="389.35,-420.03 378.93,-418.13 385.89,-426.11 389.35,-420.03"/>
<text xml:space="preserve" text-anchor="middle" x="459.11" y="-437.95" font-family="Times,serif" font-size="14.00">informs</text>
</g>
<!-- NetworkObserver&#45;&gt;FirefoxInternals -->
<g id="edge8" class="edge">
<title>NetworkObserver&#45;&gt;FirefoxInternals</title>
<path fill="none" stroke="black" d="M635.43,-474.55C673.8,-461.58 706,-439.07 706,-400 706,-400 706,-400 706,-114 706,-78.54 678.87,-56.75 645.11,-43.35"/>
<polygon fill="black" stroke="black" points="646.46,-40.12 635.86,-39.97 644.06,-46.69 646.46,-40.12"/>
<text xml:space="preserve" text-anchor="middle" x="766" y="-248.95" font-family="Times,serif" font-size="14.00">observes traffic</text>
</g>
<!-- SimpleChannel&#45;&gt;ProtocolHandlers -->
<g id="edge9" class="edge">
<title>SimpleChannel&#45;&gt;ProtocolHandlers</title>
<path fill="none" stroke="black" d="M290.5,-228.41C303,-234.3 315.39,-241.95 325,-251.75 331.41,-258.29 336.09,-266.99 339.44,-275.36"/>
<polygon fill="black" stroke="black" points="336.03,-276.24 342.61,-284.54 342.65,-273.95 336.03,-276.24"/>
<text xml:space="preserve" text-anchor="middle" x="381.14" y="-248.95" font-family="Times,serif" font-size="14.00">data exchange</text>
</g>
<!-- SimpleChannel&#45;&gt;ContentScripts -->
<g id="edge10" class="edge">
<title>SimpleChannel&#45;&gt;ContentScripts</title>
<path fill="none" stroke="black" d="M245.87,-191.91C251.01,-181.64 255.2,-168.35 251,-156.75 249.14,-151.61 246.31,-146.66 243.06,-142.09"/>
<polygon fill="black" stroke="black" points="245.94,-140.08 236.94,-134.48 240.49,-144.47 245.94,-140.08"/>
<text xml:space="preserve" text-anchor="middle" x="301.47" y="-153.95" font-family="Times,serif" font-size="14.00">data exchange</text>
</g>
<!-- ProtocolHandlers&#45;&gt;SimpleChannel -->
<g id="edge11" class="edge">
<title>ProtocolHandlers&#45;&gt;SimpleChannel</title>
<path fill="none" stroke="black" d="M244.01,-285.61C233.11,-279.83 223.34,-272.22 216,-262.25 210.78,-255.16 211.84,-246.47 215.32,-238.28"/>
<polygon fill="black" stroke="black" points="218.3,-240.11 220,-229.65 212.15,-236.77 218.3,-240.11"/>
<text xml:space="preserve" text-anchor="middle" x="268.5" y="-248.95" font-family="Times,serif" font-size="14.00">sends commands</text>
</g>
<!-- ProtocolHandlers&#45;&gt;FirefoxInternals -->
<g id="edge12" class="edge">
<title>ProtocolHandlers&#45;&gt;FirefoxInternals</title>
<path fill="none" stroke="black" d="M403.08,-285.57C414.64,-279.74 425.79,-272.12 434,-262.25 464.99,-225 446.27,-202.75 461.5,-156.75 474.05,-118.85 491.9,-76.33 503.71,-49.38"/>
<polygon fill="black" stroke="black" points="506.76,-51.12 507.6,-40.56 500.36,-48.29 506.76,-51.12"/>
<text xml:space="preserve" text-anchor="middle" x="510.25" y="-153.95" font-family="Times,serif" font-size="14.00">translates to</text>
</g>
<!-- ContentScripts&#45;&gt;SimpleChannel -->
<g id="edge14" class="edge">
<title>ContentScripts&#45;&gt;SimpleChannel</title>
<path fill="none" stroke="black" d="M174.69,-133.45C160,-142.22 148.97,-153.85 157,-167.25 161.29,-174.41 167.27,-180.41 174.02,-185.42"/>
<polygon fill="black" stroke="black" points="172.08,-188.32 182.37,-190.83 175.89,-182.45 172.08,-188.32"/>
<text xml:space="preserve" text-anchor="middle" x="202" y="-153.95" font-family="Times,serif" font-size="14.00">sends events</text>
</g>
<!-- ContentScripts&#45;&gt;FirefoxInternals -->
<g id="edge13" class="edge">
<title>ContentScripts&#45;&gt;FirefoxInternals</title>
<path fill="none" stroke="black" d="M251.73,-96.59C274.54,-85.69 305.26,-72.02 333.5,-62.75 357.95,-54.73 384.76,-47.77 410.12,-41.98"/>
<polygon fill="black" stroke="black" points="410.8,-45.41 419.79,-39.81 409.27,-38.58 410.8,-45.41"/>
<text xml:space="preserve" text-anchor="middle" x="389.75" y="-59.95" font-family="Times,serif" font-size="14.00">manipulates DOM</text>
</g>
</g>
</svg>
