<?xml version="1.0" encoding="UTF-8" standalone="no"?>
<!DOCTYPE svg PUBLIC "-//W3C//DTD SVG 1.1//EN"
 "http://www.w3.org/Graphics/SVG/1.1/DTD/svg11.dtd">
<!-- Generated by graphviz version 2.44.1 (20201121.0304)
 -->
<!-- Title: G Pages: 1 -->
<svg width="385pt" height="385pt"
 viewBox="0.00 0.00 385.00 385.00" xmlns="http://www.w3.org/2000/svg" xmlns:xlink="http://www.w3.org/1999/xlink"><style>
  * {
    fill: transparent !important;
    stroke: rgb(30, 30, 30) !important;
    stroke-width: 1 !important;
  }
  polygon:not(.cluster *, .node *, .edge *, text) {
    stroke: transparent !important;
  }
  text {
    font-size: 10px !important;
    font-family: monospace !important;
    fill: rgb(30, 30, 30) !important;
    stroke: transparent !important;
    transform: translateY(-0.5em);
  }
</style>
<g id="graph0" class="graph" transform="scale(1 1) rotate(0) translate(4 381.25)">
<title>G</title>
<polygon fill="white" stroke="none" points="-4,4 -4,-381.25 381.25,-381.25 381.25,4 -4,4"/>
<!-- Build Configuration -->
<g id="node1" class="node">
<title>Build Configuration</title>
<polygon fill="lightblue" stroke="black" points="347.25,-377 61.25,-377 61.25,-341 347.25,-341 347.25,-377"/>
<text xml:space="preserve" text-anchor="middle" x="204.25" y="-356.2" font-family="Times,serif" font-size="14.00">Build Configuration</text>
<text xml:space="preserve" text-anchor="middle" x="204.25" y="-345.7" font-family="Times,serif" font-size="14.00">(CMakeLists.txt, UPSTREAM_CONFIG.sh)</text>
</g>
<!-- Platform Entry Points -->
<g id="node2" class="node">
<title>Platform Entry Points</title>
<polygon fill="lightblue" stroke="black" points="291,-292 117.5,-292 117.5,-256 291,-256 291,-292"/>
<text xml:space="preserve" text-anchor="middle" x="204.25" y="-271.2" font-family="Times,serif" font-size="14.00">Platform Entry Points</text>
<text xml:space="preserve" text-anchor="middle" x="204.25" y="-260.7" font-family="Times,serif" font-size="14.00">(WinMain, pw_run.sh)</text>
</g>
<!-- Build Configuration&#45;&gt;Platform Entry Points -->
<g id="edge1" class="edge">
<title>Build Configuration&#45;&gt;Platform Entry Points</title>
<path fill="none" stroke="black" d="M204.25,-340.8C204.25,-330.08 204.25,-316.01 204.25,-303.64"/>
<polygon fill="black" stroke="black" points="207.75,-303.97 204.25,-293.97 200.75,-303.97 207.75,-303.97"/>
<text xml:space="preserve" text-anchor="middle" x="241.75" y="-307.95" font-family="Times,serif" font-size="14.00">configures</text>
</g>
<!-- Application Delegates/Windows\n(BrowserAppDelegate, MainWindow) -->
<g id="node3" class="node">
<title>Application Delegates/Windows\n(BrowserAppDelegate, MainWindow)</title>
<polygon fill="lightblue" stroke="black" points="332.25,-207 76.25,-207 76.25,-171 332.25,-171 332.25,-207"/>
<text xml:space="preserve" text-anchor="middle" x="204.25" y="-186.2" font-family="Times,serif" font-size="14.00">Application Delegates/Windows</text>
<text xml:space="preserve" text-anchor="middle" x="204.25" y="-175.7" font-family="Times,serif" font-size="14.00">(BrowserAppDelegate, MainWindow)</text>
</g>
<!-- Platform Entry Points&#45;&gt;Application Delegates/Windows\n(BrowserAppDelegate, MainWindow) -->
<g id="edge2" class="edge">
<title>Platform Entry Points&#45;&gt;Application Delegates/Windows\n(BrowserAppDelegate, MainWindow)</title>
<path fill="none" stroke="black" d="M204.25,-255.8C204.25,-245.08 204.25,-231.01 204.25,-218.64"/>
<polygon fill="black" stroke="black" points="207.75,-218.97 204.25,-208.97 200.75,-218.97 207.75,-218.97"/>
<text xml:space="preserve" text-anchor="middle" x="245.5" y="-222.95" font-family="Times,serif" font-size="14.00">initializes</text>
</g>
<!-- WKWebView / WKBrowserWindow -->
<g id="node4" class="node">
<title>WKWebView / WKBrowserWindow</title>
<polygon fill="lightblue" stroke="black" points="248.5,-122 0,-122 0,-86 248.5,-86 248.5,-122"/>
<text xml:space="preserve" text-anchor="middle" x="124.25" y="-95.95" font-family="Times,serif" font-size="14.00">WKWebView / WebKitBrowserWindow</text>
</g>
<!-- Application Delegates/Windows\n(BrowserAppDelegate, MainWindow)&#45;&gt;WKWebView / WKBrowserWindow -->
<g id="edge3" class="edge">
<title>Application Delegates/Windows\n(BrowserAppDelegate, MainWindow)&#45;&gt;WKWebView / WKBrowserWindow</title>
<path fill="none" stroke="black" d="M187.67,-170.8C176.49,-159.2 161.52,-143.67 148.94,-130.62"/>
<polygon fill="black" stroke="black" points="151.59,-128.32 142.13,-123.55 146.55,-133.18 151.59,-128.32"/>
<text xml:space="preserve" text-anchor="middle" x="192.9" y="-137.95" font-family="Times,serif" font-size="14.00">manages</text>
</g>
<!-- WKPage / WKNavigationDelegate / WKUIDelegate -->
<g id="node5" class="node">
<title>WKPage / WKNavigationDelegate / WKUIDelegate</title>
<polygon fill="lightblue" stroke="black" points="377.25,-37 31.25,-37 31.25,-1 377.25,-1 377.25,-37"/>
<text xml:space="preserve" text-anchor="middle" x="204.25" y="-10.95" font-family="Times,serif" font-size="14.00">WKPage / WKNavigationDelegate / WKUIDelegate</text>
</g>
<!-- Application Delegates/Windows\n(BrowserAppDelegate, MainWindow)&#45;&gt;WKPage / WKNavigationDelegate / WKUIDelegate -->
<g id="edge5" class="edge">
<title>Application Delegates/Windows\n(BrowserAppDelegate, MainWindow)&#45;&gt;WKPage / WKNavigationDelegate / WKUIDelegate</title>
<path fill="none" stroke="black" d="M221.74,-170.75C233.46,-158.25 248.31,-140.37 257.25,-122 268.38,-99.12 267.34,-91.53 270.25,-66.25 270.78,-61.61 272.64,-59.76 270.25,-55.75 267.67,-51.41 264.35,-47.57 260.59,-44.17"/>
<polygon fill="black" stroke="black" points="263.02,-41.62 252.95,-38.34 258.78,-47.19 263.02,-41.62"/>
<text xml:space="preserve" text-anchor="middle" x="305.63" y="-95.95" font-family="Times,serif" font-size="14.00">configures</text>
</g>
<!-- WKWebView / WKBrowserWindow&#45;&gt;WKPage / WKNavigationDelegate / WKUIDelegate -->
<g id="edge4" class="edge">
<title>WKWebView / WKBrowserWindow&#45;&gt;WKPage / WKNavigationDelegate / WKUIDelegate</title>
<path fill="none" stroke="black" d="M138.59,-85.52C146.26,-76.42 156.01,-65.25 165.25,-55.75 168.73,-52.17 172.49,-48.5 176.26,-44.94"/>
<polygon fill="black" stroke="black" points="178.33,-47.79 183.29,-38.42 173.57,-42.66 178.33,-47.79"/>
<text xml:space="preserve" text-anchor="middle" x="217.75" y="-52.95" font-family="Times,serif" font-size="14.00">interacts with</text>
</g>
</g>
</svg>
