<?xml version="1.0" encoding="UTF-8" standalone="no"?>
<!DOCTYPE svg PUBLIC "-//W3C//DTD SVG 1.1//EN"
 "http://www.w3.org/Graphics/SVG/1.1/DTD/svg11.dtd">
<!-- Generated by graphviz version 2.44.1 (20201121.0304)
 -->
<!-- Title: G Pages: 1 -->
<svg width="468pt" height="457pt"
 viewBox="0.00 0.00 468.00 457.00" xmlns="http://www.w3.org/2000/svg" xmlns:xlink="http://www.w3.org/1999/xlink"><style>
  * {
    fill: transparent !important;
    stroke: rgb(30, 30, 30) !important;
    stroke-width: 1 !important;
  }
  polygon:not(.cluster *, .node *, .edge *, text) {
    stroke: transparent !important;
  }
  text {
    font-size: 10px !important;
    font-family: monospace !important;
    fill: rgb(30, 30, 30) !important;
    stroke: transparent !important;
    transform: translateY(-0.5em);
  }
</style>
<g id="graph0" class="graph" transform="scale(1 1) rotate(0) translate(4 452.5)">
<title>G</title>
<polygon fill="white" stroke="none" points="-4,4 -4,-452.5 463.61,-452.5 463.61,4 -4,4"/>
<!-- Config &amp; CLI Overrides -->
<g id="node1" class="node">
<title>Config &amp; CLI Overrides</title>
<polygon fill="lightblue" stroke="black" points="395.89,-449 214.89,-449 214.89,-413 395.89,-413 395.89,-449"/>
<text xml:space="preserve" text-anchor="middle" x="305.39" y="-428.2" font-family="Times,serif" font-size="14.00">Config &amp; CLI Overrides</text>
<text xml:space="preserve" text-anchor="middle" x="305.39" y="-417.7" font-family="Times,serif" font-size="14.00">(ConfigCLIOverrides)</text>
</g>
<!-- Configuration Loader -->
<g id="node2" class="node">
<title>Configuration Loader</title>
<polygon fill="lightblue" stroke="black" points="388.39,-366 222.39,-366 222.39,-330 388.39,-330 388.39,-366"/>
<text xml:space="preserve" text-anchor="middle" x="305.39" y="-345.2" font-family="Times,serif" font-size="14.00">Configuration Loader</text>
<text xml:space="preserve" text-anchor="middle" x="305.39" y="-334.7" font-family="Times,serif" font-size="14.00">(configLoader.ts)</text>
</g>
<!-- Config &amp; CLI Overrides&#45;&gt;Configuration Loader -->
<g id="edge1" class="edge">
<title>Config &amp; CLI Overrides&#45;&gt;Configuration Loader</title>
<path fill="none" stroke="black" d="M305.39,-412.82C305.39,-402.69 305.39,-389.6 305.39,-377.92"/>
<polygon fill="black" stroke="black" points="308.89,-377.95 305.39,-367.95 301.89,-377.95 308.89,-377.95"/>
<text xml:space="preserve" text-anchor="middle" x="324.14" y="-380.95" font-family="Times,serif" font-size="14.00">Input</text>
</g>
<!-- Full Configuration Internal -->
<g id="node3" class="node">
<title>Full Configuration Internal</title>
<polygon fill="lightblue" stroke="black" points="414.64,-284 196.14,-284 196.14,-248 414.64,-248 414.64,-284"/>
<text xml:space="preserve" text-anchor="middle" x="305.39" y="-263.2" font-family="Times,serif" font-size="14.00">Full Configuration Internal</text>
<text xml:space="preserve" text-anchor="middle" x="305.39" y="-252.7" font-family="Times,serif" font-size="14.00">(FullConfigInternal)</text>
</g>
<!-- Configuration Loader&#45;&gt;Full Configuration Internal -->
<g id="edge2" class="edge">
<title>Configuration Loader&#45;&gt;Full Configuration Internal</title>
<path fill="none" stroke="black" d="M305.39,-329.64C305.39,-319.68 305.39,-306.93 305.39,-295.54"/>
<polygon fill="black" stroke="black" points="308.89,-295.84 305.39,-285.84 301.89,-295.84 308.89,-295.84"/>
<text xml:space="preserve" text-anchor="middle" x="369.14" y="-298.95" font-family="Times,serif" font-size="14.00">Loads &amp; Validates</text>
</g>
<!-- Test Loader &amp; Structure -->
<g id="node4" class="node">
<title>Test Loader &amp; Structure</title>
<polygon fill="lightblue" stroke="black" points="292.39,-201 36.39,-201 36.39,-165 292.39,-165 292.39,-201"/>
<text xml:space="preserve" text-anchor="middle" x="164.39" y="-180.2" font-family="Times,serif" font-size="14.00">Test Loader &amp; Structure</text>
<text xml:space="preserve" text-anchor="middle" x="164.39" y="-169.7" font-family="Times,serif" font-size="14.00">(testLoader.ts, Suite, TestCase)</text>
</g>
<!-- Full Configuration Internal&#45;&gt;Test Loader &amp; Structure -->
<g id="edge3" class="edge">
<title>Full Configuration Internal&#45;&gt;Test Loader &amp; Structure</title>
<path fill="none" stroke="black" d="M275.14,-247.62C254.51,-235.77 226.97,-219.95 204.51,-207.05"/>
<polygon fill="black" stroke="black" points="206.32,-204.05 195.9,-202.1 202.83,-210.12 206.32,-204.05"/>
<text xml:space="preserve" text-anchor="middle" x="276.62" y="-215.95" font-family="Times,serif" font-size="14.00">Configures</text>
</g>
<!-- Fixture Management -->
<g id="node5" class="node">
<title>Fixture Management</title>
<polygon fill="lightblue" stroke="black" points="434.89,-119 283.89,-119 283.89,-83 434.89,-83 434.89,-119"/>
<text xml:space="preserve" text-anchor="middle" x="359.39" y="-98.2" font-family="Times,serif" font-size="14.00">Fixture Management</text>
<text xml:space="preserve" text-anchor="middle" x="359.39" y="-87.7" font-family="Times,serif" font-size="14.00">(FixturePool)</text>
</g>
<!-- Full Configuration Internal&#45;&gt;Fixture Management -->
<g id="edge4" class="edge">
<title>Full Configuration Internal&#45;&gt;Fixture Management</title>
<path fill="none" stroke="black" d="M311.85,-247.58C313.97,-241.77 316.32,-235.24 318.39,-229.25 330.95,-192.99 333.72,-183.8 345.39,-147.25 347.19,-141.62 349.08,-135.58 350.88,-129.81"/>
<polygon fill="black" stroke="black" points="354.09,-131.25 353.7,-120.66 347.41,-129.18 354.09,-131.25"/>
<text xml:space="preserve" text-anchor="middle" x="399.61" y="-174.95" font-family="Times,serif" font-size="14.00">Defines Fixtures</text>
</g>
<!-- Test Loader &amp; Structure&#45;&gt;Fixture Management -->
<g id="edge5" class="edge">
<title>Test Loader &amp; Structure&#45;&gt;Fixture Management</title>
<path fill="none" stroke="black" d="M183.74,-164.61C195.15,-155.17 210.28,-143.97 225.39,-136.75 240.1,-129.72 256.43,-123.97 272.48,-119.32"/>
<polygon fill="black" stroke="black" points="273.35,-122.71 282.06,-116.68 271.49,-115.96 273.35,-122.71"/>
<text xml:space="preserve" text-anchor="middle" x="285.39" y="-133.95" font-family="Times,serif" font-size="14.00">Applies Fixtures</text>
</g>
<!-- IPC (Main &amp; Worker) -->
<g id="node6" class="node">
<title>IPC (Main &amp; Worker)</title>
<polygon fill="lightblue" stroke="black" points="181.39,-36 15.39,-36 15.39,0 181.39,0 181.39,-36"/>
<text xml:space="preserve" text-anchor="middle" x="98.39" y="-15.2" font-family="Times,serif" font-size="14.00">IPC (Main &amp; Worker)</text>
<text xml:space="preserve" text-anchor="middle" x="98.39" y="-4.7" font-family="Times,serif" font-size="14.00">(ipc.ts, process.ts)</text>
</g>
<!-- Test Loader &amp; Structure&#45;&gt;IPC (Main &amp; Worker) -->
<g id="edge6" class="edge">
<title>Test Loader &amp; Structure&#45;&gt;IPC (Main &amp; Worker)</title>
<path fill="none" stroke="black" d="M154.94,-164.64C148.33,-152.14 139.53,-134.78 132.89,-119 122.9,-95.22 113.49,-67.44 107.03,-47.2"/>
<polygon fill="black" stroke="black" points="110.37,-46.18 104.04,-37.69 103.7,-48.28 110.37,-46.18"/>
<text xml:space="preserve" text-anchor="middle" x="204.14" y="-92.95" font-family="Times,serif" font-size="14.00">Test Execution Info</text>
</g>
<!-- Fixture Management&#45;&gt;IPC (Main &amp; Worker) -->
<g id="edge7" class="edge">
<title>Fixture Management&#45;&gt;IPC (Main &amp; Worker)</title>
<path fill="none" stroke="black" d="M303.08,-82.52C262.69,-69.99 208.1,-53.05 165.45,-39.81"/>
<polygon fill="black" stroke="black" points="166.64,-36.51 156.05,-36.89 164.56,-43.2 166.64,-36.51"/>
<text xml:space="preserve" text-anchor="middle" x="319.22" y="-50.95" font-family="Times,serif" font-size="14.00">Fixture Setup/Teardown</text>
</g>
</g>
</svg>
