<?xml version="1.0" encoding="UTF-8" standalone="no"?>
<!DOCTYPE svg PUBLIC "-//W3C//DTD SVG 1.1//EN"
 "http://www.w3.org/Graphics/SVG/1.1/DTD/svg11.dtd">
<!-- Generated by graphviz version 2.44.1 (20201121.0304)
 -->
<!-- Title: G Pages: 1 -->
<svg width="733pt" height="457pt"
 viewBox="0.00 0.00 733.00 457.00" xmlns="http://www.w3.org/2000/svg" xmlns:xlink="http://www.w3.org/1999/xlink"><style>
  * {
    fill: transparent !important;
    stroke: rgb(30, 30, 30) !important;
    stroke-width: 1 !important;
  }
  polygon:not(.cluster *, .node *, .edge *, text) {
    stroke: transparent !important;
  }
  text {
    font-size: 10px !important;
    font-family: monospace !important;
    fill: rgb(30, 30, 30) !important;
    stroke: transparent !important;
    transform: translateY(-0.5em);
  }
</style>
<g id="graph0" class="graph" transform="scale(1 1) rotate(0) translate(4 452.5)">
<title>G</title>
<polygon fill="white" stroke="none" points="-4,4 -4,-452.5 729.38,-452.5 729.38,4 -4,4"/>
<!-- Client -->
<g id="node1" class="node">
<title>Client</title>
<polygon fill="lightblue" stroke="black" points="341.45,-449 122.95,-449 122.95,-413 341.45,-413 341.45,-449"/>
<text xml:space="preserve" text-anchor="middle" x="232.2" y="-422.95" font-family="Times,serif" font-size="14.00">Playwright Client (Node.js)</text>
</g>
<!-- ProtocolDefinitions -->
<g id="node2" class="node">
<title>ProtocolDefinitions</title>
<polygon fill="lightblue" stroke="black" points="117.95,-36 4.45,-36 4.45,0 117.95,0 117.95,-36"/>
<text xml:space="preserve" text-anchor="middle" x="61.2" y="-9.95" font-family="Times,serif" font-size="14.00">protocol.d.ts</text>
</g>
<!-- Client&#45;&gt;ProtocolDefinitions -->
<g id="edge1" class="edge">
<title>Client&#45;&gt;ProtocolDefinitions</title>
<path fill="none" stroke="black" d="M122.57,-420.21C81.32,-409.92 44.2,-389.43 44.2,-349 44.2,-349 44.2,-349 44.2,-100 44.2,-82.25 48.16,-62.77 52.26,-47.37"/>
<polygon fill="black" stroke="black" points="55.57,-48.51 54.94,-37.93 48.84,-46.59 55.57,-48.51"/>
<text xml:space="preserve" text-anchor="middle" x="107.95" y="-215.95" font-family="Times,serif" font-size="14.00">defines types for</text>
</g>
<!-- Serialization -->
<g id="node3" class="node">
<title>Serialization</title>
<polygon fill="lightblue" stroke="black" points="281.45,-366 182.95,-366 182.95,-330 281.45,-330 281.45,-366"/>
<text xml:space="preserve" text-anchor="middle" x="232.2" y="-339.95" font-family="Times,serif" font-size="14.00">Serializers</text>
</g>
<!-- Client&#45;&gt;Serialization -->
<g id="edge2" class="edge">
<title>Client&#45;&gt;Serialization</title>
<path fill="none" stroke="black" d="M232.2,-412.82C232.2,-402.69 232.2,-389.6 232.2,-377.92"/>
<polygon fill="black" stroke="black" points="235.7,-377.95 232.2,-367.95 228.7,-377.95 235.7,-377.95"/>
<text xml:space="preserve" text-anchor="middle" x="295.95" y="-380.95" font-family="Times,serif" font-size="14.00">uses for requests</text>
</g>
<!-- Transmission -->
<g id="node4" class="node">
<title>Transmission</title>
<polygon fill="lightblue" stroke="black" points="446.45,-284 377.95,-284 377.95,-248 446.45,-248 446.45,-284"/>
<text xml:space="preserve" text-anchor="middle" x="412.2" y="-257.95" font-family="Times,serif" font-size="14.00">Network</text>
</g>
<!-- Serialization&#45;&gt;Transmission -->
<g id="edge3" class="edge">
<title>Serialization&#45;&gt;Transmission</title>
<path fill="none" stroke="black" d="M233.96,-329.63C235.83,-320.07 239.71,-308.75 247.7,-301.75 277.88,-275.32 296.96,-292.32 336.2,-284 346.1,-281.9 356.71,-279.58 366.76,-277.34"/>
<polygon fill="black" stroke="black" points="367.34,-280.79 376.33,-275.19 365.81,-273.96 367.34,-280.79"/>
<text xml:space="preserve" text-anchor="middle" x="326.45" y="-298.95" font-family="Times,serif" font-size="14.00">sends serialized data</text>
</g>
<!-- Serialization&#45;&gt;Transmission -->
<g id="edge8" class="edge">
<title>Serialization&#45;&gt;Transmission</title>
<path fill="none" stroke="black" d="M281.92,-343.27C326.89,-338.82 388.53,-329.69 405.2,-312.25 409.6,-307.65 411.93,-301.51 413.06,-295.24"/>
<polygon fill="black" stroke="black" points="416.52,-295.87 413.85,-285.62 409.54,-295.3 416.52,-295.87"/>
<text xml:space="preserve" text-anchor="middle" x="508.83" y="-298.95" font-family="Times,serif" font-size="14.00">sends serialized responses</text>
</g>
<!-- Transmission&#45;&gt;Client -->
<g id="edge9" class="edge">
<title>Transmission&#45;&gt;Client</title>
<path fill="none" stroke="black" d="M446.85,-268.92C508.73,-273.07 630.01,-284.8 610.2,-312.25 578.65,-355.97 443.83,-390.32 344.15,-410.37"/>
<polygon fill="black" stroke="black" points="343.71,-406.89 334.58,-412.27 345.07,-413.76 343.71,-406.89"/>
<text xml:space="preserve" text-anchor="middle" x="657.88" y="-339.95" font-family="Times,serif" font-size="14.00">delivers responses</text>
</g>
<!-- Server -->
<g id="node5" class="node">
<title>Server</title>
<polygon fill="lightblue" stroke="black" points="268.95,-201 125.45,-201 125.45,-165 268.95,-165 268.95,-201"/>
<text xml:space="preserve" text-anchor="middle" x="197.2" y="-174.95" font-family="Times,serif" font-size="14.00">Playwright Server</text>
</g>
<!-- Transmission&#45;&gt;Server -->
<g id="edge4" class="edge">
<title>Transmission&#45;&gt;Server</title>
<path fill="none" stroke="black" d="M377.66,-251.99C344.35,-239.44 293.34,-220.22 254.05,-205.42"/>
<polygon fill="black" stroke="black" points="255.31,-202.15 244.71,-201.9 252.84,-208.7 255.31,-202.15"/>
<text xml:space="preserve" text-anchor="middle" x="374.9" y="-215.95" font-family="Times,serif" font-size="14.00">delivers requests</text>
</g>
<!-- Server&#45;&gt;Serialization -->
<g id="edge7" class="edge">
<title>Server&#45;&gt;Serialization</title>
<path fill="none" stroke="black" d="M200.92,-201.32C206.93,-229.3 218.83,-284.73 226.1,-318.57"/>
<polygon fill="black" stroke="black" points="222.62,-319.03 228.14,-328.08 229.46,-317.56 222.62,-319.03"/>
<text xml:space="preserve" text-anchor="middle" x="285.68" y="-257.95" font-family="Times,serif" font-size="14.00">uses for responses</text>
</g>
<!-- Validation -->
<g id="node6" class="node">
<title>Validation</title>
<polygon fill="lightblue" stroke="black" points="198.95,-119 115.45,-119 115.45,-83 198.95,-83 198.95,-119"/>
<text xml:space="preserve" text-anchor="middle" x="157.2" y="-92.95" font-family="Times,serif" font-size="14.00">Validator</text>
</g>
<!-- Server&#45;&gt;Validation -->
<g id="edge5" class="edge">
<title>Server&#45;&gt;Validation</title>
<path fill="none" stroke="black" d="M188.52,-164.64C183.39,-154.37 176.76,-141.12 170.93,-129.46"/>
<polygon fill="black" stroke="black" points="174.14,-128.06 166.54,-120.68 167.88,-131.19 174.14,-128.06"/>
<text xml:space="preserve" text-anchor="middle" x="247.1" y="-133.95" font-family="Times,serif" font-size="14.00">validates requests</text>
</g>
<!-- Validation&#45;&gt;ProtocolDefinitions -->
<g id="edge6" class="edge">
<title>Validation&#45;&gt;ProtocolDefinitions</title>
<path fill="none" stroke="black" d="M136.84,-82.82C123.32,-71.41 105.35,-56.25 90.32,-43.57"/>
<polygon fill="black" stroke="black" points="92.92,-41.18 83.02,-37.41 88.41,-46.53 92.92,-41.18"/>
<text xml:space="preserve" text-anchor="middle" x="190.83" y="-50.95" font-family="Times,serif" font-size="14.00">uses definitions from</text>
</g>
</g>
</svg>
