<?xml version="1.0" encoding="UTF-8" standalone="no"?>
<!DOCTYPE svg PUBLIC "-//W3C//DTD SVG 1.1//EN"
 "http://www.w3.org/Graphics/SVG/1.1/DTD/svg11.dtd">
<!-- Generated by graphviz version 2.44.1 (20201121.0304)
 -->
<!-- Title: G Pages: 1 -->
<svg width="531pt" height="531pt"
 viewBox="0.00 0.00 531.00 531.00" xmlns="http://www.w3.org/2000/svg" xmlns:xlink="http://www.w3.org/1999/xlink"><style>
  * {
    fill: transparent !important;
    stroke: rgb(30, 30, 30) !important;
    stroke-width: 1 !important;
  }
  polygon:not(.cluster *, .node *, .edge *, text) {
    stroke: transparent !important;
  }
  text {
    font-size: 10px !important;
    font-family: monospace !important;
    fill: rgb(30, 30, 30) !important;
    stroke: transparent !important;
    transform: translateY(-0.5em);
  }
</style>
<g id="graph0" class="graph" transform="scale(1 1) rotate(0) translate(4 526.75)">
<title>G</title>
<polygon fill="white" stroke="none" points="-4,4 -4,-526.75 526.75,-526.75 526.75,4 -4,4"/>
<g id="clust1" class="cluster">
<title>cluster_0</title>
<polygon fill="none" stroke="black" points="14.5,-129.82 14.5,-396.42 356.5,-396.42 356.5,-129.82 14.5,-129.82"/>
<text xml:space="preserve" text-anchor="middle" x="185.5" y="-379.12" font-family="Times,serif" font-size="14.00">Service Worker (main.ts)</text>
</g>
<!-- Client/Browser -->
<g id="node1" class="node">
<title>Client/Browser</title>
<polygon fill="lightblue" stroke="black" points="214,-509 93,-509 93,-473 214,-473 214,-509"/>
<text xml:space="preserve" text-anchor="middle" x="153.5" y="-482.95" font-family="Times,serif" font-size="14.00">Client/Browser</text>
</g>
<!-- Service Worker -->
<g id="node2" class="node">
<title>Service Worker</title>
<polygon fill="lightblue" stroke="black" points="214,-337 93,-337 93,-301 214,-301 214,-337"/>
<text xml:space="preserve" text-anchor="middle" x="153.5" y="-310.95" font-family="Times,serif" font-size="14.00">Service Worker</text>
</g>
<!-- Client/Browser&#45;&gt;Service Worker -->
<g id="edge1" class="edge">
<title>Client/Browser&#45;&gt;Service Worker</title>
<path fill="none" stroke="black" d="M123.39,-472.59C103.94,-458.82 83.45,-438.07 90.5,-414.75 98.28,-388.99 115.63,-363.81 130.15,-345.89"/>
<polygon fill="black" stroke="black" points="132.71,-348.29 136.45,-338.38 127.34,-343.79 132.71,-348.29"/>
<text xml:space="preserve" text-anchor="middle" x="143" y="-411.95" font-family="Times,serif" font-size="14.00">Fetch Requests</text>
</g>
<!-- Service Worker&#45;&gt;Client/Browser -->
<g id="edge5" class="edge">
<title>Service Worker&#45;&gt;Client/Browser</title>
<path fill="none" stroke="black" d="M168.02,-337.16C183.61,-357.71 204.93,-393.37 195.5,-425.25 191.44,-438.96 183.47,-452.5 175.55,-463.62"/>
<polygon fill="black" stroke="black" points="172.83,-461.41 169.61,-471.5 178.42,-465.62 172.83,-461.41"/>
<text xml:space="preserve" text-anchor="middle" x="227.34" y="-411.95" font-family="Times,serif" font-size="14.00">Responds</text>
</g>
<!-- Trace Loaders -->
<g id="node3" class="node">
<title>Trace Loaders</title>
<polygon fill="lightblue" stroke="black" points="128.5,-193 22.5,-193 22.5,-157 128.5,-157 128.5,-193"/>
<text xml:space="preserve" text-anchor="middle" x="75.5" y="-172.2" font-family="Times,serif" font-size="14.00">TraceLoaders</text>
<text xml:space="preserve" text-anchor="middle" x="75.5" y="-161.7" font-family="Times,serif" font-size="14.00">(Zip, Fetch)</text>
</g>
<!-- Service Worker&#45;&gt;Trace Loaders -->
<g id="edge2" class="edge">
<title>Service Worker&#45;&gt;Trace Loaders</title>
<path fill="none" stroke="black" d="M127.83,-300.68C112.58,-288.91 94.34,-271.94 84.5,-252.25 77.16,-237.57 74.8,-219.38 74.33,-204.45"/>
<polygon fill="black" stroke="black" points="77.83,-204.8 74.3,-194.81 70.83,-204.82 77.83,-204.8"/>
<text xml:space="preserve" text-anchor="middle" x="129.5" y="-238.95" font-family="Times,serif" font-size="14.00">Loads Traces</text>
</g>
<!-- SnapshotServer -->
<g id="node5" class="node">
<title>SnapshotServer</title>
<polygon fill="lightblue" stroke="black" points="268,-193 147,-193 147,-157 268,-157 268,-193"/>
<text xml:space="preserve" text-anchor="middle" x="207.5" y="-166.95" font-family="Times,serif" font-size="14.00">SnapshotServer</text>
</g>
<!-- Service Worker&#45;&gt;SnapshotServer -->
<g id="edge4" class="edge">
<title>Service Worker&#45;&gt;SnapshotServer</title>
<path fill="none" stroke="black" d="M160.12,-300.59C169.32,-276.4 186.07,-232.36 196.98,-203.65"/>
<polygon fill="black" stroke="black" points="200.17,-205.12 200.46,-194.53 193.63,-202.63 200.17,-205.12"/>
<text xml:space="preserve" text-anchor="middle" x="279.62" y="-238.95" font-family="Times,serif" font-size="14.00">Serves Snapshots/Resources</text>
</g>
<!-- Loaded Traces Cache -->
<g id="node6" class="node">
<title>Loaded Traces Cache</title>
<polygon fill="lightblue" stroke="black" points="522.75,-193 364.25,-193 364.25,-157 522.75,-157 522.75,-193"/>
<text xml:space="preserve" text-anchor="middle" x="443.5" y="-166.95" font-family="Times,serif" font-size="14.00">Loaded Traces Cache</text>
</g>
<!-- Service Worker&#45;&gt;Loaded Traces Cache -->
<g id="edge6" class="edge">
<title>Service Worker&#45;&gt;Loaded Traces Cache</title>
<path fill="none" stroke="black" d="M214.34,-310.65C262.85,-302.5 330.82,-285.78 381.5,-252.25 400.47,-239.7 416.5,-219.54 427.5,-203.1"/>
<polygon fill="black" stroke="black" points="430.42,-205.03 432.87,-194.72 424.53,-201.25 430.42,-205.03"/>
<text xml:space="preserve" text-anchor="middle" x="442.87" y="-238.95" font-family="Times,serif" font-size="14.00">Manages Cache</text>
</g>
<!-- External Trace URI -->
<g id="node4" class="node">
<title>External Trace URI</title>
<polygon fill="lightblue" stroke="black" points="151,-49 0,-49 0,-13 151,-13 151,-49"/>
<text xml:space="preserve" text-anchor="middle" x="75.5" y="-22.95" font-family="Times,serif" font-size="14.00">External Trace URI</text>
</g>
<!-- Trace Loaders&#45;&gt;External Trace URI -->
<g id="edge3" class="edge">
<title>Trace Loaders&#45;&gt;External Trace URI</title>
<path fill="none" stroke="black" d="M75.5,-156.59C75.5,-132.61 75.5,-89.14 75.5,-60.42"/>
<polygon fill="black" stroke="black" points="79,-60.62 75.5,-50.62 72,-60.62 79,-60.62"/>
<text xml:space="preserve" text-anchor="middle" x="120.5" y="-94.95" font-family="Times,serif" font-size="14.00">Fetches Data</text>
</g>
</g>
</svg>
