<?xml version="1.0" encoding="UTF-8" standalone="no"?>
<!DOCTYPE svg PUBLIC "-//W3C//DTD SVG 1.1//EN"
 "http://www.w3.org/Graphics/SVG/1.1/DTD/svg11.dtd">
<!-- Generated by graphviz version 2.44.1 (20201121.0304)
 -->
<!-- Title: G Pages: 1 -->
<svg width="404pt" height="404pt"
 viewBox="0.00 0.00 404.00 404.00" xmlns="http://www.w3.org/2000/svg" xmlns:xlink="http://www.w3.org/1999/xlink"><style>
  * {
    fill: transparent !important;
    stroke: rgb(30, 30, 30) !important;
    stroke-width: 1 !important;
  }
  polygon:not(.cluster *, .node *, .edge *, text) {
    stroke: transparent !important;
  }
  text {
    font-size: 10px !important;
    font-family: monospace !important;
    fill: rgb(30, 30, 30) !important;
    stroke: transparent !important;
    transform: translateY(-0.5em);
  }
</style>
<g id="graph0" class="graph" transform="scale(1 1) rotate(0) translate(4 399.5)">
<title>G</title>
<polygon fill="white" stroke="none" points="-4,4 -4,-399.5 399.5,-399.5 399.5,4 -4,4"/>
<!-- Source Code -->
<g id="node1" class="node">
<title>Source Code</title>
<polygon fill="lightblue" stroke="black" points="276.5,-394 118,-394 118,-358 276.5,-358 276.5,-394"/>
<text xml:space="preserve" text-anchor="middle" x="197.25" y="-373.2" font-family="Times,serif" font-size="14.00">Playwright Monorepo</text>
<text xml:space="preserve" text-anchor="middle" x="197.25" y="-362.7" font-family="Times,serif" font-size="14.00">(Source Code)</text>
</g>
<!-- Esbuild Compilation -->
<g id="node2" class="node">
<title>Esbuild Compilation</title>
<polygon fill="lightblue" stroke="black" points="317.75,-302 76.75,-302 76.75,-266 317.75,-266 317.75,-302"/>
<text xml:space="preserve" text-anchor="middle" x="197.25" y="-275.95" font-family="Times,serif" font-size="14.00">Esbuild Compilation &amp; Bundling</text>
</g>
<!-- Source Code&#45;&gt;Esbuild Compilation -->
<g id="edge1" class="edge">
<title>Source Code&#45;&gt;Esbuild Compilation</title>
<path fill="none" stroke="black" d="M197.25,-357.65C197.25,-345.2 197.25,-328.14 197.25,-313.68"/>
<polygon fill="black" stroke="black" points="200.75,-313.81 197.25,-303.81 193.75,-313.81 200.75,-313.81"/>
<text xml:space="preserve" text-anchor="middle" x="272.25" y="-321.95" font-family="Times,serif" font-size="14.00">Transpiles &amp; Bundles</text>
</g>
<!-- Artifacts -->
<g id="node3" class="node">
<title>Artifacts</title>
<polygon fill="lightblue" stroke="black" points="291.5,-221 103,-221 103,-185 291.5,-185 291.5,-221"/>
<text xml:space="preserve" text-anchor="middle" x="197.25" y="-200.2" font-family="Times,serif" font-size="14.00">Build Artifacts</text>
<text xml:space="preserve" text-anchor="middle" x="197.25" y="-189.7" font-family="Times,serif" font-size="14.00">(.js, .ts, .json, etc.)</text>
</g>
<!-- Esbuild Compilation&#45;&gt;Artifacts -->
<g id="edge2" class="edge">
<title>Esbuild Compilation&#45;&gt;Artifacts</title>
<path fill="none" stroke="black" d="M197.25,-265.86C197.25,-256.19 197.25,-243.87 197.25,-232.76"/>
<polygon fill="black" stroke="black" points="200.75,-232.89 197.25,-222.89 193.75,-232.89 200.75,-232.89"/>
</g>
<!-- Driver Packaging -->
<g id="node4" class="node">
<title>Driver Packaging</title>
<polygon fill="lightblue" stroke="black" points="188.5,-129 0,-129 0,-93 188.5,-93 188.5,-129"/>
<text xml:space="preserve" text-anchor="middle" x="94.25" y="-102.95" font-family="Times,serif" font-size="14.00">Driver Packaging (.zip)</text>
</g>
<!-- Artifacts&#45;&gt;Driver Packaging -->
<g id="edge3" class="edge">
<title>Artifacts&#45;&gt;Driver Packaging</title>
<path fill="none" stroke="black" d="M177.39,-184.65C161.86,-171.08 140.06,-152.03 122.68,-136.84"/>
<polygon fill="black" stroke="black" points="125.02,-134.24 115.19,-130.3 120.42,-139.51 125.02,-134.24"/>
<text xml:space="preserve" text-anchor="middle" x="163.84" y="-148.95" font-family="Times,serif" font-size="14.00">Uses</text>
</g>
<!-- Trace Viewer Deployment -->
<g id="node5" class="node">
<title>Trace Viewer Deployment</title>
<polygon fill="lightblue" stroke="black" points="395.5,-129 207,-129 207,-93 395.5,-93 395.5,-129"/>
<text xml:space="preserve" text-anchor="middle" x="301.25" y="-102.95" font-family="Times,serif" font-size="14.00">Trace Viewer Deployment</text>
</g>
<!-- Artifacts&#45;&gt;Trace Viewer Deployment -->
<g id="edge4" class="edge">
<title>Artifacts&#45;&gt;Trace Viewer Deployment</title>
<path fill="none" stroke="black" d="M217.3,-184.65C233.13,-170.95 255.4,-151.68 273.03,-136.42"/>
<polygon fill="black" stroke="black" points="274.84,-139.48 280.11,-130.29 270.26,-134.19 274.84,-139.48"/>
<text xml:space="preserve" text-anchor="middle" x="319.87" y="-148.95" font-family="Times,serif" font-size="14.00">Deploys Web Assets</text>
</g>
<!-- Azure Blob Storage -->
<g id="node6" class="node">
<title>Azure Blob Storage</title>
<polygon fill="lightblue" stroke="black" points="169.75,-38 18.75,-38 18.75,-2 169.75,-2 169.75,-38"/>
<text xml:space="preserve" text-anchor="middle" x="94.25" y="-17.2" font-family="Times,serif" font-size="14.00">Azure Blob Storage</text>
<text xml:space="preserve" text-anchor="middle" x="94.25" y="-6.7" font-family="Times,serif" font-size="14.00">(Drivers)</text>
</g>
<!-- Driver Packaging&#45;&gt;Azure Blob Storage -->
<g id="edge5" class="edge">
<title>Driver Packaging&#45;&gt;Azure Blob Storage</title>
<path fill="none" stroke="black" d="M94.25,-92.84C94.25,-80.61 94.25,-63.87 94.25,-49.63"/>
<polygon fill="black" stroke="black" points="97.75,-49.92 94.25,-39.92 90.75,-49.92 97.75,-49.92"/>
<text xml:space="preserve" text-anchor="middle" x="120.5" y="-57.95" font-family="Times,serif" font-size="14.00">Uploads</text>
</g>
<!-- GitHub Pages -->
<g id="node7" class="node">
<title>GitHub Pages</title>
<polygon fill="lightblue" stroke="black" points="361.75,-38 240.75,-38 240.75,-2 361.75,-2 361.75,-38"/>
<text xml:space="preserve" text-anchor="middle" x="301.25" y="-17.2" font-family="Times,serif" font-size="14.00">GitHub Pages</text>
<text xml:space="preserve" text-anchor="middle" x="301.25" y="-6.7" font-family="Times,serif" font-size="14.00">(Trace Viewer)</text>
</g>
<!-- Trace Viewer Deployment&#45;&gt;GitHub Pages -->
<g id="edge6" class="edge">
<title>Trace Viewer Deployment&#45;&gt;GitHub Pages</title>
<path fill="none" stroke="black" d="M301.25,-92.84C301.25,-80.61 301.25,-63.87 301.25,-49.63"/>
<polygon fill="black" stroke="black" points="304.75,-49.92 301.25,-39.92 297.75,-49.92 304.75,-49.92"/>
<text xml:space="preserve" text-anchor="middle" x="323.75" y="-57.95" font-family="Times,serif" font-size="14.00">Pushes</text>
</g>
</g>
</svg>
