<?xml version="1.0" encoding="UTF-8" standalone="no"?>
<!DOCTYPE svg PUBLIC "-//W3C//DTD SVG 1.1//EN"
 "http://www.w3.org/Graphics/SVG/1.1/DTD/svg11.dtd">
<!-- Generated by graphviz version 2.44.1 (20201121.0304)
 -->
<!-- Title: G Pages: 1 -->
<svg width="497pt" height="497pt"
 viewBox="0.00 0.00 497.00 497.00" xmlns="http://www.w3.org/2000/svg" xmlns:xlink="http://www.w3.org/1999/xlink"><style>
  * {
    fill: transparent !important;
    stroke: rgb(30, 30, 30) !important;
    stroke-width: 1 !important;
  }
  polygon:not(.cluster *, .node *, .edge *, text) {
    stroke: transparent !important;
  }
  text {
    font-size: 10px !important;
    font-family: monospace !important;
    fill: rgb(30, 30, 30) !important;
    stroke: transparent !important;
    transform: translateY(-0.5em);
  }
</style>
<g id="graph0" class="graph" transform="scale(1 1) rotate(0) translate(4 493.25)">
<title>G</title>
<polygon fill="white" stroke="none" points="-4,4 -4,-493.25 493.25,-493.25 493.25,4 -4,4"/>
<!-- MCP Server/Client -->
<g id="node1" class="node">
<title>MCP Server/Client</title>
<polygon fill="lightblue" stroke="black" points="312.25,-263 213.75,-263 213.75,-227 312.25,-227 312.25,-263"/>
<text xml:space="preserve" text-anchor="middle" x="263" y="-242.2" font-family="Times,serif" font-size="14.00">MCP Server/</text>
<text xml:space="preserve" text-anchor="middle" x="263" y="-231.7" font-family="Times,serif" font-size="14.00">Client</text>
</g>
<!-- Backend Tools (defineTool/defineTabTool) -->
<g id="node2" class="node">
<title>Backend Tools (defineTool/defineTabTool)</title>
<polygon fill="lightblue" stroke="black" points="285.5,-154 74.5,-154 74.5,-118 285.5,-118 285.5,-154"/>
<text xml:space="preserve" text-anchor="middle" x="180" y="-133.2" font-family="Times,serif" font-size="14.00">Backend Tools</text>
<text xml:space="preserve" text-anchor="middle" x="180" y="-122.7" font-family="Times,serif" font-size="14.00">(defineTool/defineTabTool)</text>
</g>
<!-- MCP Server/Client&#45;&gt;Backend Tools (defineTool/defineTabTool) -->
<g id="edge1" class="edge">
<title>MCP Server/Client&#45;&gt;Backend Tools (defineTool/defineTabTool)</title>
<path fill="none" stroke="black" d="M249.66,-226.81C236.29,-209.57 215.54,-182.81 200.16,-162.98"/>
<polygon fill="black" stroke="black" points="203.12,-161.1 194.23,-155.34 197.59,-165.39 203.12,-161.1"/>
</g>
<!-- Playwright API (tab.page, context) -->
<g id="node4" class="node">
<title>Playwright API (tab.page, context)</title>
<polygon fill="lightblue" stroke="black" points="259.25,-45 100.75,-45 100.75,-9 259.25,-9 259.25,-45"/>
<text xml:space="preserve" text-anchor="middle" x="180" y="-24.2" font-family="Times,serif" font-size="14.00">Playwright API</text>
<text xml:space="preserve" text-anchor="middle" x="180" y="-13.7" font-family="Times,serif" font-size="14.00">(tab.page, context)</text>
</g>
<!-- Backend Tools (defineTool/defineTabTool)&#45;&gt;Playwright API (tab.page, context) -->
<g id="edge3" class="edge">
<title>Backend Tools (defineTool/defineTabTool)&#45;&gt;Playwright API (tab.page, context)</title>
<path fill="none" stroke="black" d="M180,-117.81C180,-101.27 180,-75.98 180,-56.44"/>
<polygon fill="black" stroke="black" points="183.5,-56.66 180,-46.66 176.5,-56.66 183.5,-56.66"/>
</g>
<!-- CLI Commands (declareCommand) -->
<g id="node3" class="node">
<title>CLI Commands (declareCommand)</title>
<polygon fill="lightblue" stroke="black" points="427,-371 291,-371 291,-335 427,-335 427,-371"/>
<text xml:space="preserve" text-anchor="middle" x="359" y="-350.2" font-family="Times,serif" font-size="14.00">CLI Commands</text>
<text xml:space="preserve" text-anchor="middle" x="359" y="-339.7" font-family="Times,serif" font-size="14.00">(declareCommand)</text>
</g>
<!-- CLI Commands (declareCommand)&#45;&gt;MCP Server/Client -->
<g id="edge2" class="edge">
<title>CLI Commands (declareCommand)&#45;&gt;MCP Server/Client</title>
<path fill="none" stroke="black" d="M343.58,-334.97C328.13,-317.92 304.17,-291.46 286.39,-271.82"/>
<polygon fill="black" stroke="black" points="289.03,-269.53 279.72,-264.46 283.84,-274.22 289.03,-269.53"/>
</g>
<!-- Skill Documentation (SKILL.md) -->
<g id="node7" class="node">
<title>Skill Documentation (SKILL.md)</title>
<polygon fill="lightblue" stroke="black" points="489.25,-263 330.75,-263 330.75,-227 489.25,-227 489.25,-263"/>
<text xml:space="preserve" text-anchor="middle" x="410" y="-242.2" font-family="Times,serif" font-size="14.00">Skill Documentation</text>
<text xml:space="preserve" text-anchor="middle" x="410" y="-231.7" font-family="Times,serif" font-size="14.00">(SKILL.md)</text>
</g>
<!-- CLI Commands (declareCommand)&#45;&gt;Skill Documentation (SKILL.md) -->
<g id="edge7" class="edge">
<title>CLI Commands (declareCommand)&#45;&gt;Skill Documentation (SKILL.md)</title>
<path fill="none" stroke="black" d="M367.19,-334.97C375.14,-318.45 387.33,-293.12 396.67,-273.7"/>
<polygon fill="black" stroke="black" points="399.82,-275.23 401,-264.7 393.51,-272.2 399.82,-275.23"/>
</g>
<!-- Configuration Management -->
<g id="node5" class="node">
<title>Configuration Management</title>
<polygon fill="lightblue" stroke="black" points="196,-263 0,-263 0,-227 196,-227 196,-263"/>
<text xml:space="preserve" text-anchor="middle" x="98" y="-236.95" font-family="Times,serif" font-size="14.00">Configuration Management</text>
</g>
<!-- Configuration Management&#45;&gt;Backend Tools (defineTool/defineTabTool) -->
<g id="edge4" class="edge">
<title>Configuration Management&#45;&gt;Backend Tools (defineTool/defineTabTool)</title>
<path fill="none" stroke="black" d="M111.17,-226.81C124.32,-209.65 144.71,-183.05 159.88,-163.25"/>
<polygon fill="black" stroke="black" points="162.63,-165.42 165.94,-155.35 157.08,-161.16 162.63,-165.42"/>
</g>
<!-- Test Suites -->
<g id="node6" class="node">
<title>Test Suites</title>
<polygon fill="lightblue" stroke="black" points="360.25,-480 261.75,-480 261.75,-444 360.25,-444 360.25,-480"/>
<text xml:space="preserve" text-anchor="middle" x="311" y="-453.95" font-family="Times,serif" font-size="14.00">Test Suites</text>
</g>
<!-- Test Suites&#45;&gt;MCP Server/Client -->
<g id="edge5" class="edge">
<title>Test Suites&#45;&gt;MCP Server/Client</title>
<path fill="none" stroke="black" d="M304.49,-443.65C297.97,-425.69 288.06,-396.73 282,-371 274.3,-338.32 269.02,-300.06 266.02,-274.56"/>
<polygon fill="black" stroke="black" points="269.5,-274.2 264.89,-264.65 262.54,-274.98 269.5,-274.2"/>
</g>
<!-- Test Suites&#45;&gt;CLI Commands (declareCommand) -->
<g id="edge6" class="edge">
<title>Test Suites&#45;&gt;CLI Commands (declareCommand)</title>
<path fill="none" stroke="black" d="M318.71,-443.81C326.23,-427.04 337.8,-401.26 346.61,-381.61"/>
<polygon fill="black" stroke="black" points="349.79,-383.09 350.69,-372.53 343.4,-380.22 349.79,-383.09"/>
</g>
</g>
</svg>
