<?xml version="1.0" encoding="UTF-8" standalone="no"?>
<!DOCTYPE svg PUBLIC "-//W3C//DTD SVG 1.1//EN"
 "http://www.w3.org/Graphics/SVG/1.1/DTD/svg11.dtd">
<!-- Generated by graphviz version 2.44.1 (20201121.0304)
 -->
<!-- Title: G Pages: 1 -->
<svg width="374pt" height="374pt"
 viewBox="0.00 0.00 374.00 374.00" xmlns="http://www.w3.org/2000/svg" xmlns:xlink="http://www.w3.org/1999/xlink"><style>
  * {
    fill: transparent !important;
    stroke: rgb(30, 30, 30) !important;
    stroke-width: 1 !important;
  }
  polygon:not(.cluster *, .node *, .edge *, text) {
    stroke: transparent !important;
  }
  text {
    font-size: 10px !important;
    font-family: monospace !important;
    fill: rgb(30, 30, 30) !important;
    stroke: transparent !important;
    transform: translateY(-0.5em);
  }
</style>
<g id="graph0" class="graph" transform="scale(1 1) rotate(0) translate(4 370)">
<title>G</title>
<polygon fill="white" stroke="none" points="-4,4 -4,-370 370,-370 370,4 -4,4"/>
<!-- ClientAPI -->
<g id="node1" class="node">
<title>ClientAPI</title>
<polygon fill="lightblue" stroke="black" points="325.72,-366 39.72,-366 39.72,-330 325.72,-330 325.72,-366"/>
<text xml:space="preserve" text-anchor="middle" x="182.72" y="-339.95" font-family="Times,serif" font-size="14.00">Client API (ChannelOwner subclasses)</text>
</g>
<!-- ProtocolLayer -->
<g id="node2" class="node">
<title>ProtocolLayer</title>
<polygon fill="lightblue" stroke="black" points="303.22,-284 62.22,-284 62.22,-248 303.22,-248 303.22,-284"/>
<text xml:space="preserve" text-anchor="middle" x="182.72" y="-263.2" font-family="Times,serif" font-size="14.00">Protocol Layer</text>
<text xml:space="preserve" text-anchor="middle" x="182.72" y="-252.7" font-family="Times,serif" font-size="14.00">(protocol.yml, generated code)</text>
</g>
<!-- ClientAPI&#45;&gt;ProtocolLayer -->
<g id="edge1" class="edge">
<title>ClientAPI&#45;&gt;ProtocolLayer</title>
<path fill="none" stroke="black" d="M163.14,-329.56C158.7,-324.47 154.6,-318.56 152.22,-312.25 149.82,-305.89 151.17,-299.54 154.34,-293.69"/>
<polygon fill="black" stroke="black" points="157.14,-295.79 160.19,-285.64 151.48,-291.68 157.14,-295.79"/>
<text xml:space="preserve" text-anchor="middle" x="185.97" y="-298.95" font-family="Times,serif" font-size="14.00">RPC Calls</text>
</g>
<!-- ProtocolLayer&#45;&gt;ClientAPI -->
<g id="edge7" class="edge">
<title>ProtocolLayer&#45;&gt;ClientAPI</title>
<path fill="none" stroke="black" d="M209.42,-284.37C217.95,-292.21 224.15,-302.01 219.72,-312.25 218.33,-315.46 216.48,-318.51 214.35,-321.38"/>
<polygon fill="black" stroke="black" points="211.84,-318.93 207.79,-328.72 217.06,-323.59 211.84,-318.93"/>
<text xml:space="preserve" text-anchor="middle" x="281.19" y="-298.95" font-family="Times,serif" font-size="14.00">Events/Responses</text>
</g>
<!-- Dispatchers -->
<g id="node3" class="node">
<title>Dispatchers</title>
<polygon fill="lightblue" stroke="black" points="276.97,-201 88.47,-201 88.47,-165 276.97,-165 276.97,-201"/>
<text xml:space="preserve" text-anchor="middle" x="182.72" y="-180.2" font-family="Times,serif" font-size="14.00">Dispatchers</text>
<text xml:space="preserve" text-anchor="middle" x="182.72" y="-169.7" font-family="Times,serif" font-size="14.00">(Dispatcher subclasses)</text>
</g>
<!-- ProtocolLayer&#45;&gt;Dispatchers -->
<g id="edge2" class="edge">
<title>ProtocolLayer&#45;&gt;Dispatchers</title>
<path fill="none" stroke="black" d="M161.27,-247.69C156.19,-242.37 151.45,-236.09 148.72,-229.25 146.04,-222.54 147.7,-215.96 151.43,-209.98"/>
<polygon fill="black" stroke="black" points="154.08,-212.27 157.71,-202.31 148.67,-207.83 154.08,-212.27"/>
<text xml:space="preserve" text-anchor="middle" x="186.22" y="-215.95" font-family="Times,serif" font-size="14.00">Translates</text>
</g>
<!-- Dispatchers&#45;&gt;ProtocolLayer -->
<g id="edge6" class="edge">
<title>Dispatchers&#45;&gt;ProtocolLayer</title>
<path fill="none" stroke="black" d="M212.74,-201.43C221.9,-209.15 228.46,-218.83 223.72,-229.25 222.07,-232.88 219.84,-236.29 217.28,-239.45"/>
<polygon fill="black" stroke="black" points="214.82,-236.96 210.4,-246.58 219.86,-241.81 214.82,-236.96"/>
<text xml:space="preserve" text-anchor="middle" x="270.3" y="-215.95" font-family="Times,serif" font-size="14.00">Sends Events</text>
</g>
<!-- ServerObjects -->
<g id="node4" class="node">
<title>ServerObjects</title>
<polygon fill="lightblue" stroke="black" points="273.22,-119 92.22,-119 92.22,-83 273.22,-83 273.22,-119"/>
<text xml:space="preserve" text-anchor="middle" x="182.72" y="-98.2" font-family="Times,serif" font-size="14.00">Server Objects</text>
<text xml:space="preserve" text-anchor="middle" x="182.72" y="-87.7" font-family="Times,serif" font-size="14.00">(SdkObject subclasses)</text>
</g>
<!-- Dispatchers&#45;&gt;ServerObjects -->
<g id="edge3" class="edge">
<title>Dispatchers&#45;&gt;ServerObjects</title>
<path fill="none" stroke="black" d="M182.72,-164.64C182.72,-154.68 182.72,-141.93 182.72,-130.54"/>
<polygon fill="black" stroke="black" points="186.22,-130.84 182.72,-120.84 179.22,-130.84 186.22,-130.84"/>
<text xml:space="preserve" text-anchor="middle" x="231.47" y="-133.95" font-family="Times,serif" font-size="14.00">Wraps/Invokes</text>
</g>
<!-- BrowserEngines -->
<g id="node5" class="node">
<title>BrowserEngines</title>
<polygon fill="lightblue" stroke="black" points="291.97,-36 73.47,-36 73.47,0 291.97,0 291.97,-36"/>
<text xml:space="preserve" text-anchor="middle" x="182.72" y="-15.2" font-family="Times,serif" font-size="14.00">Browser Engines</text>
<text xml:space="preserve" text-anchor="middle" x="182.72" y="-4.7" font-family="Times,serif" font-size="14.00">(CDP, WebDriver BiDi, etc.)</text>
</g>
<!-- ServerObjects&#45;&gt;BrowserEngines -->
<g id="edge4" class="edge">
<title>ServerObjects&#45;&gt;BrowserEngines</title>
<path fill="none" stroke="black" d="M163.76,-82.72C159.08,-77.32 154.7,-70.99 152.22,-64.25 149.87,-57.87 151.23,-51.51 154.41,-45.67"/>
<polygon fill="black" stroke="black" points="157.21,-47.77 160.25,-37.62 151.55,-43.66 157.21,-47.77"/>
<text xml:space="preserve" text-anchor="middle" x="185.97" y="-50.95" font-family="Times,serif" font-size="14.00">Automates</text>
</g>
<!-- BrowserEngines&#45;&gt;ServerObjects -->
<g id="edge5" class="edge">
<title>BrowserEngines&#45;&gt;ServerObjects</title>
<path fill="none" stroke="black" d="M209.35,-36.34C217.86,-44.17 224.08,-53.97 219.72,-64.25 218.25,-67.7 216.27,-70.99 213.99,-74.06"/>
<polygon fill="black" stroke="black" points="211.42,-71.68 207.42,-81.49 216.66,-76.32 211.42,-71.68"/>
<text xml:space="preserve" text-anchor="middle" x="266.15" y="-50.95" font-family="Times,serif" font-size="14.00">Sends Events</text>
</g>
</g>
</svg>
