<?xml version="1.0" encoding="UTF-8" standalone="no"?>
<!DOCTYPE svg PUBLIC "-//W3C//DTD SVG 1.1//EN"
 "http://www.w3.org/Graphics/SVG/1.1/DTD/svg11.dtd">
<!-- Generated by graphviz version 2.44.1 (20201121.0304)
 -->
<!-- Title: G Pages: 1 -->
<svg width="570pt" height="570pt"
 viewBox="0.00 0.00 570.00 570.00" xmlns="http://www.w3.org/2000/svg" xmlns:xlink="http://www.w3.org/1999/xlink"><style>
  * {
    fill: transparent !important;
    stroke: rgb(30, 30, 30) !important;
    stroke-width: 1 !important;
  }
  polygon:not(.cluster *, .node *, .edge *, text) {
    stroke: transparent !important;
  }
  text {
    font-size: 10px !important;
    font-family: monospace !important;
    fill: rgb(30, 30, 30) !important;
    stroke: transparent !important;
    transform: translateY(-0.5em);
  }
</style>
<g id="graph0" class="graph" transform="scale(1 1) rotate(0) translate(4 565.5)">
<title>G</title>
<polygon fill="white" stroke="none" points="-4,4 -4,-565.5 565.5,-565.5 565.5,4 -4,4"/>
<!-- CLI Client -->
<g id="node1" class="node">
<title>CLI Client</title>
<polygon fill="lightblue" stroke="black" points="150.5,-547 59.5,-547 59.5,-511 150.5,-511 150.5,-547"/>
<text xml:space="preserve" text-anchor="middle" x="105" y="-520.95" font-family="Times,serif" font-size="14.00">CLI Client</text>
</g>
<!-- CLI Daemon -->
<g id="node2" class="node">
<title>CLI Daemon</title>
<polygon fill="lightblue" stroke="black" points="561.5,-397 470.5,-397 470.5,-361 561.5,-361 561.5,-397"/>
<text xml:space="preserve" text-anchor="middle" x="516" y="-370.95" font-family="Times,serif" font-size="14.00">CLI Daemon</text>
</g>
<!-- CLI Client&#45;&gt;CLI Daemon -->
<g id="edge1" class="edge">
<title>CLI Client&#45;&gt;CLI Daemon</title>
<path fill="none" stroke="black" d="M150.95,-511.45C226.63,-484.2 377.27,-429.96 459.4,-400.38"/>
<polygon fill="black" stroke="black" points="460.38,-403.75 468.61,-397.07 458.01,-397.16 460.38,-403.75"/>
<text xml:space="preserve" text-anchor="middle" x="352.82" y="-445.95" font-family="Times,serif" font-size="14.00">commands</text>
</g>
<!-- Playwright Dashboard -->
<g id="node6" class="node">
<title>Playwright Dashboard</title>
<polygon fill="lightblue" stroke="black" points="166,-299 0,-299 0,-263 166,-263 166,-299"/>
<text xml:space="preserve" text-anchor="middle" x="83" y="-272.95" font-family="Times,serif" font-size="14.00">Playwright Dashboard</text>
</g>
<!-- CLI Client&#45;&gt;Playwright Dashboard -->
<g id="edge5" class="edge">
<title>CLI Client&#45;&gt;Playwright Dashboard</title>
<path fill="none" stroke="black" d="M101.83,-510.7C97.39,-485.7 89.49,-437.99 86,-397 83.5,-367.65 82.88,-333.95 82.81,-310.65"/>
<polygon fill="black" stroke="black" points="86.31,-310.7 82.82,-300.69 79.31,-310.69 86.31,-310.7"/>
<text xml:space="preserve" text-anchor="middle" x="119.64" y="-445.95" font-family="Times,serif" font-size="14.00">manages</text>
</g>
<!-- Browser Automation Backend -->
<g id="node3" class="node">
<title>Browser Automation Backend</title>
<polygon fill="lightblue" stroke="black" points="454.5,-201 243.5,-201 243.5,-165 454.5,-165 454.5,-201"/>
<text xml:space="preserve" text-anchor="middle" x="349" y="-174.95" font-family="Times,serif" font-size="14.00">Browser Automation Backend</text>
</g>
<!-- CLI Daemon&#45;&gt;Browser Automation Backend -->
<g id="edge2" class="edge">
<title>CLI Daemon&#45;&gt;Browser Automation Backend</title>
<path fill="none" stroke="black" d="M506.12,-360.68C492.37,-337.3 466.01,-294.91 438,-263 420.59,-243.17 398.4,-223.46 380.53,-208.69"/>
<polygon fill="black" stroke="black" points="382.76,-205.99 372.8,-202.39 378.34,-211.42 382.76,-205.99"/>
<text xml:space="preserve" text-anchor="middle" x="496.27" y="-272.95" font-family="Times,serif" font-size="14.00">controls</text>
</g>
<!-- Browser Instances -->
<g id="node4" class="node">
<title>Browser Instances</title>
<polygon fill="lightblue" stroke="black" points="225.75,-51 82.25,-51 82.25,-15 225.75,-15 225.75,-51"/>
<text xml:space="preserve" text-anchor="middle" x="154" y="-24.95" font-family="Times,serif" font-size="14.00">Browser Instances</text>
</g>
<!-- Browser Automation Backend&#45;&gt;Browser Instances -->
<g id="edge3" class="edge">
<title>Browser Automation Backend&#45;&gt;Browser Instances</title>
<path fill="none" stroke="black" d="M326.25,-164.73C291.56,-138.4 225.31,-88.12 185.85,-58.17"/>
<polygon fill="black" stroke="black" points="188.19,-55.56 178.11,-52.3 183.96,-61.13 188.19,-55.56"/>
<text xml:space="preserve" text-anchor="middle" x="309.85" y="-99.95" font-family="Times,serif" font-size="14.00">interacts with</text>
</g>
<!-- Multi&#45;process Communication (MCP) -->
<g id="node5" class="node">
<title>Multi&#45;process Communication (MCP)</title>
<polygon fill="lightblue" stroke="black" points="313.25,-397 94.75,-397 94.75,-361 313.25,-361 313.25,-397"/>
<text xml:space="preserve" text-anchor="middle" x="204" y="-376.2" font-family="Times,serif" font-size="14.00">Multi&#45;process Communication</text>
<text xml:space="preserve" text-anchor="middle" x="204" y="-365.7" font-family="Times,serif" font-size="14.00">(MCP)</text>
</g>
<!-- Multi&#45;process Communication (MCP)&#45;&gt;Browser Automation Backend -->
<g id="edge4" class="edge">
<title>Multi&#45;process Communication (MCP)&#45;&gt;Browser Automation Backend</title>
<path fill="none" stroke="black" d="M212.71,-360.86C224.82,-337.69 248.09,-295.54 273,-263 287.74,-243.74 306.63,-224.09 321.89,-209.2"/>
<polygon fill="black" stroke="black" points="324.07,-211.95 328.86,-202.5 319.22,-206.91 324.07,-211.95"/>
<text xml:space="preserve" text-anchor="middle" x="318" y="-272.95" font-family="Times,serif" font-size="14.00">orchestrates</text>
</g>
<!-- Playwright Dashboard&#45;&gt;Browser Instances -->
<g id="edge6" class="edge">
<title>Playwright Dashboard&#45;&gt;Browser Instances</title>
<path fill="none" stroke="black" d="M87.99,-262.7C100.09,-220.8 131.05,-113.53 145.86,-62.2"/>
<polygon fill="black" stroke="black" points="149.18,-63.31 148.59,-52.73 142.46,-61.37 149.18,-63.31"/>
<text xml:space="preserve" text-anchor="middle" x="145.46" y="-174.95" font-family="Times,serif" font-size="14.00">monitors</text>
</g>
<!-- Trace Analysis -->
<g id="node7" class="node">
<title>Trace Analysis</title>
<polygon fill="lightblue" stroke="black" points="452.5,-397 331.5,-397 331.5,-361 452.5,-361 452.5,-397"/>
<text xml:space="preserve" text-anchor="middle" x="392" y="-370.95" font-family="Times,serif" font-size="14.00">Trace Analysis</text>
</g>
<!-- Trace Analysis&#45;&gt;Browser Automation Backend -->
<g id="edge7" class="edge">
<title>Trace Analysis&#45;&gt;Browser Automation Backend</title>
<path fill="none" stroke="black" d="M388.18,-360.78C380.78,-327.36 364.38,-253.39 355.32,-212.52"/>
<polygon fill="black" stroke="black" points="358.78,-211.94 353.2,-202.93 351.94,-213.45 358.78,-211.94"/>
<text xml:space="preserve" text-anchor="middle" x="404.35" y="-272.95" font-family="Times,serif" font-size="14.00">inspects</text>
</g>
</g>
</svg>
