<?xml version="1.0" encoding="UTF-8" standalone="no"?>
<!DOCTYPE svg PUBLIC "-//W3C//DTD SVG 1.1//EN"
 "http://www.w3.org/Graphics/SVG/1.1/DTD/svg11.dtd">
<!-- Generated by graphviz version 2.44.1 (20201121.0304)
 -->
<!-- Title: G Pages: 1 -->
<svg width="540pt" height="535pt"
 viewBox="0.00 0.00 540.00 535.00" xmlns="http://www.w3.org/2000/svg" xmlns:xlink="http://www.w3.org/1999/xlink"><style>
  * {
    fill: transparent !important;
    stroke: rgb(30, 30, 30) !important;
    stroke-width: 1 !important;
  }
  polygon:not(.cluster *, .node *, .edge *, text) {
    stroke: transparent !important;
  }
  text {
    font-size: 10px !important;
    font-family: monospace !important;
    fill: rgb(30, 30, 30) !important;
    stroke: transparent !important;
    transform: translateY(-0.5em);
  }
</style>
<g id="graph0" class="graph" transform="scale(1 1) rotate(0) translate(4 530.75)">
<title>G</title>
<polygon fill="white" stroke="none" points="-4,4 -4,-530.75 536.21,-530.75 536.21,4 -4,4"/>
<!-- Workbench -->
<g id="node1" class="node">
<title>Workbench</title>
<polygon fill="lightblue" stroke="black" points="363.25,-514 234.75,-514 234.75,-478 363.25,-478 363.25,-514"/>
<text xml:space="preserve" text-anchor="middle" x="299" y="-493.2" font-family="sans-serif" font-size="14.00">Workbench</text>
<text xml:space="preserve" text-anchor="middle" x="299" y="-482.7" font-family="sans-serif" font-size="14.00">(workbench.tsx)</text>
</g>
<!-- Views -->
<g id="node2" class="node">
<title>Views</title>
<polygon fill="lightblue" stroke="black" points="376,-373 0,-373 0,-337 376,-337 376,-373"/>
<text xml:space="preserve" text-anchor="middle" x="188" y="-352.2" font-family="sans-serif" font-size="14.00">Specialized Views</text>
<text xml:space="preserve" text-anchor="middle" x="188" y="-341.7" font-family="sans-serif" font-size="14.00">(actionList.tsx, consoleTab.tsx, networkTab.tsx)</text>
</g>
<!-- Workbench&#45;&gt;Views -->
<g id="edge1" class="edge">
<title>Workbench&#45;&gt;Views</title>
<path fill="none" stroke="#337ab7" stroke-width="1.5" d="M285.17,-477.68C266.12,-453.82 231.64,-410.65 209.29,-382.66"/>
<polygon fill="#337ab7" stroke="#337ab7" stroke-width="1.5" points="212.05,-380.51 203.08,-374.88 206.58,-384.88 212.05,-380.51"/>
<text xml:space="preserve" text-anchor="middle" x="310.58" y="-417.95" font-family="Times,serif" font-size="14.00">manages &amp; renders</text>
</g>
<!-- TimelineVisuals -->
<g id="node5" class="node">
<title>TimelineVisuals</title>
<polygon fill="lightblue" stroke="black" points="526.75,-281 293.25,-281 293.25,-245 526.75,-245 526.75,-281"/>
<text xml:space="preserve" text-anchor="middle" x="410" y="-260.2" font-family="sans-serif" font-size="14.00">Timeline &amp; Filmstrip</text>
<text xml:space="preserve" text-anchor="middle" x="410" y="-249.7" font-family="sans-serif" font-size="14.00">(timeline.tsx, filmStrip.tsx)</text>
</g>
<!-- Workbench&#45;&gt;TimelineVisuals -->
<g id="edge4" class="edge">
<title>Workbench&#45;&gt;TimelineVisuals</title>
<path fill="none" stroke="#337ab7" stroke-width="1.5" d="M329.8,-477.63C346.64,-466.53 366.39,-450.59 378,-431.25 403.83,-388.2 409.47,-328.68 410.34,-293.47"/>
<polygon fill="#337ab7" stroke="#337ab7" stroke-width="1.5" points="413.84,-293.56 410.45,-283.53 406.84,-293.49 413.84,-293.56"/>
<text xml:space="preserve" text-anchor="middle" x="420.26" y="-417.95" font-family="Times,serif" font-size="14.00">integrates</text>
</g>
<!-- Snapshot -->
<g id="node3" class="node">
<title>Snapshot</title>
<polygon fill="lightblue" stroke="black" points="348.25,-189 69.75,-189 69.75,-153 348.25,-153 348.25,-189"/>
<text xml:space="preserve" text-anchor="middle" x="209" y="-168.2" font-family="sans-serif" font-size="14.00">Snapshot &amp; Inspector</text>
<text xml:space="preserve" text-anchor="middle" x="209" y="-157.7" font-family="sans-serif" font-size="14.00">(snapshotTab.tsx, inspectorTab.tsx)</text>
</g>
<!-- Views&#45;&gt;Snapshot -->
<g id="edge2" class="edge">
<title>Views&#45;&gt;Snapshot</title>
<path fill="none" stroke="#337ab7" stroke-width="1.5" d="M183.69,-336.84C178.91,-315.23 172.67,-277.04 179,-245 182.04,-229.61 188.36,-213.39 194.42,-200.16"/>
<polygon fill="#337ab7" stroke="#337ab7" stroke-width="1.5" points="197.43,-201.97 198.6,-191.44 191.12,-198.94 197.43,-201.97"/>
<text xml:space="preserve" text-anchor="middle" x="231.5" y="-254.95" font-family="Times,serif" font-size="14.00">interacts with</text>
</g>
<!-- BrowserFrameComponent -->
<g id="node4" class="node">
<title>BrowserFrameComponent</title>
<polygon fill="lightblue" stroke="black" points="378.5,-49 227.5,-49 227.5,-13 378.5,-13 378.5,-49"/>
<text xml:space="preserve" text-anchor="middle" x="303" y="-28.2" font-family="sans-serif" font-size="14.00">BrowserFrame</text>
<text xml:space="preserve" text-anchor="middle" x="303" y="-17.7" font-family="sans-serif" font-size="14.00">(browserFrame.tsx)</text>
</g>
<!-- Snapshot&#45;&gt;BrowserFrameComponent -->
<g id="edge3" class="edge">
<title>Snapshot&#45;&gt;BrowserFrameComponent</title>
<path fill="none" stroke="#337ab7" stroke-width="1.5" d="M220.91,-152.52C236.94,-128.98 265.63,-86.86 284.49,-59.17"/>
<polygon fill="#337ab7" stroke="#337ab7" stroke-width="1.5" points="287.18,-61.45 289.91,-51.21 281.39,-57.51 287.18,-61.45"/>
<text xml:space="preserve" text-anchor="middle" x="315.07" y="-92.95" font-family="Times,serif" font-size="14.00">displays within</text>
</g>
<!-- TimelineVisuals&#45;&gt;BrowserFrameComponent -->
<g id="edge5" class="edge">
<title>TimelineVisuals&#45;&gt;BrowserFrameComponent</title>
<path fill="none" stroke="#337ab7" stroke-width="1.5" d="M409.85,-244.71C408.87,-213.02 403.32,-144.45 375,-95.75 366.3,-80.8 352.86,-67.51 339.93,-56.98"/>
<polygon fill="#337ab7" stroke="#337ab7" stroke-width="1.5" points="342.08,-54.22 332.02,-50.88 337.8,-59.76 342.08,-54.22"/>
<text xml:space="preserve" text-anchor="middle" x="468.46" y="-162.95" font-family="Times,serif" font-size="14.00">visualizes frames</text>
</g>
</g>
</svg>
