<?xml version="1.0" encoding="UTF-8" standalone="no"?>
<!DOCTYPE svg PUBLIC "-//W3C//DTD SVG 1.1//EN"
 "http://www.w3.org/Graphics/SVG/1.1/DTD/svg11.dtd">
<!-- Generated by graphviz version 2.44.1 (20201121.0304)
 -->
<!-- Title: G Pages: 1 -->
<svg width="1123pt" height="1034pt"
 viewBox="0.00 0.00 1123.00 1034.00" xmlns="http://www.w3.org/2000/svg" xmlns:xlink="http://www.w3.org/1999/xlink"><style>
  * {
    fill: transparent !important;
    stroke: rgb(30, 30, 30) !important;
    stroke-width: 1 !important;
  }
  polygon:not(.cluster *, .node *, .edge *, text) {
    stroke: transparent !important;
  }
  text {
    font-size: 10px !important;
    font-family: monospace !important;
    fill: rgb(30, 30, 30) !important;
    stroke: transparent !important;
    transform: translateY(-0.5em);
  }
</style>
<g id="graph0" class="graph" transform="scale(1 1) rotate(0) translate(4 1029.75)">
<title>G</title>
<polygon fill="white" stroke="none" points="-4,4 -4,-1029.75 1118.65,-1029.75 1118.65,4 -4,4"/>
<!-- Android -->
<g id="node1" class="node">
<title>Android</title>
<polygon fill="lightblue" stroke="black" points="893,-993 442,-993 442,-957 893,-957 893,-993"/>
<text xml:space="preserve" text-anchor="middle" x="667.5" y="-966.95" font-family="Times,serif" font-size="14.00">{Android class|Manages device discovery and orchestration}</text>
</g>
<!-- AndroidDevice -->
<g id="node2" class="node">
<title>AndroidDevice</title>
<polygon fill="lightblue" stroke="black" points="896.75,-762 438.25,-762 438.25,-726 896.75,-726 896.75,-762"/>
<text xml:space="preserve" text-anchor="middle" x="667.5" y="-735.95" font-family="Times,serif" font-size="14.00">{AndroidDevice class|Represents a connected Android device}</text>
</g>
<!-- Android&#45;&gt;AndroidDevice -->
<g id="edge1" class="edge">
<title>Android&#45;&gt;AndroidDevice</title>
<path fill="none" stroke="black" d="M667.5,-956.79C667.5,-917.75 667.5,-822.13 667.5,-773.87"/>
<polygon fill="black" stroke="black" points="671,-773.93 667.5,-763.93 664,-773.93 671,-773.93"/>
<text xml:space="preserve" text-anchor="middle" x="693.75" y="-851.95" font-family="Times,serif" font-size="14.00">manages</text>
</g>
<!-- AdbBackendDevice -->
<g id="node3" class="node">
<title>AdbBackendDevice</title>
<polygon fill="lightblue" stroke="black" points="511,-531 0,-531 0,-495 511,-495 511,-531"/>
<text xml:space="preserve" text-anchor="middle" x="255.5" y="-504.95" font-family="Times,serif" font-size="14.00">{AdbBackend / AdbDevice|Facilitates communication with ADB server}</text>
</g>
<!-- AndroidDevice&#45;&gt;AdbBackendDevice -->
<g id="edge2" class="edge">
<title>AndroidDevice&#45;&gt;AdbBackendDevice</title>
<path fill="none" stroke="black" d="M636.19,-725.6C562.72,-684.76 379.22,-582.77 296.77,-536.94"/>
<polygon fill="black" stroke="black" points="298.52,-533.91 288.08,-532.11 295.12,-540.03 298.52,-533.91"/>
<text xml:space="preserve" text-anchor="middle" x="476.5" y="-619.95" font-family="Times,serif" font-size="14.00">uses</text>
</g>
<!-- OnDeviceAutomationServer -->
<g id="node5" class="node">
<title>OnDeviceAutomationServer</title>
<polygon fill="lightblue" stroke="black" points="840,-68 239,-68 239,-32 840,-32 840,-68"/>
<text xml:space="preserve" text-anchor="middle" x="539.5" y="-41.95" font-family="Times,serif" font-size="14.00">{On&#45;device UI Automation Server|Handles UI interactions on the Android device}</text>
</g>
<!-- AndroidDevice&#45;&gt;OnDeviceAutomationServer -->
<g id="edge5" class="edge">
<title>AndroidDevice&#45;&gt;OnDeviceAutomationServer</title>
<path fill="none" stroke="black" d="M655.2,-725.65C631.26,-690.78 578.98,-608.85 558.5,-531 514.79,-364.83 529.13,-155.23 536.39,-79.73"/>
<polygon fill="black" stroke="black" points="539.86,-80.21 537.38,-69.91 532.9,-79.51 539.86,-80.21"/>
<text xml:space="preserve" text-anchor="middle" x="588.17" y="-388.95" font-family="Times,serif" font-size="14.00">interacts with</text>
</g>
<!-- BrowserContext -->
<g id="node6" class="node">
<title>BrowserContext</title>
<polygon fill="lightblue" stroke="black" points="1025.75,-531 567.25,-531 567.25,-495 1025.75,-495 1025.75,-531"/>
<text xml:space="preserve" text-anchor="middle" x="796.5" y="-504.95" font-family="Times,serif" font-size="14.00">{BrowserContext|Represents a browser context on the device}</text>
</g>
<!-- AndroidDevice&#45;&gt;BrowserContext -->
<g id="edge7" class="edge">
<title>AndroidDevice&#45;&gt;BrowserContext</title>
<path fill="none" stroke="black" d="M677.2,-725.79C699.42,-686.33 754.2,-589.1 781.09,-541.35"/>
<polygon fill="black" stroke="black" points="784.09,-543.16 785.95,-532.73 777.99,-539.73 784.09,-543.16"/>
<text xml:space="preserve" text-anchor="middle" x="762" y="-619.95" font-family="Times,serif" font-size="14.00">launches</text>
</g>
<!-- AdbServer -->
<g id="node4" class="node">
<title>AdbServer</title>
<polygon fill="lightblue" stroke="black" points="483.5,-300 197.5,-300 197.5,-264 483.5,-264 483.5,-300"/>
<text xml:space="preserve" text-anchor="middle" x="340.5" y="-273.95" font-family="Times,serif" font-size="14.00">{ADB Server|Manages Android devices}</text>
</g>
<!-- AdbBackendDevice&#45;&gt;AdbServer -->
<g id="edge3" class="edge">
<title>AdbBackendDevice&#45;&gt;AdbServer</title>
<path fill="none" stroke="black" d="M261.89,-494.79C276.47,-455.5 312.32,-358.91 330.12,-310.95"/>
<polygon fill="black" stroke="black" points="333.31,-312.42 333.51,-301.83 326.75,-309.99 333.31,-312.42"/>
<text xml:space="preserve" text-anchor="middle" x="361.75" y="-388.95" font-family="Times,serif" font-size="14.00">communicates with</text>
</g>
<!-- AdbServer&#45;&gt;OnDeviceAutomationServer -->
<g id="edge4" class="edge">
<title>AdbServer&#45;&gt;OnDeviceAutomationServer</title>
<path fill="none" stroke="black" d="M341.81,-263.85C344.47,-238.95 352.37,-192.32 375.5,-160.75 404.37,-121.34 451.96,-91.78 488.46,-73.33"/>
<polygon fill="black" stroke="black" points="489.65,-76.64 497.07,-69.09 486.56,-70.36 489.65,-76.64"/>
<text xml:space="preserve" text-anchor="middle" x="450.5" y="-157.95" font-family="Times,serif" font-size="14.00">forwards commands to</text>
</g>
<!-- OnDeviceAutomationServer&#45;&gt;AndroidDevice -->
<g id="edge6" class="edge">
<title>OnDeviceAutomationServer&#45;&gt;AndroidDevice</title>
<path fill="none" stroke="black" d="M574.17,-68.48C669.74,-118.91 936.39,-275.2 1034.5,-495 1090.35,-620.12 890.66,-691.21 764.1,-722.87"/>
<polygon fill="black" stroke="black" points="763.58,-719.39 754.7,-725.18 765.24,-726.19 763.58,-719.39"/>
<text xml:space="preserve" text-anchor="middle" x="1047.15" y="-388.95" font-family="Times,serif" font-size="14.00">sends responses to</text>
</g>
</g>
</svg>
