<?xml version="1.0" encoding="UTF-8" standalone="no"?>
<!DOCTYPE svg PUBLIC "-//W3C//DTD SVG 1.1//EN"
 "http://www.w3.org/Graphics/SVG/1.1/DTD/svg11.dtd">
<!-- Generated by graphviz version 2.44.1 (20201121.0304)
 -->
<!-- Title: G Pages: 1 -->
<svg width="470pt" height="457pt"
 viewBox="0.00 0.00 470.00 457.00" xmlns="http://www.w3.org/2000/svg" xmlns:xlink="http://www.w3.org/1999/xlink"><style>
  * {
    fill: transparent !important;
    stroke: rgb(30, 30, 30) !important;
    stroke-width: 1 !important;
  }
  polygon:not(.cluster *, .node *, .edge *, text) {
    stroke: transparent !important;
  }
  text {
    font-size: 10px !important;
    font-family: monospace !important;
    fill: rgb(30, 30, 30) !important;
    stroke: transparent !important;
    transform: translateY(-0.5em);
  }
</style>
<g id="graph0" class="graph" transform="scale(1 1) rotate(0) translate(4 452.5)">
<title>G</title>
<polygon fill="white" stroke="none" points="-4,4 -4,-452.5 465.93,-452.5 465.93,4 -4,4"/>
<!-- TSX/JSX Source Code -->
<g id="node1" class="node">
<title>TSX/JSX Source Code</title>
<polygon fill="lightblue" stroke="black" points="376.18,-449 217.68,-449 217.68,-413 376.18,-413 376.18,-449"/>
<text xml:space="preserve" text-anchor="middle" x="296.93" y="-422.95" font-family="Times,serif" font-size="14.00">TSX/JSX Source Code</text>
</g>
<!-- Babel TSX Transform -->
<g id="node2" class="node">
<title>Babel TSX Transform</title>
<polygon fill="lightblue" stroke="black" points="376.18,-366 217.68,-366 217.68,-330 376.18,-330 376.18,-366"/>
<text xml:space="preserve" text-anchor="middle" x="296.93" y="-339.95" font-family="Times,serif" font-size="14.00">Babel TSX Transform</text>
</g>
<!-- TSX/JSX Source Code&#45;&gt;Babel TSX Transform -->
<g id="edge1" class="edge">
<title>TSX/JSX Source Code&#45;&gt;Babel TSX Transform</title>
<path fill="none" stroke="black" d="M296.93,-412.82C296.93,-402.69 296.93,-389.6 296.93,-377.92"/>
<polygon fill="black" stroke="black" points="300.43,-377.95 296.93,-367.95 293.43,-377.95 300.43,-377.95"/>
<text xml:space="preserve" text-anchor="middle" x="334.43" y="-380.95" font-family="Times,serif" font-size="14.00">Transforms</text>
</g>
<!-- Vite Bundling -->
<g id="node3" class="node">
<title>Vite Bundling</title>
<polygon fill="lightblue" stroke="black" points="353.68,-284 240.18,-284 240.18,-248 353.68,-248 353.68,-284"/>
<text xml:space="preserve" text-anchor="middle" x="296.93" y="-257.95" font-family="Times,serif" font-size="14.00">Vite Bundling</text>
</g>
<!-- Babel TSX Transform&#45;&gt;Vite Bundling -->
<g id="edge2" class="edge">
<title>Babel TSX Transform&#45;&gt;Vite Bundling</title>
<path fill="none" stroke="black" d="M296.93,-329.64C296.93,-319.68 296.93,-306.93 296.93,-295.54"/>
<polygon fill="black" stroke="black" points="300.43,-295.84 296.93,-285.84 293.43,-295.84 300.43,-295.84"/>
<text xml:space="preserve" text-anchor="middle" x="379.43" y="-298.95" font-family="Times,serif" font-size="14.00">Outputs Transformed JS</text>
</g>
<!-- Bundled Components -->
<g id="node4" class="node">
<title>Bundled Components</title>
<polygon fill="lightblue" stroke="black" points="372.43,-201 221.43,-201 221.43,-165 372.43,-165 372.43,-201"/>
<text xml:space="preserve" text-anchor="middle" x="296.93" y="-174.95" font-family="Times,serif" font-size="14.00">Bundled Components</text>
</g>
<!-- Vite Bundling&#45;&gt;Bundled Components -->
<g id="edge3" class="edge">
<title>Vite Bundling&#45;&gt;Bundled Components</title>
<path fill="none" stroke="black" d="M296.93,-247.82C296.93,-237.69 296.93,-224.6 296.93,-212.92"/>
<polygon fill="black" stroke="black" points="300.43,-212.95 296.93,-202.95 293.43,-212.95 300.43,-212.95"/>
<text xml:space="preserve" text-anchor="middle" x="330.68" y="-215.95" font-family="Times,serif" font-size="14.00">Generates</text>
</g>
<!-- Playwright Test Runner -->
<g id="node5" class="node">
<title>Playwright Test Runner</title>
<polygon fill="lightblue" stroke="black" points="264.43,-119 83.43,-119 83.43,-83 264.43,-83 264.43,-119"/>
<text xml:space="preserve" text-anchor="middle" x="173.93" y="-92.95" font-family="Times,serif" font-size="14.00">Playwright Test Runner</text>
</g>
<!-- Bundled Components&#45;&gt;Playwright Test Runner -->
<g id="edge4" class="edge">
<title>Bundled Components&#45;&gt;Playwright Test Runner</title>
<path fill="none" stroke="black" d="M270.24,-164.64C252.67,-153.21 229.45,-138.11 210.21,-125.6"/>
<polygon fill="black" stroke="black" points="212.13,-122.67 201.84,-120.15 208.31,-128.54 212.13,-122.67"/>
<text xml:space="preserve" text-anchor="middle" x="269.04" y="-133.95" font-family="Times,serif" font-size="14.00">Used by</text>
</g>
<!-- Vite Preview Server -->
<g id="node6" class="node">
<title>Vite Preview Server</title>
<polygon fill="lightblue" stroke="black" points="374.18,-36 215.68,-36 215.68,0 374.18,0 374.18,-36"/>
<text xml:space="preserve" text-anchor="middle" x="294.93" y="-9.95" font-family="Times,serif" font-size="14.00">Vite Preview Server</text>
</g>
<!-- Playwright Test Runner&#45;&gt;Vite Preview Server -->
<g id="edge5" class="edge">
<title>Playwright Test Runner&#45;&gt;Vite Preview Server</title>
<path fill="none" stroke="black" d="M199.89,-82.62C217.27,-70.99 240.38,-55.52 259.46,-42.75"/>
<polygon fill="black" stroke="black" points="261.39,-45.66 267.76,-37.19 257.5,-39.84 261.39,-45.66"/>
<text xml:space="preserve" text-anchor="middle" x="271.67" y="-50.95" font-family="Times,serif" font-size="14.00">Accesses</text>
</g>
<!-- Vite Preview Server&#45;&gt;Bundled Components -->
<g id="edge6" class="edge">
<title>Vite Preview Server&#45;&gt;Bundled Components</title>
<path fill="none" stroke="black" d="M301.59,-36.43C303.37,-41.89 305.04,-48 305.93,-53.75 311.2,-87.84 306.83,-127.5 302.53,-153.59"/>
<polygon fill="black" stroke="black" points="299.09,-152.94 300.8,-163.4 305.99,-154.16 299.09,-152.94"/>
<text xml:space="preserve" text-anchor="middle" x="330.84" y="-92.95" font-family="Times,serif" font-size="14.00">Serves</text>
</g>
</g>
</svg>
