<?xml version="1.0" encoding="UTF-8" standalone="no"?>
<!DOCTYPE svg PUBLIC "-//W3C//DTD SVG 1.1//EN"
 "http://www.w3.org/Graphics/SVG/1.1/DTD/svg11.dtd">
<!-- Generated by graphviz version 2.44.1 (20201121.0304)
 -->
<!-- Title: G Pages: 1 -->
<svg width="539pt" height="539pt"
 viewBox="0.00 0.00 539.00 539.00" xmlns="http://www.w3.org/2000/svg" xmlns:xlink="http://www.w3.org/1999/xlink"><style>
  * {
    fill: transparent !important;
    stroke: rgb(30, 30, 30) !important;
    stroke-width: 1 !important;
  }
  polygon:not(.cluster *, .node *, .edge *, text) {
    stroke: transparent !important;
  }
  text {
    font-size: 10px !important;
    font-family: monospace !important;
    fill: rgb(30, 30, 30) !important;
    stroke: transparent !important;
    transform: translateY(-0.5em);
  }
</style>
<g id="graph0" class="graph" transform="scale(1 1) rotate(0) translate(4 535)">
<title>G</title>
<polygon fill="white" stroke="none" points="-4,4 -4,-535 535,-535 535,4 -4,4"/>
<!-- package.json (devDependencies) -->
<g id="node1" class="node">
<title>package.json (devDependencies)</title>
<polygon fill="lightblue" stroke="black" points="386,-531 145,-531 145,-495 386,-495 386,-531"/>
<text xml:space="preserve" text-anchor="middle" x="265.5" y="-504.95" font-family="Times,serif" font-size="14.00">package.json (devDependencies)</text>
</g>
<!-- utilsBundle.ts -->
<g id="node2" class="node">
<title>utilsBundle.ts</title>
<polygon fill="lightblue" stroke="black" points="326,-449 205,-449 205,-413 326,-413 326,-449"/>
<text xml:space="preserve" text-anchor="middle" x="265.5" y="-422.95" font-family="Times,serif" font-size="14.00">utilsBundle.ts</text>
</g>
<!-- package.json (devDependencies)&#45;&gt;utilsBundle.ts -->
<g id="edge1" class="edge">
<title>package.json (devDependencies)&#45;&gt;utilsBundle.ts</title>
<path fill="none" stroke="black" d="M265.5,-494.64C265.5,-484.68 265.5,-471.93 265.5,-460.54"/>
<polygon fill="black" stroke="black" points="269,-460.84 265.5,-450.84 262,-460.84 269,-460.84"/>
<text xml:space="preserve" text-anchor="middle" x="333" y="-463.95" font-family="Times,serif" font-size="14.00">install and export</text>
</g>
<!-- utilsBundleMapping.js -->
<g id="node3" class="node">
<title>utilsBundleMapping.js</title>
<polygon fill="lightblue" stroke="black" points="352.25,-366 178.75,-366 178.75,-330 352.25,-330 352.25,-366"/>
<text xml:space="preserve" text-anchor="middle" x="265.5" y="-339.95" font-family="Times,serif" font-size="14.00">utilsBundleMapping.js</text>
</g>
<!-- utilsBundle.ts&#45;&gt;utilsBundleMapping.js -->
<g id="edge2" class="edge">
<title>utilsBundle.ts&#45;&gt;utilsBundleMapping.js</title>
<path fill="none" stroke="black" d="M265.5,-412.82C265.5,-402.69 265.5,-389.6 265.5,-377.92"/>
<polygon fill="black" stroke="black" points="269,-377.95 265.5,-367.95 262,-377.95 269,-377.95"/>
<text xml:space="preserve" text-anchor="middle" x="318" y="-380.95" font-family="Times,serif" font-size="14.00">configured via</text>
</g>
<!-- utilsBundle.js -->
<g id="node4" class="node">
<title>utilsBundle.js</title>
<polygon fill="lightblue" stroke="black" points="326,-284 205,-284 205,-248 326,-248 326,-284"/>
<text xml:space="preserve" text-anchor="middle" x="265.5" y="-257.95" font-family="Times,serif" font-size="14.00">utilsBundle.js</text>
</g>
<!-- utilsBundleMapping.js&#45;&gt;utilsBundle.js -->
<g id="edge3" class="edge">
<title>utilsBundleMapping.js&#45;&gt;utilsBundle.js</title>
<path fill="none" stroke="black" d="M265.5,-329.64C265.5,-319.68 265.5,-306.93 265.5,-295.54"/>
<polygon fill="black" stroke="black" points="269,-295.84 265.5,-285.84 262,-295.84 269,-295.84"/>
<text xml:space="preserve" text-anchor="middle" x="310.5" y="-298.95" font-family="Times,serif" font-size="14.00">inlines into</text>
</g>
<!-- DEPS.list -->
<g id="node5" class="node">
<title>DEPS.list</title>
<polygon fill="lightblue" stroke="black" points="307.25,-201 223.75,-201 223.75,-165 307.25,-165 307.25,-201"/>
<text xml:space="preserve" text-anchor="middle" x="265.5" y="-174.95" font-family="Times,serif" font-size="14.00">DEPS.list</text>
</g>
<!-- utilsBundle.js&#45;&gt;DEPS.list -->
<g id="edge4" class="edge">
<title>utilsBundle.js&#45;&gt;DEPS.list</title>
<path fill="none" stroke="black" d="M265.5,-247.82C265.5,-237.69 265.5,-224.6 265.5,-212.92"/>
<polygon fill="black" stroke="black" points="269,-212.95 265.5,-202.95 262,-212.95 269,-212.95"/>
<text xml:space="preserve" text-anchor="middle" x="314.25" y="-215.95" font-family="Times,serif" font-size="14.00">authorized by</text>
</g>
<!-- check_deps -->
<g id="node6" class="node">
<title>check_deps</title>
<polygon fill="lightblue" stroke="black" points="311,-119 220,-119 220,-83 311,-83 311,-119"/>
<text xml:space="preserve" text-anchor="middle" x="265.5" y="-92.95" font-family="Times,serif" font-size="14.00">check_deps</text>
</g>
<!-- DEPS.list&#45;&gt;check_deps -->
<g id="edge5" class="edge">
<title>DEPS.list&#45;&gt;check_deps</title>
<path fill="none" stroke="black" d="M265.5,-164.64C265.5,-154.68 265.5,-141.93 265.5,-130.54"/>
<polygon fill="black" stroke="black" points="269,-130.84 265.5,-120.84 262,-130.84 269,-130.84"/>
<text xml:space="preserve" text-anchor="middle" x="306.75" y="-133.95" font-family="Times,serif" font-size="14.00">enforced by</text>
</g>
<!-- npm run flint -->
<g id="node7" class="node">
<title>npm run flint</title>
<polygon fill="lightblue" stroke="black" points="322.25,-36 208.75,-36 208.75,0 322.25,0 322.25,-36"/>
<text xml:space="preserve" text-anchor="middle" x="265.5" y="-9.95" font-family="Times,serif" font-size="14.00">npm run flint</text>
</g>
<!-- check_deps&#45;&gt;npm run flint -->
<g id="edge6" class="edge">
<title>check_deps&#45;&gt;npm run flint</title>
<path fill="none" stroke="black" d="M265.5,-82.82C265.5,-72.69 265.5,-59.6 265.5,-47.92"/>
<polygon fill="black" stroke="black" points="269,-47.95 265.5,-37.95 262,-47.95 269,-47.95"/>
<text xml:space="preserve" text-anchor="middle" x="291.75" y="-50.95" font-family="Times,serif" font-size="14.00">part of</text>
</g>
</g>
</svg>
