<?xml version="1.0" encoding="UTF-8" standalone="no"?>
<!DOCTYPE svg PUBLIC "-//W3C//DTD SVG 1.1//EN"
 "http://www.w3.org/Graphics/SVG/1.1/DTD/svg11.dtd">
<!-- Generated by graphviz version 2.44.1 (20201121.0304)
 -->
<!-- Title: G Pages: 1 -->
<svg width="361pt" height="292pt"
 viewBox="0.00 0.00 361.00 292.00" xmlns="http://www.w3.org/2000/svg" xmlns:xlink="http://www.w3.org/1999/xlink"><style>
  * {
    fill: transparent !important;
    stroke: rgb(30, 30, 30) !important;
    stroke-width: 1 !important;
  }
  polygon:not(.cluster *, .node *, .edge *, text) {
    stroke: transparent !important;
  }
  text {
    font-size: 10px !important;
    font-family: monospace !important;
    fill: rgb(30, 30, 30) !important;
    stroke: transparent !important;
    transform: translateY(-0.5em);
  }
</style>
<g id="graph0" class="graph" transform="scale(1 1) rotate(0) translate(4 287.5)">
<title>G</title>
<polygon fill="white" stroke="none" points="-4,4 -4,-287.5 357.42,-287.5 357.42,4 -4,4"/>
<!-- RecorderFrontend -->
<g id="node1" class="node">
<title>RecorderFrontend</title>
<polygon fill="lightblue" stroke="black" points="268.96,-284 72.96,-284 72.96,-248 268.96,-248 268.96,-284"/>
<text xml:space="preserve" text-anchor="middle" x="170.96" y="-257.95" font-family="Times,serif" font-size="14.00">RecorderFrontend (React)</text>
</g>
<!-- RecorderBackendProxy -->
<g id="node2" class="node">
<title>RecorderBackendProxy</title>
<polygon fill="lightblue" stroke="black" points="194.21,-201 5.71,-201 5.71,-165 194.21,-165 194.21,-201"/>
<text xml:space="preserve" text-anchor="middle" x="99.96" y="-174.95" font-family="Times,serif" font-size="14.00">RecorderBackend (Proxy)</text>
</g>
<!-- RecorderFrontend&#45;&gt;RecorderBackendProxy -->
<g id="edge1" class="edge">
<title>RecorderFrontend&#45;&gt;RecorderBackendProxy</title>
<path fill="none" stroke="black" d="M147.72,-247.65C141.11,-242.15 134.16,-235.79 128.46,-229.25 123.58,-223.65 118.96,-217.12 114.93,-210.8"/>
<polygon fill="black" stroke="black" points="118.06,-209.22 109.88,-202.49 112.08,-212.85 118.06,-209.22"/>
<text xml:space="preserve" text-anchor="middle" x="177.21" y="-215.95" font-family="Times,serif" font-size="14.00">Calls methods</text>
</g>
<!-- WindowObjects -->
<g id="node3" class="node">
<title>WindowObjects</title>
<polygon fill="lightblue" stroke="black" points="277.21,-119 58.71,-119 58.71,-83 277.21,-83 277.21,-119"/>
<text xml:space="preserve" text-anchor="middle" x="167.96" y="-92.95" font-family="Times,serif" font-size="14.00">window.dispatch/sendCommand</text>
</g>
<!-- RecorderBackendProxy&#45;&gt;WindowObjects -->
<g id="edge2" class="edge">
<title>RecorderBackendProxy&#45;&gt;WindowObjects</title>
<path fill="none" stroke="black" d="M98.71,-164.8C98.87,-155.75 100.45,-144.88 105.96,-136.75 108.61,-132.84 111.85,-129.33 115.45,-126.18"/>
<polygon fill="black" stroke="black" points="117.28,-129.18 123.17,-120.37 113.08,-123.58 117.28,-129.18"/>
<text xml:space="preserve" text-anchor="middle" x="165.96" y="-133.95" font-family="Times,serif" font-size="14.00">Uses sendCommand</text>
</g>
<!-- WindowObjects&#45;&gt;RecorderFrontend -->
<g id="edge5" class="edge">
<title>WindowObjects&#45;&gt;RecorderFrontend</title>
<path fill="none" stroke="black" d="M209.49,-119.46C216.09,-124.1 222.03,-129.81 225.96,-136.75 246.23,-172.52 245.57,-193.12 225.96,-229.25 223.8,-233.25 220.97,-236.87 217.73,-240.13"/>
<polygon fill="black" stroke="black" points="215.54,-237.4 210.17,-246.54 220.06,-242.74 215.54,-237.4"/>
<text xml:space="preserve" text-anchor="middle" x="297.17" y="-174.95" font-family="Times,serif" font-size="14.00">Uses dispatcher</text>
</g>
<!-- PlaywrightBackend -->
<g id="node4" class="node">
<title>PlaywrightBackend</title>
<polygon fill="lightblue" stroke="black" points="243.46,-36 92.46,-36 92.46,0 243.46,0 243.46,-36"/>
<text xml:space="preserve" text-anchor="middle" x="167.96" y="-9.95" font-family="Times,serif" font-size="14.00">Playwright Backend</text>
</g>
<!-- WindowObjects&#45;&gt;PlaywrightBackend -->
<g id="edge3" class="edge">
<title>WindowObjects&#45;&gt;PlaywrightBackend</title>
<path fill="none" stroke="black" d="M122.8,-82.66C110.56,-75.15 102.31,-65.39 108.96,-53.75 111.1,-50.02 113.8,-46.65 116.87,-43.62"/>
<polygon fill="black" stroke="black" points="119.06,-46.35 124.56,-37.3 114.61,-40.95 119.06,-46.35"/>
<text xml:space="preserve" text-anchor="middle" x="161.46" y="-50.95" font-family="Times,serif" font-size="14.00">Sends commands</text>
</g>
<!-- PlaywrightBackend&#45;&gt;WindowObjects -->
<g id="edge4" class="edge">
<title>PlaywrightBackend&#45;&gt;WindowObjects</title>
<path fill="none" stroke="black" d="M199.18,-36.28C205.14,-41.11 210.57,-46.94 213.96,-53.75 217.83,-61.52 215.26,-68.78 209.76,-75.15"/>
<polygon fill="black" stroke="black" points="207.63,-72.35 202.61,-81.67 212.35,-77.52 207.63,-72.35"/>
<text xml:space="preserve" text-anchor="middle" x="260.82" y="-50.95" font-family="Times,serif" font-size="14.00">Sends events</text>
</g>
</g>
</svg>
