<?xml version="1.0" encoding="UTF-8" standalone="no"?>
<!DOCTYPE svg PUBLIC "-//W3C//DTD SVG 1.1//EN"
 "http://www.w3.org/Graphics/SVG/1.1/DTD/svg11.dtd">
<!-- Generated by graphviz version 2.44.1 (20201121.0304)
 -->
<!-- Title: G Pages: 1 -->
<svg width="494pt" height="493pt"
 viewBox="0.00 0.00 494.00 493.00" xmlns="http://www.w3.org/2000/svg" xmlns:xlink="http://www.w3.org/1999/xlink"><style>
  * {
    fill: transparent !important;
    stroke: rgb(30, 30, 30) !important;
    stroke-width: 1 !important;
  }
  polygon:not(.cluster *, .node *, .edge *, text) {
    stroke: transparent !important;
  }
  text {
    font-size: 10px !important;
    font-family: monospace !important;
    fill: rgb(30, 30, 30) !important;
    stroke: transparent !important;
    transform: translateY(-0.5em);
  }
</style>
<g id="graph0" class="graph" transform="scale(1 1) rotate(0) translate(4 489.5)">
<title>G</title>
<polygon fill="white" stroke="none" points="-4,4 -4,-489.5 489.5,-489.5 489.5,4 -4,4"/>
<!-- Vite Build Process -->
<g id="node1" class="node">
<title>Vite Build Process</title>
<polygon fill="lightblue" stroke="black" points="230.25,-484 79.25,-484 79.25,-448 230.25,-448 230.25,-484"/>
<text xml:space="preserve" text-anchor="middle" x="154.75" y="-457.95" font-family="Times,serif" font-size="14.00">Vite Build Process</text>
</g>
<!-- bundle.ts Plugin -->
<g id="node2" class="node">
<title>bundle.ts Plugin</title>
<polygon fill="lightblue" stroke="black" points="174.25,-395 23.25,-395 23.25,-359 174.25,-359 174.25,-395"/>
<text xml:space="preserve" text-anchor="middle" x="98.75" y="-368.95" font-family="Times,serif" font-size="14.00">bundle.ts (Plugin)</text>
</g>
<!-- Vite Build Process&#45;&gt;bundle.ts Plugin -->
<g id="edge1" class="edge">
<title>Vite Build Process&#45;&gt;bundle.ts Plugin</title>
<path fill="none" stroke="black" d="M143.69,-447.81C135.84,-435.62 125.14,-419.01 116.16,-405.05"/>
<polygon fill="black" stroke="black" points="119.16,-403.24 110.8,-396.72 113.27,-407.03 119.16,-403.24"/>
<text xml:space="preserve" text-anchor="middle" x="143.43" y="-412.95" font-family="Times,serif" font-size="14.00">uses</text>
</g>
<!-- index.html -->
<g id="node3" class="node">
<title>index.html</title>
<polygon fill="lightblue" stroke="black" points="241.5,-305 68,-305 68,-269 241.5,-269 241.5,-305"/>
<text xml:space="preserve" text-anchor="middle" x="154.75" y="-278.95" font-family="Times,serif" font-size="14.00">index.html (Template)</text>
</g>
<!-- Vite Build Process&#45;&gt;index.html -->
<g id="edge2" class="edge">
<title>Vite Build Process&#45;&gt;index.html</title>
<path fill="none" stroke="black" d="M166.73,-447.54C183.45,-420.87 209.88,-368.69 192.75,-326.75 190.91,-322.24 188.25,-317.96 185.2,-314.02"/>
<polygon fill="black" stroke="black" points="187.81,-311.69 178.53,-306.58 182.6,-316.36 187.81,-311.69"/>
<text xml:space="preserve" text-anchor="middle" x="232.01" y="-368.95" font-family="Times,serif" font-size="14.00">processes</text>
</g>
<!-- bundle.ts Plugin&#45;&gt;index.html -->
<g id="edge3" class="edge">
<title>bundle.ts Plugin&#45;&gt;index.html</title>
<path fill="none" stroke="black" d="M109.81,-358.61C117.79,-346.08 128.7,-328.93 137.78,-314.67"/>
<polygon fill="black" stroke="black" points="140.48,-316.94 142.9,-306.63 134.57,-313.18 140.48,-316.94"/>
<text xml:space="preserve" text-anchor="middle" x="158.43" y="-323.95" font-family="Times,serif" font-size="14.00">modifies</text>
</g>
<!-- HTML Report -->
<g id="node4" class="node">
<title>HTML Report</title>
<polygon fill="lightblue" stroke="black" points="241.5,-216 68,-216 68,-180 241.5,-180 241.5,-216"/>
<text xml:space="preserve" text-anchor="middle" x="154.75" y="-189.95" font-family="Times,serif" font-size="14.00">Generated HTML Report</text>
</g>
<!-- index.html&#45;&gt;HTML Report -->
<g id="edge4" class="edge">
<title>index.html&#45;&gt;HTML Report</title>
<path fill="none" stroke="black" d="M154.75,-268.81C154.75,-257.09 154.75,-241.29 154.75,-227.68"/>
<polygon fill="black" stroke="black" points="158.25,-227.96 154.75,-217.96 151.25,-227.96 158.25,-227.96"/>
<text xml:space="preserve" text-anchor="middle" x="192.25" y="-234.95" font-family="Times,serif" font-size="14.00">results in</text>
</g>
<!-- Client&#45;side App -->
<g id="node5" class="node">
<title>Client&#45;side App</title>
<polygon fill="lightblue" stroke="black" points="249,-127 60.5,-127 60.5,-91 249,-91 249,-127"/>
<text xml:space="preserve" text-anchor="middle" x="154.75" y="-100.95" font-family="Times,serif" font-size="14.00">Client&#45;side App (React)</text>
</g>
<!-- HTML Report&#45;&gt;Client&#45;side App -->
<g id="edge5" class="edge">
<title>HTML Report&#45;&gt;Client&#45;side App</title>
<path fill="none" stroke="black" d="M154.75,-179.81C154.75,-168.09 154.75,-152.29 154.75,-138.68"/>
<polygon fill="black" stroke="black" points="158.25,-138.96 154.75,-128.96 151.25,-138.96 158.25,-138.96"/>
<text xml:space="preserve" text-anchor="middle" x="173.5" y="-144.95" font-family="Times,serif" font-size="14.00">loads</text>
</g>
<!-- ZipReport -->
<g id="node6" class="node">
<title>ZipReport</title>
<polygon fill="lightblue" stroke="black" points="203.5,-37 0,-37 0,-1 203.5,-1 203.5,-37"/>
<text xml:space="preserve" text-anchor="middle" x="101.75" y="-10.95" font-family="Times,serif" font-size="14.00">ZipReport (Decompression)</text>
</g>
<!-- Client&#45;side App&#45;&gt;ZipReport -->
<g id="edge6" class="edge">
<title>Client&#45;side App&#45;&gt;ZipReport</title>
<path fill="none" stroke="black" d="M122,-90.62C114.33,-84.89 107.13,-77.76 102.75,-69.25 99.54,-63.01 98.28,-55.72 98.06,-48.69"/>
<polygon fill="black" stroke="black" points="101.55,-48.96 98.44,-38.84 94.56,-48.7 101.55,-48.96"/>
<text xml:space="preserve" text-anchor="middle" x="117.75" y="-55.95" font-family="Times,serif" font-size="14.00">uses</text>
</g>
<!-- Report View -->
<g id="node7" class="node">
<title>Report View</title>
<polygon fill="lightblue" stroke="black" points="485.5,-37 222,-37 222,-1 485.5,-1 485.5,-37"/>
<text xml:space="preserve" text-anchor="middle" x="353.75" y="-10.95" font-family="Times,serif" font-size="14.00">Report View (Interactive Display)</text>
</g>
<!-- Client&#45;side App&#45;&gt;Report View -->
<g id="edge8" class="edge">
<title>Client&#45;side App&#45;&gt;Report View</title>
<path fill="none" stroke="black" d="M194.07,-90.61C225.68,-76.63 270.29,-56.91 304.32,-41.86"/>
<polygon fill="black" stroke="black" points="305.4,-45.21 313.13,-37.96 302.57,-38.81 305.4,-45.21"/>
<text xml:space="preserve" text-anchor="middle" x="286.47" y="-55.95" font-family="Times,serif" font-size="14.00">renders</text>
</g>
<!-- ZipReport&#45;&gt;Client&#45;side App -->
<g id="edge7" class="edge">
<title>ZipReport&#45;&gt;Client&#45;side App</title>
<path fill="none" stroke="black" d="M117.26,-37.44C122.55,-43.87 128.27,-51.39 132.75,-58.75 136.83,-65.44 140.59,-73.02 143.81,-80.19"/>
<polygon fill="black" stroke="black" points="140.51,-81.37 147.65,-89.2 146.95,-78.63 140.51,-81.37"/>
<text xml:space="preserve" text-anchor="middle" x="187.24" y="-55.95" font-family="Times,serif" font-size="14.00">provides data</text>
</g>
</g>
</svg>
