<?xml version="1.0" encoding="UTF-8" standalone="no"?>
<!DOCTYPE svg PUBLIC "-//W3C//DTD SVG 1.1//EN"
 "http://www.w3.org/Graphics/SVG/1.1/DTD/svg11.dtd">
<!-- Generated by graphviz version 2.44.1 (20201121.0304)
 -->
<!-- Title: G Pages: 1 -->
<svg width="548pt" height="457pt"
 viewBox="0.00 0.00 548.00 457.00" xmlns="http://www.w3.org/2000/svg" xmlns:xlink="http://www.w3.org/1999/xlink"><style>
  * {
    fill: transparent !important;
    stroke: rgb(30, 30, 30) !important;
    stroke-width: 1 !important;
  }
  polygon:not(.cluster *, .node *, .edge *, text) {
    stroke: transparent !important;
  }
  text {
    font-size: 10px !important;
    font-family: monospace !important;
    fill: rgb(30, 30, 30) !important;
    stroke: transparent !important;
    transform: translateY(-0.5em);
  }
</style>
<g id="graph0" class="graph" transform="scale(1 1) rotate(0) translate(4 452.5)">
<title>G</title>
<polygon fill="white" stroke="none" points="-4,4 -4,-452.5 543.84,-452.5 543.84,4 -4,4"/>
<!-- ClientAPI -->
<g id="node1" class="node">
<title>ClientAPI</title>
<polygon fill="lightblue" stroke="black" points="321.67,-449 193.17,-449 193.17,-413 321.67,-413 321.67,-449"/>
<text xml:space="preserve" text-anchor="middle" x="257.42" y="-422.95" font-family="Times,serif" font-size="14.00">Client&#45;Side API</text>
</g>
<!-- Connection -->
<g id="node2" class="node">
<title>Connection</title>
<polygon fill="lightblue" stroke="black" points="302.92,-366 211.92,-366 211.92,-330 302.92,-330 302.92,-366"/>
<text xml:space="preserve" text-anchor="middle" x="257.42" y="-339.95" font-family="Times,serif" font-size="14.00">Connection</text>
</g>
<!-- ClientAPI&#45;&gt;Connection -->
<g id="edge1" class="edge">
<title>ClientAPI&#45;&gt;Connection</title>
<path fill="none" stroke="black" d="M223.25,-412.52C212.83,-404.69 205.41,-394.74 210.92,-383.75 212.69,-380.22 215.01,-376.95 217.67,-373.96"/>
<polygon fill="black" stroke="black" points="219.89,-376.67 224.77,-367.26 215.09,-371.57 219.89,-376.67"/>
<text xml:space="preserve" text-anchor="middle" x="267.17" y="-380.95" font-family="Times,serif" font-size="14.00">Initiates calls</text>
</g>
<!-- Connection&#45;&gt;ClientAPI -->
<g id="edge7" class="edge">
<title>Connection&#45;&gt;ClientAPI</title>
<path fill="none" stroke="black" d="M303.23,-364.68C311.28,-369.53 318.61,-375.77 323.42,-383.75 328.68,-392.46 325.63,-399.95 318.56,-406.22"/>
<polygon fill="black" stroke="black" points="316.96,-403.07 310.76,-411.66 320.97,-408.81 316.96,-403.07"/>
<text xml:space="preserve" text-anchor="middle" x="393.57" y="-380.95" font-family="Times,serif" font-size="14.00">Resolves API calls</text>
</g>
<!-- ChannelOwner -->
<g id="node3" class="node">
<title>ChannelOwner</title>
<polygon fill="lightblue" stroke="black" points="381.67,-284 133.17,-284 133.17,-248 381.67,-248 381.67,-284"/>
<text xml:space="preserve" text-anchor="middle" x="257.42" y="-257.95" font-family="Times,serif" font-size="14.00">ChannelOwner (Object Lifecycle)</text>
</g>
<!-- Connection&#45;&gt;ChannelOwner -->
<g id="edge2" class="edge">
<title>Connection&#45;&gt;ChannelOwner</title>
<path fill="none" stroke="black" d="M257.42,-329.64C257.42,-319.68 257.42,-306.93 257.42,-295.54"/>
<polygon fill="black" stroke="black" points="260.92,-295.84 257.42,-285.84 253.92,-295.84 260.92,-295.84"/>
<text xml:space="preserve" text-anchor="middle" x="313.67" y="-298.95" font-family="Times,serif" font-size="14.00">Manages objects</text>
</g>
<!-- Serialization -->
<g id="node4" class="node">
<title>Serialization</title>
<polygon fill="lightblue" stroke="black" points="283.67,-201 35.17,-201 35.17,-165 283.67,-165 283.67,-201"/>
<text xml:space="preserve" text-anchor="middle" x="159.42" y="-174.95" font-family="Times,serif" font-size="14.00">Serialization / Deserialization</text>
</g>
<!-- ChannelOwner&#45;&gt;Serialization -->
<g id="edge3" class="edge">
<title>ChannelOwner&#45;&gt;Serialization</title>
<path fill="none" stroke="black" d="M218.81,-247.65C209.46,-242.48 199.88,-236.28 191.92,-229.25 185.89,-223.91 180.34,-217.26 175.6,-210.71"/>
<polygon fill="black" stroke="black" points="178.62,-208.93 170.11,-202.6 172.82,-212.85 178.62,-208.93"/>
<text xml:space="preserve" text-anchor="middle" x="278.17" y="-215.95" font-family="Times,serif" font-size="14.00">Sends/Receives messages</text>
</g>
<!-- ServerConnection -->
<g id="node5" class="node">
<title>ServerConnection</title>
<polygon fill="lightblue" stroke="black" points="280.42,-119 114.42,-119 114.42,-83 280.42,-83 280.42,-119"/>
<text xml:space="preserve" text-anchor="middle" x="197.42" y="-92.95" font-family="Times,serif" font-size="14.00">PlaywrightConnection</text>
</g>
<!-- Serialization&#45;&gt;ServerConnection -->
<g id="edge4" class="edge">
<title>Serialization&#45;&gt;ServerConnection</title>
<path fill="none" stroke="black" d="M167.67,-164.64C172.55,-154.37 178.84,-141.12 184.38,-129.46"/>
<polygon fill="black" stroke="black" points="187.42,-131.23 188.54,-120.69 181.09,-128.22 187.42,-131.23"/>
<text xml:space="preserve" text-anchor="middle" x="233.2" y="-133.95" font-family="Times,serif" font-size="14.00">Transmits data</text>
</g>
<!-- PlaywrightServer -->
<g id="node6" class="node">
<title>PlaywrightServer</title>
<polygon fill="lightblue" stroke="black" points="412.67,-36 164.17,-36 164.17,0 412.67,0 412.67,-36"/>
<text xml:space="preserve" text-anchor="middle" x="288.42" y="-9.95" font-family="Times,serif" font-size="14.00">Playwright Server (Dispatchers)</text>
</g>
<!-- ServerConnection&#45;&gt;PlaywrightServer -->
<g id="edge5" class="edge">
<title>ServerConnection&#45;&gt;PlaywrightServer</title>
<path fill="none" stroke="black" d="M213.97,-82.84C222.79,-73.93 233.95,-62.99 244.42,-53.75 248.41,-50.23 252.7,-46.63 256.98,-43.15"/>
<polygon fill="black" stroke="black" points="258.84,-46.14 264.47,-37.16 254.48,-40.67 258.84,-46.14"/>
<text xml:space="preserve" text-anchor="middle" x="304.42" y="-50.95" font-family="Times,serif" font-size="14.00">Handles requests</text>
</g>
<!-- PlaywrightServer&#45;&gt;ChannelOwner -->
<g id="edge6" class="edge">
<title>PlaywrightServer&#45;&gt;ChannelOwner</title>
<path fill="none" stroke="black" d="M345.96,-36.27C353.27,-40.82 359.8,-46.55 364.42,-53.75 406.58,-119.38 410.01,-165.96 364.42,-229.25 361.2,-233.73 357.38,-237.66 353.15,-241.1"/>
<polygon fill="black" stroke="black" points="351.38,-238.07 345.16,-246.65 355.37,-243.82 351.38,-238.07"/>
<text xml:space="preserve" text-anchor="middle" x="468.59" y="-133.95" font-family="Times,serif" font-size="14.00">Server&#45;side objects</text>
</g>
</g>
</svg>
