<?xml version="1.0" encoding="UTF-8" standalone="no"?>
<!DOCTYPE svg PUBLIC "-//W3C//DTD SVG 1.1//EN"
 "http://www.w3.org/Graphics/SVG/1.1/DTD/svg11.dtd">
<!-- Generated by graphviz version 2.44.1 (20201121.0304)
 -->
<!-- Title: G Pages: 1 -->
<svg width="535pt" height="391pt"
 viewBox="0.00 0.00 535.00 391.00" xmlns="http://www.w3.org/2000/svg" xmlns:xlink="http://www.w3.org/1999/xlink"><style>
  * {
    fill: transparent !important;
    stroke: rgb(30, 30, 30) !important;
    stroke-width: 1 !important;
  }
  polygon:not(.cluster *, .node *, .edge *, text) {
    stroke: transparent !important;
  }
  text {
    font-size: 10px !important;
    font-family: monospace !important;
    fill: rgb(30, 30, 30) !important;
    stroke: transparent !important;
    transform: translateY(-0.5em);
  }
</style>
<g id="graph0" class="graph" transform="scale(1 1) rotate(0) translate(4 386.75)">
<title>G</title>
<polygon fill="white" stroke="none" points="-4,4 -4,-386.75 530.77,-386.75 530.77,4 -4,4"/>
<!-- Node.js Test Runner -->
<g id="node1" class="node">
<title>Node.js Test Runner</title>
<polygon fill="lightblue" stroke="black" points="213,-296 32,-296 32,-260 213,-260 213,-296"/>
<text xml:space="preserve" text-anchor="middle" x="122.5" y="-275.2" font-family="Times,serif" font-size="14.00">Playwright Test Runner</text>
<text xml:space="preserve" text-anchor="middle" x="122.5" y="-264.7" font-family="Times,serif" font-size="14.00">(Node.js)</text>
</g>
<!-- Build Tools -->
<g id="node2" class="node">
<title>Build Tools</title>
<polygon fill="lightblue" stroke="black" points="345.25,-209 231.75,-209 231.75,-173 345.25,-173 345.25,-209"/>
<text xml:space="preserve" text-anchor="middle" x="288.5" y="-188.2" font-family="Times,serif" font-size="14.00">Vite &amp; Babel</text>
<text xml:space="preserve" text-anchor="middle" x="288.5" y="-177.7" font-family="Times,serif" font-size="14.00">(Build Tools)</text>
</g>
<!-- Node.js Test Runner&#45;&gt;Build Tools -->
<g id="edge1" class="edge">
<title>Node.js Test Runner&#45;&gt;Build Tools</title>
<path fill="none" stroke="black" d="M213.28,-266.81C232.41,-261.29 251.36,-252.91 266.5,-240.25 272.86,-234.93 277.47,-227.39 280.77,-219.84"/>
<polygon fill="black" stroke="black" points="284.05,-221.05 284.2,-210.46 277.48,-218.65 284.05,-221.05"/>
<text xml:space="preserve" text-anchor="middle" x="349.95" y="-226.95" font-family="Times,serif" font-size="14.00">Configures &amp; Invokes</text>
</g>
<!-- Component Fixtures -->
<g id="node3" class="node">
<title>Component Fixtures</title>
<polygon fill="lightblue" stroke="black" points="211,-37 0,-37 0,-1 211,-1 211,-37"/>
<text xml:space="preserve" text-anchor="middle" x="105.5" y="-16.2" font-family="Times,serif" font-size="14.00">Component Testing Fixtures</text>
<text xml:space="preserve" text-anchor="middle" x="105.5" y="-5.7" font-family="Times,serif" font-size="14.00">(mount, router)</text>
</g>
<!-- Node.js Test Runner&#45;&gt;Component Fixtures -->
<g id="edge2" class="edge">
<title>Node.js Test Runner&#45;&gt;Component Fixtures</title>
<path fill="none" stroke="black" d="M96.51,-259.51C67.79,-238.34 23.5,-199.7 7.5,-153.25 -7.46,-109.82 34.54,-68.64 68.16,-43.85"/>
<polygon fill="black" stroke="black" points="70,-46.83 76.13,-38.18 65.95,-41.13 70,-46.83"/>
<text xml:space="preserve" text-anchor="middle" x="37.5" y="-139.95" font-family="Times,serif" font-size="14.00">Provides</text>
</g>
<!-- Build Tools&#45;&gt;Node.js Test Runner -->
<g id="edge4" class="edge">
<title>Build Tools&#45;&gt;Node.js Test Runner</title>
<path fill="none" stroke="black" d="M231.68,-197.19C188.38,-202.46 133.91,-212.37 120,-229.75 115.79,-235.01 114.53,-241.75 114.77,-248.48"/>
<polygon fill="black" stroke="black" points="111.26,-248.62 116.11,-258.03 118.19,-247.64 111.26,-248.62"/>
<text xml:space="preserve" text-anchor="middle" x="191.25" y="-226.95" font-family="Times,serif" font-size="14.00">Provides Build Info</text>
</g>
<!-- Browser Environment -->
<g id="node4" class="node">
<title>Browser Environment</title>
<polygon fill="lightblue" stroke="black" points="382.75,-123 194.25,-123 194.25,-87 382.75,-87 382.75,-123"/>
<text xml:space="preserve" text-anchor="middle" x="288.5" y="-102.2" font-family="Times,serif" font-size="14.00">Browser Environment</text>
<text xml:space="preserve" text-anchor="middle" x="288.5" y="-91.7" font-family="Times,serif" font-size="14.00">(Page, Injected Script)</text>
</g>
<!-- Build Tools&#45;&gt;Browser Environment -->
<g id="edge3" class="edge">
<title>Build Tools&#45;&gt;Browser Environment</title>
<path fill="none" stroke="black" d="M288.5,-172.6C288.5,-161.67 288.5,-147.32 288.5,-134.73"/>
<polygon fill="black" stroke="black" points="292,-134.9 288.5,-124.9 285,-134.9 292,-134.9"/>
<text xml:space="preserve" text-anchor="middle" x="363.5" y="-139.95" font-family="Times,serif" font-size="14.00">Bundles &amp; Transforms</text>
</g>
<!-- Component Fixtures&#45;&gt;Node.js Test Runner -->
<g id="edge6" class="edge">
<title>Component Fixtures&#45;&gt;Node.js Test Runner</title>
<path fill="none" stroke="black" d="M104.44,-37.28C102.48,-74.61 99.51,-165.47 111.5,-240.25 111.95,-243.07 112.56,-245.98 113.26,-248.86"/>
<polygon fill="black" stroke="black" points="109.81,-249.5 115.87,-258.19 116.55,-247.62 109.81,-249.5"/>
<text xml:space="preserve" text-anchor="middle" x="178.45" y="-139.95" font-family="Times,serif" font-size="14.00">Extends Test Context</text>
</g>
<!-- Component Fixtures&#45;&gt;Browser Environment -->
<g id="edge5" class="edge">
<title>Component Fixtures&#45;&gt;Browser Environment</title>
<path fill="none" stroke="black" d="M211.41,-31.91C242.47,-37.55 270.95,-45.56 281.5,-56.75 286.24,-61.77 288.63,-68.53 289.71,-75.36"/>
<polygon fill="black" stroke="black" points="286.2,-75.37 290.36,-85.12 293.19,-74.91 286.2,-75.37"/>
<text xml:space="preserve" text-anchor="middle" x="354.89" y="-53.95" font-family="Times,serif" font-size="14.00">Interacts via Page</text>
</g>
<!-- Browser Environment&#45;&gt;Component Fixtures -->
<g id="edge7" class="edge">
<title>Browser Environment&#45;&gt;Component Fixtures</title>
<path fill="none" stroke="black" d="M193.86,-91.84C161.99,-85.99 131.57,-77.89 120,-67.25 114.6,-62.28 111.18,-55.35 109.04,-48.32"/>
<polygon fill="black" stroke="black" points="112.46,-47.6 106.87,-38.6 105.63,-49.12 112.46,-47.6"/>
<text xml:space="preserve" text-anchor="middle" x="198.75" y="-53.95" font-family="Times,serif" font-size="14.00">Executes &amp; Dispatches</text>
</g>
<!-- Framework Integrations -->
<g id="node5" class="node">
<title>Framework Integrations</title>
<polygon fill="lightblue" stroke="black" points="378,-382 197,-382 197,-346 378,-346 378,-382"/>
<text xml:space="preserve" text-anchor="middle" x="287.5" y="-361.2" font-family="Times,serif" font-size="14.00">Framework Integrations</text>
<text xml:space="preserve" text-anchor="middle" x="287.5" y="-350.7" font-family="Times,serif" font-size="14.00">(React, Vue)</text>
</g>
<!-- Framework Integrations&#45;&gt;Node.js Test Runner -->
<g id="edge8" class="edge">
<title>Framework Integrations&#45;&gt;Node.js Test Runner</title>
<path fill="none" stroke="black" d="M253.31,-345.6C228.2,-332.81 193.87,-315.33 166.68,-301.49"/>
<polygon fill="black" stroke="black" points="168.49,-298.49 157.99,-297.07 165.32,-304.73 168.49,-298.49"/>
<text xml:space="preserve" text-anchor="middle" x="289.88" y="-312.95" font-family="Times,serif" font-size="14.00">Extends defineConfig</text>
</g>
<!-- Framework Integrations&#45;&gt;Build Tools -->
<g id="edge9" class="edge">
<title>Framework Integrations&#45;&gt;Build Tools</title>
<path fill="none" stroke="black" d="M331.22,-345.68C384.84,-321.88 464.45,-276.67 428.5,-229.75 419.26,-217.69 387.62,-208.61 356.76,-202.38"/>
<polygon fill="black" stroke="black" points="357.43,-198.95 346.95,-200.5 356.11,-205.82 357.43,-198.95"/>
<text xml:space="preserve" text-anchor="middle" x="481.77" y="-269.95" font-family="Times,serif" font-size="14.00">Adds Plugins</text>
</g>
</g>
</svg>
