<?xml version="1.0" encoding="UTF-8" standalone="no"?>
<!DOCTYPE svg PUBLIC "-//W3C//DTD SVG 1.1//EN"
 "http://www.w3.org/Graphics/SVG/1.1/DTD/svg11.dtd">
<!-- Generated by graphviz version 2.44.1 (20201121.0304)
 -->
<!-- Title: G Pages: 1 -->
<svg width="549pt" height="539pt"
 viewBox="0.00 0.00 549.00 539.00" xmlns="http://www.w3.org/2000/svg" xmlns:xlink="http://www.w3.org/1999/xlink"><style>
  * {
    fill: transparent !important;
    stroke: rgb(30, 30, 30) !important;
    stroke-width: 1 !important;
  }
  polygon:not(.cluster *, .node *, .edge *, text) {
    stroke: transparent !important;
  }
  text {
    font-size: 10px !important;
    font-family: monospace !important;
    fill: rgb(30, 30, 30) !important;
    stroke: transparent !important;
    transform: translateY(-0.5em);
  }
</style>
<g id="graph0" class="graph" transform="scale(1 1) rotate(0) translate(4 535)">
<title>G</title>
<polygon fill="white" stroke="none" points="-4,4 -4,-535 545.2,-535 545.2,4 -4,4"/>
<!-- API Documentation -->
<g id="node1" class="node">
<title>API Documentation</title>
<polygon fill="lightblue" stroke="black" points="353.66,-531 210.16,-531 210.16,-495 353.66,-495 353.66,-531"/>
<text xml:space="preserve" text-anchor="middle" x="281.91" y="-510.2" font-family="Times,serif" font-size="14.00">API Documentation</text>
<text xml:space="preserve" text-anchor="middle" x="281.91" y="-499.7" font-family="Times,serif" font-size="14.00">(class&#45;xxx.md)</text>
</g>
<!-- Client API -->
<g id="node2" class="node">
<title>Client API</title>
<polygon fill="lightblue" stroke="black" points="172.16,-449 43.66,-449 43.66,-413 172.16,-413 172.16,-449"/>
<text xml:space="preserve" text-anchor="middle" x="107.91" y="-428.2" font-family="Times,serif" font-size="14.00">Client API</text>
<text xml:space="preserve" text-anchor="middle" x="107.91" y="-417.7" font-family="Times,serif" font-size="14.00">(client/xxx.ts)</text>
</g>
<!-- API Documentation&#45;&gt;Client API -->
<g id="edge1" class="edge">
<title>API Documentation&#45;&gt;Client API</title>
<path fill="none" stroke="black" d="M244.16,-494.64C218.36,-482.78 183.96,-466.97 156.18,-454.19"/>
<polygon fill="black" stroke="black" points="157.82,-451.09 147.27,-450.1 154.89,-457.45 157.82,-451.09"/>
<text xml:space="preserve" text-anchor="middle" x="295.33" y="-463.95" font-family="Times,serif" font-size="14.00">defines public interface</text>
</g>
<!-- Protocol Definition -->
<g id="node3" class="node">
<title>Protocol Definition</title>
<polygon fill="lightblue" stroke="black" points="407.16,-366 248.66,-366 248.66,-330 407.16,-330 407.16,-366"/>
<text xml:space="preserve" text-anchor="middle" x="327.91" y="-345.2" font-family="Times,serif" font-size="14.00">Protocol Definition</text>
<text xml:space="preserve" text-anchor="middle" x="327.91" y="-334.7" font-family="Times,serif" font-size="14.00">(protocol.yml)</text>
</g>
<!-- API Documentation&#45;&gt;Protocol Definition -->
<g id="edge2" class="edge">
<title>API Documentation&#45;&gt;Protocol Definition</title>
<path fill="none" stroke="black" d="M354.1,-502.12C367.72,-496.88 380.36,-489.02 388.91,-477.25 400.9,-460.75 478.96,-540.38 386.91,-383.75 384.74,-380.05 382,-376.7 378.9,-373.68"/>
<polygon fill="black" stroke="black" points="381.14,-370.99 371.18,-367.38 376.72,-376.41 381.14,-370.99"/>
<text xml:space="preserve" text-anchor="middle" x="481.2" y="-422.95" font-family="Times,serif" font-size="14.00">influences types</text>
</g>
<!-- Client API&#45;&gt;Protocol Definition -->
<g id="edge5" class="edge">
<title>Client API&#45;&gt;Protocol Definition</title>
<path fill="none" stroke="black" d="M172.4,-424.67C221.92,-419.43 285.24,-409.91 305.91,-394.25 311.85,-389.75 316.27,-383.22 319.53,-376.52"/>
<polygon fill="black" stroke="black" points="322.67,-378.1 323.18,-367.51 316.18,-375.47 322.67,-378.1"/>
<text xml:space="preserve" text-anchor="middle" x="348.79" y="-380.95" font-family="Times,serif" font-size="14.00">calls RPC</text>
</g>
<!-- Tests -->
<g id="node7" class="node">
<title>Tests</title>
<polygon fill="lightblue" stroke="black" points="146.91,-36 92.91,-36 92.91,0 146.91,0 146.91,-36"/>
<text xml:space="preserve" text-anchor="middle" x="119.91" y="-9.95" font-family="Times,serif" font-size="14.00">Tests</text>
</g>
<!-- Client API&#45;&gt;Tests -->
<g id="edge10" class="edge">
<title>Client API&#45;&gt;Tests</title>
<path fill="none" stroke="black" d="M82.22,-412.57C64.05,-397.97 42.91,-375.32 42.91,-349 42.91,-349 42.91,-349 42.91,-100 42.91,-74.49 63.22,-53.82 82.98,-39.74"/>
<polygon fill="black" stroke="black" points="84.91,-42.67 91.29,-34.21 81.02,-36.84 84.91,-42.67"/>
<text xml:space="preserve" text-anchor="middle" x="57.91" y="-215.95" font-family="Times,serif" font-size="14.00">uses</text>
</g>
<!-- Protocol Definition&#45;&gt;Client API -->
<g id="edge3" class="edge">
<title>Protocol Definition&#45;&gt;Client API</title>
<path fill="none" stroke="black" d="M248.3,-366.16C230,-371.03 210.81,-376.92 193.41,-383.75 177.2,-390.12 160.17,-398.87 145.61,-407.04"/>
<polygon fill="black" stroke="black" points="144.21,-403.81 137.28,-411.82 147.69,-409.88 144.21,-403.81"/>
<text xml:space="preserve" text-anchor="middle" x="249.66" y="-380.95" font-family="Times,serif" font-size="14.00">generates types</text>
</g>
<!-- Dispatcher -->
<g id="node4" class="node">
<title>Dispatcher</title>
<polygon fill="lightblue" stroke="black" points="448.41,-284 207.41,-284 207.41,-248 448.41,-248 448.41,-284"/>
<text xml:space="preserve" text-anchor="middle" x="327.91" y="-263.2" font-family="Times,serif" font-size="14.00">Dispatcher</text>
<text xml:space="preserve" text-anchor="middle" x="327.91" y="-252.7" font-family="Times,serif" font-size="14.00">(dispatchers/xxxDispatcher.ts)</text>
</g>
<!-- Protocol Definition&#45;&gt;Dispatcher -->
<g id="edge4" class="edge">
<title>Protocol Definition&#45;&gt;Dispatcher</title>
<path fill="none" stroke="black" d="M327.91,-329.64C327.91,-319.68 327.91,-306.93 327.91,-295.54"/>
<polygon fill="black" stroke="black" points="331.41,-295.84 327.91,-285.84 324.41,-295.84 331.41,-295.84"/>
<text xml:space="preserve" text-anchor="middle" x="387.91" y="-298.95" font-family="Times,serif" font-size="14.00">defines commands</text>
</g>
<!-- Server Logic -->
<g id="node5" class="node">
<title>Server Logic</title>
<polygon fill="lightblue" stroke="black" points="392.16,-201 263.66,-201 263.66,-165 392.16,-165 392.16,-201"/>
<text xml:space="preserve" text-anchor="middle" x="327.91" y="-180.2" font-family="Times,serif" font-size="14.00">Server Logic</text>
<text xml:space="preserve" text-anchor="middle" x="327.91" y="-169.7" font-family="Times,serif" font-size="14.00">(server/xxx.ts)</text>
</g>
<!-- Dispatcher&#45;&gt;Server Logic -->
<g id="edge6" class="edge">
<title>Dispatcher&#45;&gt;Server Logic</title>
<path fill="none" stroke="black" d="M327.91,-247.82C327.91,-237.69 327.91,-224.6 327.91,-212.92"/>
<polygon fill="black" stroke="black" points="331.41,-212.95 327.91,-202.95 324.41,-212.95 331.41,-212.95"/>
<text xml:space="preserve" text-anchor="middle" x="372.91" y="-215.95" font-family="Times,serif" font-size="14.00">routes calls</text>
</g>
<!-- Browser&#45;Specific Implementation -->
<g id="node6" class="node">
<title>Browser&#45;Specific Implementation</title>
<polygon fill="lightblue" stroke="black" points="472.91,-119 336.91,-119 336.91,-83 472.91,-83 472.91,-119"/>
<text xml:space="preserve" text-anchor="middle" x="404.91" y="-98.2" font-family="Times,serif" font-size="14.00">Browser&#45;Specific</text>
<text xml:space="preserve" text-anchor="middle" x="404.91" y="-87.7" font-family="Times,serif" font-size="14.00">Implementation</text>
</g>
<!-- Server Logic&#45;&gt;Browser&#45;Specific Implementation -->
<g id="edge7" class="edge">
<title>Server Logic&#45;&gt;Browser&#45;Specific Implementation</title>
<path fill="none" stroke="black" d="M344.62,-164.64C355.11,-153.74 368.83,-139.49 380.52,-127.34"/>
<polygon fill="black" stroke="black" points="382.77,-130.05 387.19,-120.42 377.73,-125.19 382.77,-130.05"/>
<text xml:space="preserve" text-anchor="middle" x="416.02" y="-133.95" font-family="Times,serif" font-size="14.00">delegates to</text>
</g>
<!-- Server Logic&#45;&gt;Tests -->
<g id="edge8" class="edge">
<title>Server Logic&#45;&gt;Tests</title>
<path fill="none" stroke="black" d="M305.05,-164.74C288.44,-152.15 265.45,-134.63 245.41,-119 212.74,-93.51 175.67,-63.89 150.34,-43.53"/>
<polygon fill="black" stroke="black" points="152.73,-40.97 142.75,-37.43 148.35,-46.42 152.73,-40.97"/>
<text xml:space="preserve" text-anchor="middle" x="286.66" y="-92.95" font-family="Times,serif" font-size="14.00">verified by</text>
</g>
<!-- Browser&#45;Specific Implementation&#45;&gt;Tests -->
<g id="edge9" class="edge">
<title>Browser&#45;Specific Implementation&#45;&gt;Tests</title>
<path fill="none" stroke="black" d="M343.42,-82.52C287.18,-66.54 205.74,-43.39 158.27,-29.9"/>
<polygon fill="black" stroke="black" points="159.28,-26.55 148.71,-27.18 157.37,-33.28 159.28,-26.55"/>
<text xml:space="preserve" text-anchor="middle" x="312.21" y="-50.95" font-family="Times,serif" font-size="14.00">verified by</text>
</g>
</g>
</svg>
