<?xml version="1.0" encoding="UTF-8" standalone="no"?>
<!DOCTYPE svg PUBLIC "-//W3C//DTD SVG 1.1//EN"
 "http://www.w3.org/Graphics/SVG/1.1/DTD/svg11.dtd">
<!-- Generated by graphviz version 2.44.1 (20201121.0304)
 -->
<!-- Title: G Pages: 1 -->
<svg width="636pt" height="636pt"
 viewBox="0.00 0.00 636.00 636.00" xmlns="http://www.w3.org/2000/svg" xmlns:xlink="http://www.w3.org/1999/xlink"><style>
  * {
    fill: transparent !important;
    stroke: rgb(30, 30, 30) !important;
    stroke-width: 1 !important;
  }
  polygon:not(.cluster *, .node *, .edge *, text) {
    stroke: transparent !important;
  }
  text {
    font-size: 10px !important;
    font-family: monospace !important;
    fill: rgb(30, 30, 30) !important;
    stroke: transparent !important;
    transform: translateY(-0.5em);
  }
</style>
<g id="graph0" class="graph" transform="scale(1 1) rotate(0) translate(4 632)">
<title>G</title>
<polygon fill="white" stroke="none" points="-4,4 -4,-632 632,-632 632,4 -4,4"/>
<!-- TestRunner -->
<g id="node1" class="node">
<title>TestRunner</title>
<polygon fill="lightblue" stroke="black" points="378.75,-601 250.25,-601 250.25,-565 378.75,-565 378.75,-601"/>
<text xml:space="preserve" text-anchor="middle" x="314.5" y="-580.2" font-family="Times,serif" font-size="14.00">TestRunner</text>
<text xml:space="preserve" text-anchor="middle" x="314.5" y="-569.7" font-family="Times,serif" font-size="14.00">(testRunner.ts)</text>
</g>
<!-- TestServerDispatcher -->
<g id="node2" class="node">
<title>TestServerDispatcher</title>
<polygon fill="lightblue" stroke="black" points="277.5,-422 111.5,-422 111.5,-386 277.5,-386 277.5,-422"/>
<text xml:space="preserve" text-anchor="middle" x="194.5" y="-401.2" font-family="Times,serif" font-size="14.00">TestServerDispatcher</text>
<text xml:space="preserve" text-anchor="middle" x="194.5" y="-390.7" font-family="Times,serif" font-size="14.00">(testServer.ts)</text>
</g>
<!-- TestRunner&#45;&gt;TestServerDispatcher -->
<g id="edge1" class="edge">
<title>TestRunner&#45;&gt;TestServerDispatcher</title>
<path fill="none" stroke="black" d="M302.78,-564.71C281.72,-533.64 237.36,-468.22 212.45,-431.48"/>
<polygon fill="black" stroke="black" points="215.63,-429.93 207.12,-423.62 209.84,-433.86 215.63,-429.93"/>
</g>
<!-- WatchMode -->
<g id="node3" class="node">
<title>WatchMode</title>
<polygon fill="lightblue" stroke="black" points="170,-242 49,-242 49,-206 170,-206 170,-242"/>
<text xml:space="preserve" text-anchor="middle" x="109.5" y="-221.2" font-family="Times,serif" font-size="14.00">WatchMode</text>
<text xml:space="preserve" text-anchor="middle" x="109.5" y="-210.7" font-family="Times,serif" font-size="14.00">(watchMode.ts)</text>
</g>
<!-- TestRunner&#45;&gt;WatchMode -->
<g id="edge2" class="edge">
<title>TestRunner&#45;&gt;WatchMode</title>
<path fill="none" stroke="black" d="M272.43,-564.56C221.41,-540.81 137.86,-492.99 102.5,-422 75.34,-367.47 89.33,-293.52 100.38,-253.53"/>
<polygon fill="black" stroke="black" points="103.74,-254.53 103.17,-243.95 97.02,-252.57 103.74,-254.53"/>
</g>
<!-- FSWatcher -->
<g id="node4" class="node">
<title>FSWatcher</title>
<polygon fill="lightblue" stroke="black" points="121,-63 0,-63 0,-27 121,-27 121,-63"/>
<text xml:space="preserve" text-anchor="middle" x="60.5" y="-42.2" font-family="Times,serif" font-size="14.00">FSWatcher</text>
<text xml:space="preserve" text-anchor="middle" x="60.5" y="-31.7" font-family="Times,serif" font-size="14.00">(fsWatcher.ts)</text>
</g>
<!-- TestRunner&#45;&gt;FSWatcher -->
<g id="edge3" class="edge">
<title>TestRunner&#45;&gt;FSWatcher</title>
<path fill="none" stroke="black" d="M267.85,-564.58C213.47,-540.27 125.33,-491.23 77.5,-422 2.24,-313.06 29.71,-141.42 48.98,-74.27"/>
<polygon fill="black" stroke="black" points="52.3,-75.37 51.89,-64.78 45.61,-73.31 52.3,-75.37"/>
</g>
<!-- SigIntWatcher -->
<g id="node5" class="node">
<title>SigIntWatcher</title>
<polygon fill="lightblue" stroke="black" points="339,-242 188,-242 188,-206 339,-206 339,-242"/>
<text xml:space="preserve" text-anchor="middle" x="263.5" y="-221.2" font-family="Times,serif" font-size="14.00">SigIntWatcher</text>
<text xml:space="preserve" text-anchor="middle" x="263.5" y="-210.7" font-family="Times,serif" font-size="14.00">(sigIntWatcher.ts)</text>
</g>
<!-- TestRunner&#45;&gt;SigIntWatcher -->
<g id="edge4" class="edge">
<title>TestRunner&#45;&gt;SigIntWatcher</title>
<path fill="none" stroke="black" d="M308.93,-564.78C296.2,-507.77 269.8,-324.75 263.71,-253.64"/>
<polygon fill="black" stroke="black" points="267.23,-253.68 262.98,-243.97 260.25,-254.21 267.23,-253.68"/>
</g>
<!-- Rebaselining_VCS -->
<g id="node6" class="node">
<title>Rebaselining_VCS</title>
<polygon fill="lightblue" stroke="black" points="565.75,-422 407.25,-422 407.25,-386 565.75,-386 565.75,-422"/>
<text xml:space="preserve" text-anchor="middle" x="486.5" y="-401.2" font-family="Times,serif" font-size="14.00">Rebaselining &amp; VCS</text>
<text xml:space="preserve" text-anchor="middle" x="486.5" y="-390.7" font-family="Times,serif" font-size="14.00">(rebase.ts, vcs.ts)</text>
</g>
<!-- TestRunner&#45;&gt;Rebaselining_VCS -->
<g id="edge5" class="edge">
<title>TestRunner&#45;&gt;Rebaselining_VCS</title>
<path fill="none" stroke="black" d="M327.09,-564.71C354.52,-533.25 419.11,-466.55 457.24,-430.09"/>
<polygon fill="black" stroke="black" points="459.45,-432.82 464.31,-423.4 454.64,-427.73 459.45,-432.82"/>
</g>
<!-- Reporters -->
<g id="node7" class="node">
<title>Reporters</title>
<polygon fill="lightblue" stroke="black" points="628,-242 357,-242 357,-206 628,-206 628,-242"/>
<text xml:space="preserve" text-anchor="middle" x="492.5" y="-221.2" font-family="Times,serif" font-size="14.00">Reporters</text>
<text xml:space="preserve" text-anchor="middle" x="492.5" y="-210.7" font-family="Times,serif" font-size="14.00">(uiModeReporter.ts, taskRunner.ts)</text>
</g>
<!-- TestRunner&#45;&gt;Reporters -->
<g id="edge6" class="edge">
<title>TestRunner&#45;&gt;Reporters</title>
<path fill="none" stroke="black" d="M316.05,-564.63C325.45,-530.04 357.1,-450.31 389.5,-386 414.05,-337.28 447.02,-282.91 469.25,-251.46"/>
<polygon fill="black" stroke="black" points="471.85,-253.84 474.9,-243.69 466.19,-249.73 471.85,-253.84"/>
</g>
<!-- TestServerDispatcher&#45;&gt;WatchMode -->
<g id="edge7" class="edge">
<title>TestServerDispatcher&#45;&gt;WatchMode</title>
<path fill="none" stroke="black" d="M181.98,-385.61C164.19,-354.77 133.1,-290.26 117.82,-253.06"/>
<polygon fill="black" stroke="black" points="121.12,-251.88 114.18,-243.87 114.61,-254.46 121.12,-251.88"/>
</g>
<!-- TestServerDispatcher&#45;&gt;SigIntWatcher -->
<g id="edge8" class="edge">
<title>TestServerDispatcher&#45;&gt;SigIntWatcher</title>
<path fill="none" stroke="black" d="M197.03,-385.61C205.96,-354.64 230.85,-289.7 247.76,-252.58"/>
<polygon fill="black" stroke="black" points="250.79,-254.37 251.87,-243.83 244.45,-251.4 250.79,-254.37"/>
</g>
<!-- TestServerDispatcher&#45;&gt;Reporters -->
<g id="edge9" class="edge">
<title>TestServerDispatcher&#45;&gt;Reporters</title>
<path fill="none" stroke="black" d="M223.62,-385.61C277.58,-353.37 393.14,-284.35 453.69,-248.18"/>
<polygon fill="black" stroke="black" points="455.18,-251.37 461.97,-243.24 451.59,-245.36 455.18,-251.37"/>
</g>
<!-- WatchMode&#45;&gt;TestServerDispatcher -->
<g id="edge11" class="edge">
<title>WatchMode&#45;&gt;TestServerDispatcher</title>
<path fill="none" stroke="black" d="M122.06,-242.46C139.87,-273.35 170.96,-337.87 186.21,-375.02"/>
<polygon fill="black" stroke="black" points="182.91,-376.19 189.85,-384.2 189.42,-373.62 182.91,-376.19"/>
</g>
<!-- WatchMode&#45;&gt;FSWatcher -->
<g id="edge10" class="edge">
<title>WatchMode&#45;&gt;FSWatcher</title>
<path fill="none" stroke="black" d="M100.5,-205.71C89,-175.17 71.05,-111.44 63.25,-74.38"/>
<polygon fill="black" stroke="black" points="66.74,-73.99 61.38,-64.85 59.87,-75.34 66.74,-73.99"/>
</g>
<!-- FSWatcher&#45;&gt;TestRunner -->
<g id="edge16" class="edge">
<title>FSWatcher&#45;&gt;TestRunner</title>
<path fill="none" stroke="black" d="M59.74,-63.34C51.38,-120.58 15.72,-306.52 95.5,-422 140.15,-486.63 219.94,-533.66 270,-559.41"/>
<polygon fill="black" stroke="black" points="268.35,-562.5 278.85,-563.89 271.51,-556.25 268.35,-562.5"/>
</g>
<!-- FSWatcher&#45;&gt;WatchMode -->
<g id="edge15" class="edge">
<title>FSWatcher&#45;&gt;WatchMode</title>
<path fill="none" stroke="black" d="M69.53,-63.36C81.04,-93.95 98.98,-157.68 106.77,-194.7"/>
<polygon fill="black" stroke="black" points="103.28,-195.08 108.63,-204.22 110.15,-193.73 103.28,-195.08"/>
</g>
<!-- SigIntWatcher&#45;&gt;TestRunner -->
<g id="edge13" class="edge">
<title>SigIntWatcher&#45;&gt;TestRunner</title>
<path fill="none" stroke="black" d="M269.12,-242.46C281.89,-299.84 308.28,-482.87 314.31,-553.67"/>
<polygon fill="black" stroke="black" points="310.8,-553.56 315.04,-563.27 317.78,-553.04 310.8,-553.56"/>
</g>
<!-- SigIntWatcher&#45;&gt;TestServerDispatcher -->
<g id="edge14" class="edge">
<title>SigIntWatcher&#45;&gt;TestServerDispatcher</title>
<path fill="none" stroke="black" d="M260.95,-242.46C252,-273.49 227.1,-338.43 210.2,-375.5"/>
<polygon fill="black" stroke="black" points="207.18,-373.7 206.1,-384.24 213.52,-376.68 207.18,-373.7"/>
</g>
<!-- Rebaselining_VCS&#45;&gt;TestRunner -->
<g id="edge12" class="edge">
<title>Rebaselining_VCS&#45;&gt;TestRunner</title>
<path fill="none" stroke="black" d="M473.84,-422.36C446.36,-453.88 381.77,-520.58 343.68,-556.99"/>
<polygon fill="black" stroke="black" points="341.48,-554.25 336.62,-563.67 346.29,-559.34 341.48,-554.25"/>
</g>
<!-- Reporters&#45;&gt;TestRunner -->
<g id="edge17" class="edge">
<title>Reporters&#45;&gt;TestRunner</title>
<path fill="none" stroke="black" d="M486.88,-242.47C471.93,-271.61 434.59,-332.24 407.5,-386 377.89,-444.78 348.89,-516.45 330.92,-554.75"/>
<polygon fill="black" stroke="black" points="328.01,-552.74 326.82,-563.27 334.31,-555.78 328.01,-552.74"/>
</g>
</g>
</svg>
