<?xml version="1.0" encoding="UTF-8" standalone="no"?>
<!DOCTYPE svg PUBLIC "-//W3C//DTD SVG 1.1//EN"
 "http://www.w3.org/Graphics/SVG/1.1/DTD/svg11.dtd">
<!-- Generated by graphviz version 2.44.1 (20201121.0304)
 -->
<!-- Title: G Pages: 1 -->
<svg width="569pt" height="539pt"
 viewBox="0.00 0.00 569.00 539.00" xmlns="http://www.w3.org/2000/svg" xmlns:xlink="http://www.w3.org/1999/xlink"><style>
  * {
    fill: transparent !important;
    stroke: rgb(30, 30, 30) !important;
    stroke-width: 1 !important;
  }
  polygon:not(.cluster *, .node *, .edge *, text) {
    stroke: transparent !important;
  }
  text {
    font-size: 10px !important;
    font-family: monospace !important;
    fill: rgb(30, 30, 30) !important;
    stroke: transparent !important;
    transform: translateY(-0.5em);
  }
</style>
<g id="graph0" class="graph" transform="scale(1 1) rotate(0) translate(4 535)">
<title>G</title>
<polygon fill="white" stroke="none" points="-4,4 -4,-535 564.74,-535 564.74,4 -4,4"/>
<!-- Playwright Client (e.g., IDE Extension) -->
<g id="node1" class="node">
<title>Playwright Client (e.g., IDE Extension)</title>
<polygon fill="lightblue" stroke="black" points="496.49,-531 322.99,-531 322.99,-495 496.49,-495 496.49,-531"/>
<text xml:space="preserve" text-anchor="middle" x="409.74" y="-510.2" font-family="Times,serif" font-size="14.00">Playwright Client</text>
<text xml:space="preserve" text-anchor="middle" x="409.74" y="-499.7" font-family="Times,serif" font-size="14.00">(e.g., IDE Extension)</text>
</g>
<!-- Test Server Connection -->
<g id="node2" class="node">
<title>Test Server Connection</title>
<polygon fill="lightblue" stroke="black" points="419.49,-449 215.99,-449 215.99,-413 419.49,-413 419.49,-449"/>
<text xml:space="preserve" text-anchor="middle" x="317.74" y="-428.2" font-family="Times,serif" font-size="14.00">Test Server Connection</text>
<text xml:space="preserve" text-anchor="middle" x="317.74" y="-417.7" font-family="Times,serif" font-size="14.00">(testServerConnection.ts)</text>
</g>
<!-- Playwright Client (e.g., IDE Extension)&#45;&gt;Test Server Connection -->
<g id="edge1" class="edge">
<title>Playwright Client (e.g., IDE Extension)&#45;&gt;Test Server Connection</title>
<path fill="none" stroke="black" d="M389.77,-494.64C376.99,-483.53 360.22,-468.94 346.07,-456.64"/>
<polygon fill="black" stroke="black" points="348.64,-454.24 338.8,-450.32 344.05,-459.52 348.64,-454.24"/>
<text xml:space="preserve" text-anchor="middle" x="421.74" y="-463.95" font-family="Times,serif" font-size="14.00">Sends Commands</text>
</g>
<!-- Test Server Interface -->
<g id="node3" class="node">
<title>Test Server Interface</title>
<polygon fill="lightblue" stroke="black" points="237.74,-366 41.74,-366 41.74,-330 237.74,-330 237.74,-366"/>
<text xml:space="preserve" text-anchor="middle" x="139.74" y="-345.2" font-family="Times,serif" font-size="14.00">Test Server Interface</text>
<text xml:space="preserve" text-anchor="middle" x="139.74" y="-334.7" font-family="Times,serif" font-size="14.00">(testServerInterface.ts)</text>
</g>
<!-- Test Server Connection&#45;&gt;Test Server Interface -->
<g id="edge2" class="edge">
<title>Test Server Connection&#45;&gt;Test Server Interface</title>
<path fill="none" stroke="black" d="M274.2,-412.53C260.53,-406.87 245.43,-400.46 231.74,-394.25 216.06,-387.15 199.1,-378.95 184.07,-371.51"/>
<polygon fill="black" stroke="black" points="185.87,-368.5 175.36,-367.17 182.75,-374.76 185.87,-368.5"/>
<text xml:space="preserve" text-anchor="middle" x="269.24" y="-380.95" font-family="Times,serif" font-size="14.00">Implements</text>
</g>
<!-- Event Emitters/Listeners -->
<g id="node6" class="node">
<title>Event Emitters/Listeners</title>
<polygon fill="lightblue" stroke="black" points="418.74,-36 222.74,-36 222.74,0 418.74,0 418.74,-36"/>
<text xml:space="preserve" text-anchor="middle" x="320.74" y="-15.2" font-family="Times,serif" font-size="14.00">Event Emitters/Listeners</text>
<text xml:space="preserve" text-anchor="middle" x="320.74" y="-4.7" font-family="Times,serif" font-size="14.00">(events.ts)</text>
</g>
<!-- Test Server Connection&#45;&gt;Event Emitters/Listeners -->
<g id="edge5" class="edge">
<title>Test Server Connection&#45;&gt;Event Emitters/Listeners</title>
<path fill="none" stroke="black" d="M318.75,-412.63C319.62,-396.23 320.74,-370.95 320.74,-349 320.74,-349 320.74,-349 320.74,-100 320.74,-82.69 320.74,-63.3 320.74,-47.83"/>
<polygon fill="black" stroke="black" points="324.24,-47.89 320.74,-37.89 317.24,-47.89 324.24,-47.89"/>
<text xml:space="preserve" text-anchor="middle" x="376.99" y="-215.95" font-family="Times,serif" font-size="14.00">Uses for Events</text>
</g>
<!-- Test Server -->
<g id="node4" class="node">
<title>Test Server</title>
<polygon fill="lightblue" stroke="black" points="163.99,-284 65.49,-284 65.49,-248 163.99,-248 163.99,-284"/>
<text xml:space="preserve" text-anchor="middle" x="114.74" y="-257.95" font-family="Times,serif" font-size="14.00">Test Server</text>
</g>
<!-- Test Server Interface&#45;&gt;Test Server -->
<g id="edge3" class="edge">
<title>Test Server Interface&#45;&gt;Test Server</title>
<path fill="none" stroke="black" d="M134.31,-329.64C131.17,-319.58 127.13,-306.66 123.54,-295.18"/>
<polygon fill="black" stroke="black" points="126.92,-294.27 120.6,-285.77 120.24,-296.36 126.92,-294.27"/>
<text xml:space="preserve" text-anchor="middle" x="162.48" y="-298.95" font-family="Times,serif" font-size="14.00">Processes</text>
</g>
<!-- TeleReporter Receiver -->
<g id="node5" class="node">
<title>TeleReporter Receiver</title>
<polygon fill="lightblue" stroke="black" points="208.49,-201 34.99,-201 34.99,-165 208.49,-165 208.49,-201"/>
<text xml:space="preserve" text-anchor="middle" x="121.74" y="-180.2" font-family="Times,serif" font-size="14.00">TeleReporter Receiver</text>
<text xml:space="preserve" text-anchor="middle" x="121.74" y="-169.7" font-family="Times,serif" font-size="14.00">(teleReceiver.ts)</text>
</g>
<!-- Test Server&#45;&gt;TeleReporter Receiver -->
<g id="edge4" class="edge">
<title>Test Server&#45;&gt;TeleReporter Receiver</title>
<path fill="none" stroke="black" d="M116.22,-247.82C117.1,-237.58 118.25,-224.33 119.27,-212.55"/>
<polygon fill="black" stroke="black" points="122.72,-213.2 120.1,-202.94 115.75,-212.6 122.72,-213.2"/>
<text xml:space="preserve" text-anchor="middle" x="182.4" y="-215.95" font-family="Times,serif" font-size="14.00">Dispatches Events</text>
</g>
<!-- TeleSuite Updater -->
<g id="node7" class="node">
<title>TeleSuite Updater</title>
<polygon fill="lightblue" stroke="black" points="240.49,-119 66.99,-119 66.99,-83 240.49,-83 240.49,-119"/>
<text xml:space="preserve" text-anchor="middle" x="153.74" y="-98.2" font-family="Times,serif" font-size="14.00">TeleSuite Updater</text>
<text xml:space="preserve" text-anchor="middle" x="153.74" y="-87.7" font-family="Times,serif" font-size="14.00">(teleSuiteUpdater.ts)</text>
</g>
<!-- TeleReporter Receiver&#45;&gt;TeleSuite Updater -->
<g id="edge7" class="edge">
<title>TeleReporter Receiver&#45;&gt;TeleSuite Updater</title>
<path fill="none" stroke="black" d="M128.68,-164.64C132.75,-154.47 137.98,-141.39 142.61,-129.82"/>
<polygon fill="black" stroke="black" points="145.78,-131.31 146.24,-120.73 139.28,-128.72 145.78,-131.31"/>
<text xml:space="preserve" text-anchor="middle" x="188.4" y="-133.95" font-family="Times,serif" font-size="14.00">Updates Model</text>
</g>
<!-- Event Emitters/Listeners&#45;&gt;Playwright Client (e.g., IDE Extension) -->
<g id="edge6" class="edge">
<title>Event Emitters/Listeners&#45;&gt;Playwright Client (e.g., IDE Extension)</title>
<path fill="none" stroke="black" d="M419.16,-28.47C461.18,-38.51 500.74,-58.88 500.74,-100 500.74,-432 500.74,-432 500.74,-432 500.74,-454.36 494.44,-461.33 478.74,-477.25 474.5,-481.55 469.62,-485.41 464.45,-488.85"/>
<polygon fill="black" stroke="black" points="462.97,-485.66 456.22,-493.82 466.59,-491.65 462.97,-485.66"/>
<text xml:space="preserve" text-anchor="middle" x="530.74" y="-257.95" font-family="Times,serif" font-size="14.00">Notifies</text>
</g>
<!-- TeleSuite Updater&#45;&gt;Event Emitters/Listeners -->
<g id="edge8" class="edge">
<title>TeleSuite Updater&#45;&gt;Event Emitters/Listeners</title>
<path fill="none" stroke="black" d="M177.05,-82.71C190.4,-73.32 207.73,-61.99 224.24,-53.75 233.81,-48.97 244.21,-44.52 254.52,-40.5"/>
<polygon fill="black" stroke="black" points="255.65,-43.82 263.78,-37.01 253.19,-37.26 255.65,-43.82"/>
<text xml:space="preserve" text-anchor="middle" x="265.49" y="-50.95" font-family="Times,serif" font-size="14.00">Notifies UI</text>
</g>
</g>
</svg>
