<?xml version="1.0" encoding="UTF-8" standalone="no"?>
<!DOCTYPE svg PUBLIC "-//W3C//DTD SVG 1.1//EN"
 "http://www.w3.org/Graphics/SVG/1.1/DTD/svg11.dtd">
<!-- Generated by graphviz version 2.44.1 (20201121.0304)
 -->
<!-- Title: G Pages: 1 -->
<svg width="879pt" height="879pt"
 viewBox="0.00 0.00 879.00 879.00" xmlns="http://www.w3.org/2000/svg" xmlns:xlink="http://www.w3.org/1999/xlink"><style>
  * {
    fill: transparent !important;
    stroke: rgb(30, 30, 30) !important;
    stroke-width: 1 !important;
  }
  polygon:not(.cluster *, .node *, .edge *, text) {
    stroke: transparent !important;
  }
  text {
    font-size: 10px !important;
    font-family: monospace !important;
    fill: rgb(30, 30, 30) !important;
    stroke: transparent !important;
    transform: translateY(-0.5em);
  }
</style>
<g id="graph0" class="graph" transform="scale(1 1) rotate(0) translate(4 875)">
<title>G</title>
<polygon fill="white" stroke="none" points="-4,4 -4,-875 875,-875 875,4 -4,4"/>
<g id="clust1" class="cluster">
<title>cluster_0</title>
<polygon fill="none" stroke="black" points="8,-38.82 8,-832.18 198,-832.18 198,-38.82 8,-38.82"/>
<text xml:space="preserve" text-anchor="middle" x="103" y="-814.88" font-family="Times,serif" font-size="14.00">Playwright Launcher</text>
</g>
<g id="clust2" class="cluster">
<title>cluster_1</title>
<polygon fill="none" stroke="black" points="644,-38.82 644,-832.18 863,-832.18 863,-38.82 644,-38.82"/>
<text xml:space="preserve" text-anchor="middle" x="753.5" y="-814.88" font-family="Times,serif" font-size="14.00">Electron App (Main Process)</text>
</g>
<!-- Electron.launch() -->
<g id="node1" class="node">
<title>Electron.launch()</title>
<polygon fill="lightblue" stroke="black" points="189.75,-633.82 16.25,-633.82 16.25,-597.82 189.75,-597.82 189.75,-633.82"/>
<text xml:space="preserve" text-anchor="middle" x="103" y="-613.02" font-family="Times,serif" font-size="14.00">Electron.launch()</text>
<text xml:space="preserve" text-anchor="middle" x="103" y="-602.52" font-family="Times,serif" font-size="14.00">(playwright&#45;electron)</text>
</g>
<!-- childProcess -->
<g id="node2" class="node">
<title>childProcess</title>
<polygon fill="lightblue" stroke="black" points="163.5,-182.82 42.5,-182.82 42.5,-146.82 163.5,-146.82 163.5,-182.82"/>
<text xml:space="preserve" text-anchor="middle" x="103" y="-162.02" font-family="Times,serif" font-size="14.00">Child Process</text>
<text xml:space="preserve" text-anchor="middle" x="103" y="-151.52" font-family="Times,serif" font-size="14.00">(Electron App)</text>
</g>
<!-- Electron.launch()&#45;&gt;childProcess -->
<g id="edge1" class="edge">
<title>Electron.launch()&#45;&gt;childProcess</title>
<path fill="none" stroke="black" d="M95.47,-597.55C80.35,-561.78 46.71,-476.66 35,-401.32 22.99,-324.01 63.3,-236.29 86.97,-192.98"/>
<polygon fill="black" stroke="black" points="89.88,-194.95 91.71,-184.52 83.77,-191.53 89.88,-194.95"/>
<text xml:space="preserve" text-anchor="middle" x="65" y="-382.77" font-family="Times,serif" font-size="14.00">Launches</text>
</g>
<!-- ElectronApplication -->
<g id="node5" class="node">
<title>ElectronApplication</title>
<polygon fill="lightblue" stroke="black" points="499.25,-182.82 340.75,-182.82 340.75,-146.82 499.25,-146.82 499.25,-182.82"/>
<text xml:space="preserve" text-anchor="middle" x="420" y="-162.02" font-family="Times,serif" font-size="14.00">ElectronApplication</text>
<text xml:space="preserve" text-anchor="middle" x="420" y="-151.52" font-family="Times,serif" font-size="14.00">(Playwright API)</text>
</g>
<!-- Electron.launch()&#45;&gt;ElectronApplication -->
<g id="edge5" class="edge">
<title>Electron.launch()&#45;&gt;ElectronApplication</title>
<path fill="none" stroke="black" d="M99.36,-597.53C91.73,-556.69 77.88,-452.3 118,-380.32 172.43,-282.68 292.18,-218.74 363.45,-187.75"/>
<polygon fill="black" stroke="black" points="364.81,-190.98 372.64,-183.83 362.07,-184.54 364.81,-190.98"/>
<text xml:space="preserve" text-anchor="middle" x="148" y="-382.77" font-family="Times,serif" font-size="14.00">Controls</text>
</g>
<!-- loader.ts -->
<g id="node3" class="node">
<title>loader.ts</title>
<polygon fill="lightblue" stroke="black" points="788,-633.82 652,-633.82 652,-597.82 788,-597.82 788,-633.82"/>
<text xml:space="preserve" text-anchor="middle" x="720" y="-613.02" font-family="Times,serif" font-size="14.00">loader.ts</text>
<text xml:space="preserve" text-anchor="middle" x="720" y="-602.52" font-family="Times,serif" font-size="14.00">(Initialization)</text>
</g>
<!-- childProcess&#45;&gt;loader.ts -->
<g id="edge2" class="edge">
<title>childProcess&#45;&gt;loader.ts</title>
<path fill="none" stroke="black" d="M105.56,-183.13C112.77,-225.88 136.99,-337.57 201,-401.32 324.47,-524.29 528.75,-579.65 640.66,-601.84"/>
<polygon fill="black" stroke="black" points="639.88,-605.26 650.36,-603.72 641.21,-598.38 639.88,-605.26"/>
<text xml:space="preserve" text-anchor="middle" x="268.5" y="-382.77" font-family="Times,serif" font-size="14.00">Executes with &#39;&#45;r&#39;</text>
</g>
<!-- Electron Module -->
<g id="node4" class="node">
<title>Electron Module</title>
<polygon fill="lightblue" stroke="black" points="818,-182.82 652,-182.82 652,-146.82 818,-146.82 818,-182.82"/>
<text xml:space="preserve" text-anchor="middle" x="735" y="-162.02" font-family="Times,serif" font-size="14.00">Electron Module</text>
<text xml:space="preserve" text-anchor="middle" x="735" y="-151.52" font-family="Times,serif" font-size="14.00">(app, BrowserWindow)</text>
</g>
<!-- loader.ts&#45;&gt;Electron Module -->
<g id="edge3" class="edge">
<title>loader.ts&#45;&gt;Electron Module</title>
<path fill="none" stroke="black" d="M720.58,-597.49C722.86,-529.29 731.22,-278.93 734.05,-194.12"/>
<polygon fill="black" stroke="black" points="737.54,-194.48 734.38,-184.37 730.55,-194.24 737.54,-194.48"/>
<text xml:space="preserve" text-anchor="middle" x="798.75" y="-382.77" font-family="Times,serif" font-size="14.00">Configures, Exposes</text>
</g>
<!-- loader.ts&#45;&gt;ElectronApplication -->
<g id="edge6" class="edge">
<title>loader.ts&#45;&gt;ElectronApplication</title>
<path fill="none" stroke="black" d="M708.42,-597.49C662.53,-528.8 493.17,-275.33 437.71,-192.32"/>
<polygon fill="black" stroke="black" points="440.69,-190.48 432.22,-184.11 434.87,-194.37 440.69,-190.48"/>
<text xml:space="preserve" text-anchor="middle" x="637.5" y="-382.77" font-family="Times,serif" font-size="14.00">Defers app.ready()</text>
</g>
<!-- Electron Module&#45;&gt;Electron.launch() -->
<g id="edge4" class="edge">
<title>Electron Module&#45;&gt;Electron.launch()</title>
<path fill="none" stroke="black" d="M704.53,-183.31C643.88,-218.48 504.33,-301.2 393.5,-380.32 293.47,-451.73 182.25,-546 131.29,-590.1"/>
<polygon fill="black" stroke="black" points="129.19,-587.29 123.93,-596.49 133.77,-592.58 129.19,-587.29"/>
<text xml:space="preserve" text-anchor="middle" x="479.75" y="-388.02" font-family="Times,serif" font-size="14.00">WebSocket Connections</text>
<text xml:space="preserve" text-anchor="middle" x="479.75" y="-377.52" font-family="Times,serif" font-size="14.00">(__playwright_electron)</text>
</g>
</g>
</svg>
