<?xml version="1.0" encoding="UTF-8" standalone="no"?>
<!DOCTYPE svg PUBLIC "-//W3C//DTD SVG 1.1//EN"
 "http://www.w3.org/Graphics/SVG/1.1/DTD/svg11.dtd">
<!-- Generated by graphviz version 2.44.1 (20201121.0304)
 -->
<!-- Title: G Pages: 1 -->
<svg width="678pt" height="678pt"
 viewBox="0.00 0.00 678.00 678.00" xmlns="http://www.w3.org/2000/svg" xmlns:xlink="http://www.w3.org/1999/xlink"><style>
  * {
    fill: transparent !important;
    stroke: rgb(30, 30, 30) !important;
    stroke-width: 1 !important;
  }
  polygon:not(.cluster *, .node *, .edge *, text) {
    stroke: transparent !important;
  }
  text {
    font-size: 10px !important;
    font-family: monospace !important;
    fill: rgb(30, 30, 30) !important;
    stroke: transparent !important;
    transform: translateY(-0.5em);
  }
</style>
<g id="graph0" class="graph" transform="scale(1 1) rotate(0) translate(4 674)">
<title>G</title>
<polygon fill="white" stroke="none" points="-4,4 -4,-674 674,-674 674,4 -4,4"/>
<!-- index.js -->
<g id="node1" class="node">
<title>index.js</title>
<polygon fill="lightblue" stroke="black" points="196,-586 0,-586 0,-550 196,-550 196,-586"/>
<text xml:space="preserve" text-anchor="middle" x="98" y="-559.95" font-family="Times,serif" font-size="14.00">Configuration (index.js)</text>
</g>
<!-- Playwright CT Core -->
<g id="node2" class="node">
<title>Playwright CT Core</title>
<polygon fill="lightblue" stroke="black" points="301.75,-120 38.25,-120 38.25,-84 301.75,-84 301.75,-120"/>
<text xml:space="preserve" text-anchor="middle" x="170" y="-93.95" font-family="Times,serif" font-size="14.00">Playwright Component Testing Core</text>
</g>
<!-- index.js&#45;&gt;Playwright CT Core -->
<g id="edge1" class="edge">
<title>index.js&#45;&gt;Playwright CT Core</title>
<path fill="none" stroke="black" d="M86.52,-549.73C61.95,-510.59 8.34,-412.11 31.5,-329.75 54.15,-249.21 114.23,-168.98 147.33,-129.04"/>
<polygon fill="black" stroke="black" points="149.81,-131.53 153.57,-121.62 144.45,-127.02 149.81,-131.53"/>
<text xml:space="preserve" text-anchor="middle" x="87.75" y="-326.95" font-family="Times,serif" font-size="14.00">wraps &amp; extends</text>
</g>
<!-- hooks.d.ts -->
<g id="node4" class="node">
<title>hooks.d.ts</title>
<polygon fill="lightblue" stroke="black" points="616,-120 390,-120 390,-84 616,-84 616,-120"/>
<text xml:space="preserve" text-anchor="middle" x="503" y="-93.95" font-family="Times,serif" font-size="14.00">Lifecycle Hooks (hooks.d.ts)</text>
</g>
<!-- index.js&#45;&gt;hooks.d.ts -->
<g id="edge4" class="edge">
<title>index.js&#45;&gt;hooks.d.ts</title>
<path fill="none" stroke="black" stroke-dasharray="1,5" d="M98.73,-549.74C101.28,-508.05 112.7,-400.06 163.5,-329.75 237.34,-227.55 372.48,-157.9 448.08,-124.91"/>
<polygon fill="black" stroke="black" points="449.15,-128.26 456.95,-121.09 446.38,-121.83 449.15,-128.26"/>
<text xml:space="preserve" text-anchor="middle" x="294.75" y="-326.95" font-family="Times,serif" font-size="14.00">influences behavior via hooksConfig</text>
</g>
<!-- index.d.ts -->
<g id="node3" class="node">
<title>index.d.ts</title>
<polygon fill="lightblue" stroke="black" points="670,-586 354,-586 354,-550 670,-550 670,-586"/>
<text xml:space="preserve" text-anchor="middle" x="512" y="-559.95" font-family="Times,serif" font-size="14.00">Component Interaction Types (index.d.ts)</text>
</g>
<!-- index.d.ts&#45;&gt;Playwright CT Core -->
<g id="edge2" class="edge">
<title>index.d.ts&#45;&gt;Playwright CT Core</title>
<path fill="none" stroke="black" d="M509.16,-549.53C501.82,-508.26 479.21,-402.74 430,-329.75 369.2,-239.57 263.83,-163.23 207.71,-126.47"/>
<polygon fill="black" stroke="black" points="209.73,-123.61 199.43,-121.11 205.92,-129.48 209.73,-123.61"/>
<text xml:space="preserve" text-anchor="middle" x="482.44" y="-326.95" font-family="Times,serif" font-size="14.00">imports types</text>
</g>
<!-- index.d.ts&#45;&gt;hooks.d.ts -->
<g id="edge3" class="edge">
<title>index.d.ts&#45;&gt;hooks.d.ts</title>
<path fill="none" stroke="black" d="M518.13,-549.53C531.14,-510.39 559.67,-412.57 551,-329.75 543.42,-257.32 522.57,-173.97 511,-131.34"/>
<polygon fill="black" stroke="black" points="514.43,-130.61 508.4,-121.9 507.68,-132.47 514.43,-130.61"/>
<text xml:space="preserve" text-anchor="middle" x="589.09" y="-326.95" font-family="Times,serif" font-size="14.00">references</text>
</g>
</g>
</svg>
