<?xml version="1.0" encoding="UTF-8" standalone="no"?>
<!DOCTYPE svg PUBLIC "-//W3C//DTD SVG 1.1//EN"
 "http://www.w3.org/Graphics/SVG/1.1/DTD/svg11.dtd">
<!-- Generated by graphviz version 2.44.1 (20201121.0304)
 -->
<!-- Title: G Pages: 1 -->
<svg width="933pt" height="933pt"
 viewBox="0.00 0.00 933.00 933.00" xmlns="http://www.w3.org/2000/svg" xmlns:xlink="http://www.w3.org/1999/xlink"><style>
  * {
    fill: transparent !important;
    stroke: rgb(30, 30, 30) !important;
    stroke-width: 1 !important;
  }
  polygon:not(.cluster *, .node *, .edge *, text) {
    stroke: transparent !important;
  }
  text {
    font-size: 10px !important;
    font-family: monospace !important;
    fill: rgb(30, 30, 30) !important;
    stroke: transparent !important;
    transform: translateY(-0.5em);
  }
</style>
<g id="graph0" class="graph" transform="scale(1 1) rotate(0) translate(4 928.75)">
<title>G</title>
<polygon fill="white" stroke="none" points="-4,4 -4,-928.75 928.75,-928.75 928.75,4 -4,4"/>
<!-- Playwright CLI -->
<g id="node1" class="node">
<title>Playwright CLI</title>
<polygon fill="lightblue" stroke="black" points="188.5,-850 0,-850 0,-814 188.5,-814 188.5,-850"/>
<text xml:space="preserve" text-anchor="middle" x="94.25" y="-823.95" font-family="Times,serif" font-size="14.00">Playwright CLI (cli.js)</text>
</g>
<!-- Program Logic (lib/program) -->
<g id="node2" class="node">
<title>Program Logic (lib/program)</title>
<polygon fill="lightblue" stroke="black" points="351.5,-480 133,-480 133,-444 351.5,-444 351.5,-480"/>
<text xml:space="preserve" text-anchor="middle" x="242.25" y="-453.95" font-family="Times,serif" font-size="14.00">Program Logic (lib/program)</text>
</g>
<!-- Playwright CLI&#45;&gt;Program Logic (lib/program) -->
<g id="edge1" class="edge">
<title>Playwright CLI&#45;&gt;Program Logic (lib/program)</title>
<path fill="none" stroke="black" d="M101.19,-813.74C124.79,-755.07 202.07,-562.91 231.1,-490.73"/>
<polygon fill="black" stroke="black" points="234.28,-492.21 234.76,-481.62 227.78,-489.59 234.28,-492.21"/>
</g>
<!-- Playwright Test CLI -->
<g id="node3" class="node">
<title>Playwright Test CLI</title>
<polygon fill="lightblue" stroke="black" points="432.25,-850 206.25,-850 206.25,-814 432.25,-814 432.25,-850"/>
<text xml:space="preserve" text-anchor="middle" x="319.25" y="-823.95" font-family="Times,serif" font-size="14.00">Playwright Test CLI (cli.js)</text>
</g>
<!-- Playwright Test CLI&#45;&gt;Program Logic (lib/program) -->
<g id="edge2" class="edge">
<title>Playwright Test CLI&#45;&gt;Program Logic (lib/program)</title>
<path fill="none" stroke="black" d="M315.64,-813.74C303.39,-755.19 263.32,-563.7 248.15,-491.18"/>
<polygon fill="black" stroke="black" points="251.64,-490.77 246.16,-481.7 244.79,-492.2 251.64,-490.77"/>
</g>
<!-- Playwright Core (playwright.js) -->
<g id="node4" class="node">
<title>Playwright Core (playwright.js)</title>
<polygon fill="lightblue" stroke="black" points="778.5,-480 440,-480 440,-444 778.5,-444 778.5,-480"/>
<text xml:space="preserve" text-anchor="middle" x="609.25" y="-453.95" font-family="Times,serif" font-size="14.00">Playwright Core (index.js, playwright&#45;core)</text>
</g>
<!-- Third&#45;Party Notices -->
<g id="node5" class="node">
<title>Third&#45;Party Notices</title>
<polygon fill="lightblue" stroke="black" points="671.5,-110 513,-110 513,-74 671.5,-74 671.5,-110"/>
<text xml:space="preserve" text-anchor="middle" x="592.25" y="-83.95" font-family="Times,serif" font-size="14.00">Third&#45;Party Notices</text>
</g>
<!-- Playwright Core (playwright.js)&#45;&gt;Third&#45;Party Notices -->
<g id="edge3" class="edge">
<title>Playwright Core (playwright.js)&#45;&gt;Third&#45;Party Notices</title>
<path fill="none" stroke="black" d="M608.45,-443.74C605.75,-385.31 596.94,-194.49 593.57,-121.63"/>
<polygon fill="black" stroke="black" points="597.07,-121.56 593.12,-111.73 590.08,-121.88 597.07,-121.56"/>
</g>
<!-- Type Definitions (d.ts files) -->
<g id="node6" class="node">
<title>Type Definitions (d.ts files)</title>
<polygon fill="lightblue" stroke="black" points="923,-110 689.5,-110 689.5,-74 923,-74 923,-110"/>
<text xml:space="preserve" text-anchor="middle" x="806.25" y="-83.95" font-family="Times,serif" font-size="14.00">Type Definitions (d.ts files)</text>
</g>
<!-- Playwright Core (playwright.js)&#45;&gt;Type Definitions (d.ts files) -->
<g id="edge4" class="edge">
<title>Playwright Core (playwright.js)&#45;&gt;Type Definitions (d.ts files)</title>
<path fill="none" stroke="black" d="M618.49,-443.74C649.96,-384.95 753.19,-192.12 791.64,-120.29"/>
<polygon fill="black" stroke="black" points="794.68,-122.02 796.32,-111.55 788.51,-118.72 794.68,-122.02"/>
</g>
<!-- Playwright Test Runner (playwright&#45;test.js) -->
<g id="node7" class="node">
<title>Playwright Test Runner (playwright&#45;test.js)</title>
<polygon fill="lightblue" stroke="black" points="924.75,-850 533.75,-850 533.75,-814 924.75,-814 924.75,-850"/>
<text xml:space="preserve" text-anchor="middle" x="729.25" y="-823.95" font-family="Times,serif" font-size="14.00">Playwright Test Runner (index.js, playwright/test)</text>
</g>
<!-- Playwright Test Runner (playwright&#45;test.js)&#45;&gt;Playwright Core (playwright.js) -->
<g id="edge5" class="edge">
<title>Playwright Test Runner (playwright&#45;test.js)&#45;&gt;Playwright Core (playwright.js)</title>
<path fill="none" stroke="black" d="M723.62,-813.74C704.49,-755.07 641.83,-562.91 618.29,-490.73"/>
<polygon fill="black" stroke="black" points="621.76,-490.08 615.33,-481.66 615.11,-492.25 621.76,-490.08"/>
</g>
<!-- Playwright Test Runner (playwright&#45;test.js)&#45;&gt;Type Definitions (d.ts files) -->
<g id="edge6" class="edge">
<title>Playwright Test Runner (playwright&#45;test.js)&#45;&gt;Type Definitions (d.ts files)</title>
<path fill="none" stroke="black" d="M732.86,-813.57C743.27,-762.54 773.47,-608.97 787.25,-480 801.51,-346.47 805.09,-185.86 805.97,-121.6"/>
<polygon fill="black" stroke="black" points="809.46,-121.97 806.09,-111.93 802.46,-121.88 809.46,-121.97"/>
</g>
</g>
</svg>
