<?xml version="1.0" encoding="UTF-8" standalone="no"?>
<!DOCTYPE svg PUBLIC "-//W3C//DTD SVG 1.1//EN"
 "http://www.w3.org/Graphics/SVG/1.1/DTD/svg11.dtd">
<!-- Generated by graphviz version 2.44.1 (20201121.0304)
 -->
<!-- Title: G Pages: 1 -->
<svg width="499pt" height="457pt"
 viewBox="0.00 0.00 499.00 457.00" xmlns="http://www.w3.org/2000/svg" xmlns:xlink="http://www.w3.org/1999/xlink"><style>
  * {
    fill: transparent !important;
    stroke: rgb(30, 30, 30) !important;
    stroke-width: 1 !important;
  }
  polygon:not(.cluster *, .node *, .edge *, text) {
    stroke: transparent !important;
  }
  text {
    font-size: 10px !important;
    font-family: monospace !important;
    fill: rgb(30, 30, 30) !important;
    stroke: transparent !important;
    transform: translateY(-0.5em);
  }
</style>
<g id="graph0" class="graph" transform="scale(1 1) rotate(0) translate(4 452.5)">
<title>G</title>
<polygon fill="white" stroke="none" points="-4,4 -4,-452.5 494.54,-452.5 494.54,4 -4,4"/>
<!-- Playwright -->
<g id="node1" class="node">
<title>Playwright</title>
<polygon fill="lightblue" stroke="black" points="337.54,-449 201.54,-449 201.54,-413 337.54,-413 337.54,-449"/>
<text xml:space="preserve" text-anchor="middle" x="269.54" y="-422.95" font-family="Times,serif" font-size="14.00">Playwright (API)</text>
</g>
<!-- ElectronAppLauncher -->
<g id="node2" class="node">
<title>ElectronAppLauncher</title>
<polygon fill="lightblue" stroke="black" points="235.29,-366 1.79,-366 1.79,-330 235.29,-330 235.29,-366"/>
<text xml:space="preserve" text-anchor="middle" x="118.54" y="-339.95" font-family="Times,serif" font-size="14.00">Electron Application Launcher</text>
</g>
<!-- Playwright&#45;&gt;ElectronAppLauncher -->
<g id="edge1" class="edge">
<title>Playwright&#45;&gt;ElectronAppLauncher</title>
<path fill="none" stroke="black" d="M231.98,-412.58C220.21,-406.93 207.24,-400.5 195.54,-394.25 182.59,-387.33 168.69,-379.34 156.31,-372.02"/>
<polygon fill="black" stroke="black" points="158.43,-369.21 148.05,-367.09 154.85,-375.22 158.43,-369.21"/>
<text xml:space="preserve" text-anchor="middle" x="225.54" y="-380.95" font-family="Times,serif" font-size="14.00">Launches</text>
</g>
<!-- LoaderScript -->
<g id="node3" class="node">
<title>LoaderScript</title>
<polygon fill="lightblue" stroke="black" points="134.29,-284 50.79,-284 50.79,-248 134.29,-248 134.29,-284"/>
<text xml:space="preserve" text-anchor="middle" x="92.54" y="-257.95" font-family="Times,serif" font-size="14.00">loader.ts</text>
</g>
<!-- ElectronAppLauncher&#45;&gt;LoaderScript -->
<g id="edge2" class="edge">
<title>ElectronAppLauncher&#45;&gt;LoaderScript</title>
<path fill="none" stroke="black" d="M112.9,-329.64C109.63,-319.58 105.43,-306.66 101.7,-295.18"/>
<polygon fill="black" stroke="black" points="105.06,-294.19 98.64,-285.76 98.4,-296.36 105.06,-294.19"/>
<text xml:space="preserve" text-anchor="middle" x="133.35" y="-298.95" font-family="Times,serif" font-size="14.00">Injects</text>
</g>
<!-- ElectronMainProcess -->
<g id="node4" class="node">
<title>ElectronMainProcess</title>
<polygon fill="lightblue" stroke="black" points="356.29,-201 182.79,-201 182.79,-165 356.29,-165 356.29,-201"/>
<text xml:space="preserve" text-anchor="middle" x="269.54" y="-174.95" font-family="Times,serif" font-size="14.00">Electron Main Process</text>
</g>
<!-- LoaderScript&#45;&gt;ElectronMainProcess -->
<g id="edge3" class="edge">
<title>LoaderScript&#45;&gt;ElectronMainProcess</title>
<path fill="none" stroke="black" d="M86.63,-247.83C84.5,-238.25 84,-226.69 90.54,-218.75 101.54,-205.41 135.72,-197.13 171.31,-192.02"/>
<polygon fill="black" stroke="black" points="171.44,-195.53 180.88,-190.73 170.5,-188.6 171.44,-195.53"/>
<text xml:space="preserve" text-anchor="middle" x="173.04" y="-215.95" font-family="Times,serif" font-size="14.00">Configures environment</text>
</g>
<!-- ElectronMainProcess&#45;&gt;Playwright -->
<g id="edge5" class="edge">
<title>ElectronMainProcess&#45;&gt;Playwright</title>
<path fill="none" stroke="black" d="M269.54,-201.28C269.54,-243.07 269.54,-349.98 269.54,-401.45"/>
<polygon fill="black" stroke="black" points="266.04,-401.19 269.54,-411.19 273.04,-401.19 266.04,-401.19"/>
<text xml:space="preserve" text-anchor="middle" x="348.29" y="-298.95" font-family="Times,serif" font-size="14.00">Connects CDP &amp; Worker</text>
</g>
<!-- BrowserWindowInstance -->
<g id="node5" class="node">
<title>BrowserWindowInstance</title>
<polygon fill="lightblue" stroke="black" points="402.79,-119 214.29,-119 214.29,-83 402.79,-83 402.79,-119"/>
<text xml:space="preserve" text-anchor="middle" x="308.54" y="-92.95" font-family="Times,serif" font-size="14.00">BrowserWindow Instances</text>
</g>
<!-- ElectronMainProcess&#45;&gt;BrowserWindowInstance -->
<g id="edge4" class="edge">
<title>ElectronMainProcess&#45;&gt;BrowserWindowInstance</title>
<path fill="none" stroke="black" d="M278,-164.64C283.01,-154.37 289.47,-141.12 295.15,-129.46"/>
<polygon fill="black" stroke="black" points="298.2,-131.21 299.43,-120.69 291.9,-128.14 298.2,-131.21"/>
<text xml:space="preserve" text-anchor="middle" x="317.63" y="-133.95" font-family="Times,serif" font-size="14.00">Creates</text>
</g>
<!-- PlaywrightPage -->
<g id="node6" class="node">
<title>PlaywrightPage</title>
<polygon fill="lightblue" stroke="black" points="447.79,-36 319.29,-36 319.29,0 447.79,0 447.79,-36"/>
<text xml:space="preserve" text-anchor="middle" x="383.54" y="-9.95" font-family="Times,serif" font-size="14.00">Playwright Page</text>
</g>
<!-- BrowserWindowInstance&#45;&gt;PlaywrightPage -->
<g id="edge6" class="edge">
<title>BrowserWindowInstance&#45;&gt;PlaywrightPage</title>
<path fill="none" stroke="black" d="M324.45,-82.82C334.72,-71.73 348.27,-57.09 359.8,-44.64"/>
<polygon fill="black" stroke="black" points="362.14,-47.26 366.37,-37.54 357.01,-42.5 362.14,-47.26"/>
<text xml:space="preserve" text-anchor="middle" x="376.78" y="-50.95" font-family="Times,serif" font-size="14.00">Maps to</text>
</g>
<!-- PlaywrightPage&#45;&gt;Playwright -->
<g id="edge7" class="edge">
<title>PlaywrightPage&#45;&gt;Playwright</title>
<path fill="none" stroke="black" d="M407.69,-36.39C425.1,-51.12 445.54,-73.97 445.54,-100 445.54,-349 445.54,-349 445.54,-349 445.54,-394.85 395.63,-414.84 348.97,-423.51"/>
<polygon fill="black" stroke="black" points="348.61,-420.02 339.33,-425.13 349.77,-426.92 348.61,-420.02"/>
<text xml:space="preserve" text-anchor="middle" x="468.04" y="-215.95" font-family="Times,serif" font-size="14.00">Drives</text>
</g>
</g>
</svg>
