<?xml version="1.0" encoding="UTF-8" standalone="no"?>
<!DOCTYPE svg PUBLIC "-//W3C//DTD SVG 1.1//EN"
 "http://www.w3.org/Graphics/SVG/1.1/DTD/svg11.dtd">
<!-- Generated by graphviz version 2.44.1 (20201121.0304)
 -->
<!-- Title: G Pages: 1 -->
<svg width="365pt" height="365pt"
 viewBox="0.00 0.00 365.00 365.00" xmlns="http://www.w3.org/2000/svg" xmlns:xlink="http://www.w3.org/1999/xlink"><style>
  * {
    fill: transparent !important;
    stroke: rgb(30, 30, 30) !important;
    stroke-width: 1 !important;
  }
  polygon:not(.cluster *, .node *, .edge *, text) {
    stroke: transparent !important;
  }
  text {
    font-size: 10px !important;
    font-family: monospace !important;
    fill: rgb(30, 30, 30) !important;
    stroke: transparent !important;
    transform: translateY(-0.5em);
  }
</style>
<g id="graph0" class="graph" transform="scale(1 1) rotate(0) translate(4 360.5)">
<title>G</title>
<polygon fill="white" stroke="none" points="-4,4 -4,-360.5 360.5,-360.5 360.5,4 -4,4"/>
<!-- playwright&#45;browsers checkout -->
<g id="node1" class="node">
<title>playwright&#45;browsers checkout</title>
<polygon fill="lightblue" stroke="black" points="254.43,-357 95.93,-357 95.93,-321 254.43,-321 254.43,-357"/>
<text xml:space="preserve" text-anchor="middle" x="175.18" y="-336.2" font-family="Times,serif" font-size="14.00">playwright&#45;browsers</text>
<text xml:space="preserve" text-anchor="middle" x="175.18" y="-325.7" font-family="Times,serif" font-size="14.00">(Source)</text>
</g>
<!-- roll_from_upstream.sh -->
<g id="node2" class="node">
<title>roll_from_upstream.sh</title>
<polygon fill="lightblue" stroke="black" points="261.93,-274 88.43,-274 88.43,-238 261.93,-238 261.93,-274"/>
<text xml:space="preserve" text-anchor="middle" x="175.18" y="-253.2" font-family="Times,serif" font-size="14.00">roll_from_upstream.sh</text>
<text xml:space="preserve" text-anchor="middle" x="175.18" y="-242.7" font-family="Times,serif" font-size="14.00">Script</text>
</g>
<!-- playwright&#45;browsers checkout&#45;&gt;roll_from_upstream.sh -->
<g id="edge1" class="edge">
<title>playwright&#45;browsers checkout&#45;&gt;roll_from_upstream.sh</title>
<path fill="none" stroke="black" d="M175.18,-320.82C175.18,-310.69 175.18,-297.6 175.18,-285.92"/>
<polygon fill="black" stroke="black" points="178.68,-285.95 175.18,-275.95 171.68,-285.95 178.68,-285.95"/>
<text xml:space="preserve" text-anchor="middle" x="212.68" y="-288.95" font-family="Times,serif" font-size="14.00">reads from</text>
</g>
<!-- browser_patches directory -->
<g id="node3" class="node">
<title>browser_patches directory</title>
<polygon fill="lightblue" stroke="black" points="239.43,-192 110.93,-192 110.93,-156 239.43,-156 239.43,-192"/>
<text xml:space="preserve" text-anchor="middle" x="175.18" y="-171.2" font-family="Times,serif" font-size="14.00">browser_patches</text>
<text xml:space="preserve" text-anchor="middle" x="175.18" y="-160.7" font-family="Times,serif" font-size="14.00">(Destination)</text>
</g>
<!-- roll_from_upstream.sh&#45;&gt;browser_patches directory -->
<g id="edge2" class="edge">
<title>roll_from_upstream.sh&#45;&gt;browser_patches directory</title>
<path fill="none" stroke="black" d="M175.18,-237.64C175.18,-227.68 175.18,-214.93 175.18,-203.54"/>
<polygon fill="black" stroke="black" points="178.68,-203.84 175.18,-193.84 171.68,-203.84 178.68,-203.84"/>
<text xml:space="preserve" text-anchor="middle" x="205.18" y="-206.95" font-family="Times,serif" font-size="14.00">syncs to</text>
</g>
<!-- Firefox Patches -->
<g id="node4" class="node">
<title>Firefox Patches</title>
<polygon fill="lightblue" stroke="black" points="154.18,-119 18.18,-119 18.18,-83 154.18,-83 154.18,-119"/>
<text xml:space="preserve" text-anchor="middle" x="86.18" y="-98.2" font-family="Times,serif" font-size="14.00">Firefox</text>
<text xml:space="preserve" text-anchor="middle" x="86.18" y="-87.7" font-family="Times,serif" font-size="14.00">(Juggler, Prefs)</text>
</g>
<!-- browser_patches directory&#45;&gt;Firefox Patches -->
<g id="edge3" class="edge">
<title>browser_patches directory&#45;&gt;Firefox Patches</title>
<path fill="none" stroke="black" d="M153.64,-155.81C142.57,-146.98 128.89,-136.07 116.75,-126.39"/>
<polygon fill="black" stroke="black" points="119.02,-123.72 109.02,-120.22 114.66,-129.19 119.02,-123.72"/>
</g>
<!-- WebKit Patches -->
<g id="node5" class="node">
<title>WebKit Patches</title>
<polygon fill="lightblue" stroke="black" points="345.68,-119 194.68,-119 194.68,-83 345.68,-83 345.68,-119"/>
<text xml:space="preserve" text-anchor="middle" x="270.18" y="-98.2" font-family="Times,serif" font-size="14.00">WebKit</text>
<text xml:space="preserve" text-anchor="middle" x="270.18" y="-87.7" font-family="Times,serif" font-size="14.00">(Embedder, winldd)</text>
</g>
<!-- browser_patches directory&#45;&gt;WebKit Patches -->
<g id="edge4" class="edge">
<title>browser_patches directory&#45;&gt;WebKit Patches</title>
<path fill="none" stroke="black" d="M198.18,-155.81C210.11,-146.9 224.88,-135.86 237.93,-126.1"/>
<polygon fill="black" stroke="black" points="239.94,-128.97 245.86,-120.18 235.75,-123.36 239.94,-128.97"/>
</g>
<!-- Firefox UPSTREAM_CONFIG.sh -->
<g id="node6" class="node">
<title>Firefox UPSTREAM_CONFIG.sh</title>
<polygon fill="lightblue" stroke="black" points="159.68,-36 8.68,-36 8.68,0 159.68,0 159.68,-36"/>
<text xml:space="preserve" text-anchor="middle" x="84.18" y="-15.2" font-family="Times,serif" font-size="14.00">Firefox</text>
<text xml:space="preserve" text-anchor="middle" x="84.18" y="-4.7" font-family="Times,serif" font-size="14.00">UPSTREAM_CONFIG.sh</text>
</g>
<!-- Firefox Patches&#45;&gt;Firefox UPSTREAM_CONFIG.sh -->
<g id="edge5" class="edge">
<title>Firefox Patches&#45;&gt;Firefox UPSTREAM_CONFIG.sh</title>
<path fill="none" stroke="black" d="M85.76,-82.82C85.51,-72.69 85.19,-59.6 84.9,-47.92"/>
<polygon fill="black" stroke="black" points="88.4,-47.86 84.65,-37.95 81.4,-48.03 88.4,-47.86"/>
<text xml:space="preserve" text-anchor="middle" x="126.49" y="-50.95" font-family="Times,serif" font-size="14.00">pins commit</text>
</g>
<!-- WebKit UPSTREAM_CONFIG.sh -->
<g id="node7" class="node">
<title>WebKit UPSTREAM_CONFIG.sh</title>
<polygon fill="lightblue" stroke="black" points="347.68,-36 196.68,-36 196.68,0 347.68,0 347.68,-36"/>
<text xml:space="preserve" text-anchor="middle" x="272.18" y="-15.2" font-family="Times,serif" font-size="14.00">WebKit</text>
<text xml:space="preserve" text-anchor="middle" x="272.18" y="-4.7" font-family="Times,serif" font-size="14.00">UPSTREAM_CONFIG.sh</text>
</g>
<!-- WebKit Patches&#45;&gt;WebKit UPSTREAM_CONFIG.sh -->
<g id="edge6" class="edge">
<title>WebKit Patches&#45;&gt;WebKit UPSTREAM_CONFIG.sh</title>
<path fill="none" stroke="black" d="M270.61,-82.82C270.86,-72.69 271.18,-59.6 271.47,-47.92"/>
<polygon fill="black" stroke="black" points="274.97,-48.03 271.72,-37.95 267.97,-47.86 274.97,-48.03"/>
<text xml:space="preserve" text-anchor="middle" x="312.55" y="-50.95" font-family="Times,serif" font-size="14.00">pins commit</text>
</g>
</g>
</svg>
