<?xml version="1.0" encoding="UTF-8" standalone="no"?>
<!DOCTYPE svg PUBLIC "-//W3C//DTD SVG 1.1//EN"
 "http://www.w3.org/Graphics/SVG/1.1/DTD/svg11.dtd">
<!-- Generated by graphviz version 2.44.1 (20201121.0304)
 -->
<!-- Title: G Pages: 1 -->
<svg width="550pt" height="464pt"
 viewBox="0.00 0.00 550.00 464.00" xmlns="http://www.w3.org/2000/svg" xmlns:xlink="http://www.w3.org/1999/xlink"><style>
  * {
    fill: transparent !important;
    stroke: rgb(30, 30, 30) !important;
    stroke-width: 1 !important;
  }
  polygon:not(.cluster *, .node *, .edge *, text) {
    stroke: transparent !important;
  }
  text {
    font-size: 10px !important;
    font-family: monospace !important;
    fill: rgb(30, 30, 30) !important;
    stroke: transparent !important;
    transform: translateY(-0.5em);
  }
</style>
<g id="graph0" class="graph" transform="scale(1 1) rotate(0) translate(4 460.25)">
<title>G</title>
<polygon fill="white" stroke="none" points="-4,4 -4,-460.25 545.5,-460.25 545.5,4 -4,4"/>
<!-- TestRunner -->
<g id="node1" class="node">
<title>TestRunner</title>
<polygon fill="lightblue" stroke="black" points="456.25,-453 252.75,-453 252.75,-417 456.25,-417 456.25,-453"/>
<text xml:space="preserve" text-anchor="middle" x="354.5" y="-426.95" font-family="Times,serif" font-size="14.00">TestRunner (Main Process)</text>
</g>
<!-- TaskRunner -->
<g id="node2" class="node">
<title>TaskRunner</title>
<polygon fill="lightblue" stroke="black" points="347,-357 136,-357 136,-321 347,-321 347,-357"/>
<text xml:space="preserve" text-anchor="middle" x="241.5" y="-330.95" font-family="Times,serif" font-size="14.00">TaskRunner (Manages Tasks)</text>
</g>
<!-- TestRunner&#45;&gt;TaskRunner -->
<g id="edge1" class="edge">
<title>TestRunner&#45;&gt;TaskRunner</title>
<path fill="none" stroke="black" d="M333.51,-416.54C315.99,-401.96 290.8,-381.01 271.21,-364.72"/>
<polygon fill="black" stroke="black" points="273.47,-362.04 263.54,-358.33 268.99,-367.42 273.47,-362.04"/>
<text xml:space="preserve" text-anchor="middle" x="368.89" y="-378.95" font-family="Times,serif" font-size="14.00">delegates tasks to</text>
</g>
<!-- Reporter -->
<g id="node6" class="node">
<title>Reporter</title>
<polygon fill="lightblue" stroke="black" points="440.75,-39 222.25,-39 222.25,-3 440.75,-3 440.75,-39"/>
<text xml:space="preserve" text-anchor="middle" x="331.5" y="-12.95" font-family="Times,serif" font-size="14.00">Reporter (Results &amp; Output)</text>
</g>
<!-- TestRunner&#45;&gt;Reporter -->
<g id="edge7" class="edge">
<title>TestRunner&#45;&gt;Reporter</title>
<path fill="none" stroke="black" d="M404.49,-416.51C417.32,-410.3 430.36,-402.29 440.5,-392.25 458.93,-374 466.5,-365.94 466.5,-340 466.5,-340 466.5,-340 466.5,-116 466.5,-91.96 468.89,-81.34 452.5,-63.75 445.19,-55.91 436.34,-49.54 426.79,-44.36"/>
<polygon fill="black" stroke="black" points="428.5,-41.3 417.97,-40.06 425.42,-47.59 428.5,-41.3"/>
<text xml:space="preserve" text-anchor="middle" x="504" y="-234.95" font-family="Times,serif" font-size="14.00">configures</text>
</g>
<!-- Loader -->
<g id="node3" class="node">
<title>Loader</title>
<polygon fill="lightblue" stroke="black" points="211,-198 0,-198 0,-162 211,-162 211,-198"/>
<text xml:space="preserve" text-anchor="middle" x="105.5" y="-171.95" font-family="Times,serif" font-size="14.00">Loader (Test File Loading)</text>
</g>
<!-- TaskRunner&#45;&gt;Loader -->
<g id="edge2" class="edge">
<title>TaskRunner&#45;&gt;Loader</title>
<path fill="none" stroke="black" d="M155.64,-320.5C143.2,-314.61 131.69,-306.75 123,-296.25 103.06,-272.16 100.82,-235.16 102.17,-209.61"/>
<polygon fill="black" stroke="black" points="105.64,-210.18 102.91,-199.94 98.66,-209.65 105.64,-210.18"/>
<text xml:space="preserve" text-anchor="middle" x="179.25" y="-282.95" font-family="Times,serif" font-size="14.00">loads tests via</text>
</g>
<!-- Dispatcher -->
<g id="node4" class="node">
<title>Dispatcher</title>
<polygon fill="lightblue" stroke="black" points="429.25,-261 135.75,-261 135.75,-225 429.25,-225 429.25,-261"/>
<text xml:space="preserve" text-anchor="middle" x="282.5" y="-234.95" font-family="Times,serif" font-size="14.00">Dispatcher (Test Group Orchestration)</text>
</g>
<!-- TaskRunner&#45;&gt;Dispatcher -->
<g id="edge3" class="edge">
<title>TaskRunner&#45;&gt;Dispatcher</title>
<path fill="none" stroke="black" d="M238.76,-320.89C237.81,-310.37 237.93,-296.82 242.5,-285.75 244.89,-279.95 248.5,-274.5 252.59,-269.56"/>
<polygon fill="black" stroke="black" points="255.02,-272.09 259.28,-262.39 249.9,-267.32 255.02,-272.09"/>
<text xml:space="preserve" text-anchor="middle" x="347.5" y="-282.95" font-family="Times,serif" font-size="14.00">initiates test execution via</text>
</g>
<!-- Loader&#45;&gt;Reporter -->
<g id="edge6" class="edge">
<title>Loader&#45;&gt;Reporter</title>
<path fill="none" stroke="black" d="M100.79,-161.57C97.16,-144.01 94.73,-117.01 108,-99 132.37,-65.93 171.85,-46.95 210.9,-36.1"/>
<polygon fill="black" stroke="black" points="211.62,-39.53 220.42,-33.63 209.86,-32.75 211.62,-39.53"/>
<text xml:space="preserve" text-anchor="middle" x="171.75" y="-108.95" font-family="Times,serif" font-size="14.00">reports errors to</text>
</g>
<!-- Worker -->
<g id="node5" class="node">
<title>Worker</title>
<polygon fill="lightblue" stroke="black" points="432.75,-135 244.25,-135 244.25,-99 432.75,-99 432.75,-135"/>
<text xml:space="preserve" text-anchor="middle" x="338.5" y="-108.95" font-family="Times,serif" font-size="14.00">Worker (Test Execution)</text>
</g>
<!-- Dispatcher&#45;&gt;Worker -->
<g id="edge4" class="edge">
<title>Dispatcher&#45;&gt;Worker</title>
<path fill="none" stroke="black" d="M279.87,-224.78C278.12,-207.88 277.66,-181.82 287.5,-162 290.99,-154.96 296.17,-148.59 301.89,-143.01"/>
<polygon fill="black" stroke="black" points="304.2,-145.65 309.42,-136.43 299.59,-140.38 304.2,-145.65"/>
<text xml:space="preserve" text-anchor="middle" x="370" y="-171.95" font-family="Times,serif" font-size="14.00">assigns test groups to</text>
</g>
<!-- Worker&#45;&gt;Reporter -->
<g id="edge5" class="edge">
<title>Worker&#45;&gt;Reporter</title>
<path fill="none" stroke="black" d="M335.51,-98.58C334.35,-91.12 333.15,-82.28 332.5,-74.25 331.88,-66.65 331.56,-58.42 331.41,-50.78"/>
<polygon fill="black" stroke="black" points="334.91,-50.92 331.31,-40.96 327.92,-50.99 334.91,-50.92"/>
<text xml:space="preserve" text-anchor="middle" x="392.5" y="-60.95" font-family="Times,serif" font-size="14.00">sends updates to</text>
</g>
</g>
</svg>
