<?xml version="1.0" encoding="UTF-8" standalone="no"?>
<!DOCTYPE svg PUBLIC "-//W3C//DTD SVG 1.1//EN"
 "http://www.w3.org/Graphics/SVG/1.1/DTD/svg11.dtd">
<!-- Generated by graphviz version 2.44.1 (20201121.0304)
 -->
<!-- Title: G Pages: 1 -->
<svg width="824pt" height="768pt"
 viewBox="0.00 0.00 824.00 768.00" xmlns="http://www.w3.org/2000/svg" xmlns:xlink="http://www.w3.org/1999/xlink"><style>
  * {
    fill: transparent !important;
    stroke: rgb(30, 30, 30) !important;
    stroke-width: 1 !important;
  }
  polygon:not(.cluster *, .node *, .edge *, text) {
    stroke: transparent !important;
  }
  text {
    font-size: 10px !important;
    font-family: monospace !important;
    fill: rgb(30, 30, 30) !important;
    stroke: transparent !important;
    transform: translateY(-0.5em);
  }
</style>
<g id="graph0" class="graph" transform="scale(1 1) rotate(0) translate(4 764.25)">
<title>G</title>
<polygon fill="white" stroke="none" points="-4,4 -4,-764.25 820,-764.25 820,4 -4,4"/>
<!-- UpdateCanaryVersion -->
<g id="node1" class="node">
<title>UpdateCanaryVersion</title>
<polygon fill="lightblue" stroke="black" points="470.25,-710 221.75,-710 221.75,-674 470.25,-674 470.25,-710"/>
<text xml:space="preserve" text-anchor="middle" x="346" y="-683.95" font-family="Times,serif" font-size="14.00">update_canary_version.js Script</text>
</g>
<!-- PackageJSON -->
<g id="node2" class="node">
<title>PackageJSON</title>
<polygon fill="lightblue" stroke="black" points="106,-398 0,-398 0,-362 106,-362 106,-398"/>
<text xml:space="preserve" text-anchor="middle" x="53" y="-371.95" font-family="Times,serif" font-size="14.00">package.json</text>
</g>
<!-- UpdateCanaryVersion&#45;&gt;PackageJSON -->
<g id="edge1" class="edge">
<title>UpdateCanaryVersion&#45;&gt;PackageJSON</title>
<path fill="none" stroke="black" d="M280.15,-673.58C216.42,-653.05 122.55,-612.38 74,-541.25 46.97,-501.65 46.67,-443.53 49.45,-409.25"/>
<polygon fill="black" stroke="black" points="52.9,-409.98 50.38,-399.69 45.93,-409.31 52.9,-409.98"/>
<text xml:space="preserve" text-anchor="middle" x="141.5" y="-527.95" font-family="Times,serif" font-size="14.00">Reads base version</text>
</g>
<!-- CommandLineArgs -->
<g id="node3" class="node">
<title>CommandLineArgs</title>
<polygon fill="lightblue" stroke="black" points="305.5,-398 124.5,-398 124.5,-362 305.5,-362 305.5,-398"/>
<text xml:space="preserve" text-anchor="middle" x="215" y="-371.95" font-family="Times,serif" font-size="14.00">Command Line Arguments</text>
</g>
<!-- UpdateCanaryVersion&#45;&gt;CommandLineArgs -->
<g id="edge2" class="edge">
<title>UpdateCanaryVersion&#45;&gt;CommandLineArgs</title>
<path fill="none" stroke="black" d="M322.91,-673.52C291.72,-648.31 237.56,-598.43 216,-541.25 199.48,-497.43 204.25,-441.95 209.46,-409.09"/>
<polygon fill="black" stroke="black" points="212.85,-410.01 211.1,-399.57 205.95,-408.83 212.85,-410.01"/>
<text xml:space="preserve" text-anchor="middle" x="336" y="-527.95" font-family="Times,serif" font-size="14.00">Parses prefix &amp; timestamp source</text>
</g>
<!-- GitHistory -->
<g id="node4" class="node">
<title>GitHistory</title>
<polygon fill="lightblue" stroke="black" points="527.25,-398 428.75,-398 428.75,-362 527.25,-362 527.25,-398"/>
<text xml:space="preserve" text-anchor="middle" x="478" y="-371.95" font-family="Times,serif" font-size="14.00">Git History</text>
</g>
<!-- UpdateCanaryVersion&#45;&gt;GitHistory -->
<g id="edge3" class="edge">
<title>UpdateCanaryVersion&#45;&gt;GitHistory</title>
<path fill="none" stroke="black" d="M363.15,-673.91C388.16,-647.82 434.07,-595.36 456,-541.25 473.67,-497.63 477.64,-442.45 478.26,-409.53"/>
<polygon fill="black" stroke="black" points="481.76,-409.62 478.35,-399.59 474.76,-409.56 481.76,-409.62"/>
<text xml:space="preserve" text-anchor="middle" x="549.09" y="-527.95" font-family="Times,serif" font-size="14.00">Fetches commit timestamp</text>
</g>
<!-- NewVersionString -->
<g id="node5" class="node">
<title>NewVersionString</title>
<polygon fill="lightblue" stroke="black" points="756.5,-398 605.5,-398 605.5,-362 756.5,-362 756.5,-398"/>
<text xml:space="preserve" text-anchor="middle" x="681" y="-371.95" font-family="Times,serif" font-size="14.00">New Version String</text>
</g>
<!-- UpdateCanaryVersion&#45;&gt;NewVersionString -->
<g id="edge4" class="edge">
<title>UpdateCanaryVersion&#45;&gt;NewVersionString</title>
<path fill="none" stroke="black" d="M418.07,-673.55C486.26,-653.25 586.37,-612.97 643,-541.25 673.27,-502.91 680.06,-444.36 681.23,-409.66"/>
<polygon fill="black" stroke="black" points="684.73,-410.03 681.41,-399.97 677.73,-409.9 684.73,-410.03"/>
<text xml:space="preserve" text-anchor="middle" x="681.94" y="-527.95" font-family="Times,serif" font-size="14.00">Generates</text>
</g>
<!-- Workspace -->
<g id="node6" class="node">
<title>Workspace</title>
<polygon fill="lightblue" stroke="black" points="760.25,-86 601.75,-86 601.75,-50 760.25,-50 760.25,-86"/>
<text xml:space="preserve" text-anchor="middle" x="681" y="-59.95" font-family="Times,serif" font-size="14.00">Workspace Utilities</text>
</g>
<!-- NewVersionString&#45;&gt;Workspace -->
<g id="edge5" class="edge">
<title>NewVersionString&#45;&gt;Workspace</title>
<path fill="none" stroke="black" d="M681,-361.89C681,-311.2 681,-161.38 681,-97.92"/>
<polygon fill="black" stroke="black" points="684.5,-97.95 681,-87.95 677.5,-97.95 684.5,-97.95"/>
<text xml:space="preserve" text-anchor="middle" x="748.5" y="-215.95" font-family="Times,serif" font-size="14.00">Used by setVersion</text>
</g>
</g>
</svg>
