<?xml version="1.0" encoding="UTF-8" standalone="no"?>
<!DOCTYPE svg PUBLIC "-//W3C//DTD SVG 1.1//EN"
 "http://www.w3.org/Graphics/SVG/1.1/DTD/svg11.dtd">
<!-- Generated by graphviz version 2.44.1 (20201121.0304)
 -->
<!-- Title: G Pages: 1 -->
<svg width="374pt" height="374pt"
 viewBox="0.00 0.00 374.00 374.00" xmlns="http://www.w3.org/2000/svg" xmlns:xlink="http://www.w3.org/1999/xlink"><style>
  * {
    fill: transparent !important;
    stroke: rgb(30, 30, 30) !important;
    stroke-width: 1 !important;
  }
  polygon:not(.cluster *, .node *, .edge *, text) {
    stroke: transparent !important;
  }
  text {
    font-size: 10px !important;
    font-family: monospace !important;
    fill: rgb(30, 30, 30) !important;
    stroke: transparent !important;
    transform: translateY(-0.5em);
  }
</style>
<g id="graph0" class="graph" transform="scale(1 1) rotate(0) translate(4 370)">
<title>G</title>
<polygon fill="white" stroke="none" points="-4,4 -4,-370 370,-370 370,4 -4,4"/>
<!-- ClientAPI -->
<g id="node1" class="node">
<title>ClientAPI</title>
<polygon fill="lightblue" stroke="#66b2ff" stroke-width="2" points="296,-366 70,-366 70,-330 296,-330 296,-366"/>
<text xml:space="preserve" text-anchor="middle" x="183" y="-339.95" font-family="Times,serif" font-size="14.00">Client API (e.g., Page.goto)</text>
</g>
<!-- ProtocolLayer -->
<g id="node2" class="node">
<title>ProtocolLayer</title>
<polygon fill="lightblue" stroke="#66b2ff" stroke-width="2" points="243.5,-284 122.5,-284 122.5,-248 243.5,-248 243.5,-284"/>
<text xml:space="preserve" text-anchor="middle" x="183" y="-263.2" font-family="Times,serif" font-size="14.00">Protocol Layer</text>
<text xml:space="preserve" text-anchor="middle" x="183" y="-252.7" font-family="Times,serif" font-size="14.00">(protocol.yml)</text>
</g>
<!-- ClientAPI&#45;&gt;ProtocolLayer -->
<g id="edge1" class="edge">
<title>ClientAPI&#45;&gt;ProtocolLayer</title>
<path fill="none" stroke="#66b2ff" stroke-width="1.5" d="M183,-329.25C183,-319.78 183,-307.88 183,-297.03"/>
<polygon fill="#66b2ff" stroke="#66b2ff" stroke-width="1.5" points="186.5,-297.25 183,-287.25 179.5,-297.25 186.5,-297.25"/>
<text xml:space="preserve" text-anchor="middle" x="228" y="-298.95" font-family="Times,serif" font-size="14.00">defines/uses</text>
</g>
<!-- Dispatchers -->
<g id="node3" class="node">
<title>Dispatchers</title>
<polygon fill="lightblue" stroke="#66b2ff" stroke-width="2" points="273.5,-201 92.5,-201 92.5,-165 273.5,-165 273.5,-201"/>
<text xml:space="preserve" text-anchor="middle" x="183" y="-180.2" font-family="Times,serif" font-size="14.00">Dispatchers</text>
<text xml:space="preserve" text-anchor="middle" x="183" y="-169.7" font-family="Times,serif" font-size="14.00">(e.g., PageDispatcher)</text>
</g>
<!-- ProtocolLayer&#45;&gt;Dispatchers -->
<g id="edge2" class="edge">
<title>ProtocolLayer&#45;&gt;Dispatchers</title>
<path fill="none" stroke="#66b2ff" stroke-width="1.5" d="M183,-247.02C183,-237.38 183,-225.23 183,-214.18"/>
<polygon fill="#66b2ff" stroke="#66b2ff" stroke-width="1.5" points="186.5,-214.2 183,-204.2 179.5,-214.2 186.5,-214.2"/>
<text xml:space="preserve" text-anchor="middle" x="216.75" y="-215.95" font-family="Times,serif" font-size="14.00">generates</text>
</g>
<!-- ServerObjects -->
<g id="node4" class="node">
<title>ServerObjects</title>
<polygon fill="lightblue" stroke="#66b2ff" stroke-width="2" points="262.25,-119 103.75,-119 103.75,-83 262.25,-83 262.25,-119"/>
<text xml:space="preserve" text-anchor="middle" x="183" y="-98.2" font-family="Times,serif" font-size="14.00">Server Objects</text>
<text xml:space="preserve" text-anchor="middle" x="183" y="-87.7" font-family="Times,serif" font-size="14.00">(e.g., Frame, Page)</text>
</g>
<!-- Dispatchers&#45;&gt;ServerObjects -->
<g id="edge3" class="edge">
<title>Dispatchers&#45;&gt;ServerObjects</title>
<path fill="none" stroke="#66b2ff" stroke-width="1.5" d="M183,-164.25C183,-154.78 183,-142.88 183,-132.03"/>
<polygon fill="#66b2ff" stroke="#66b2ff" stroke-width="1.5" points="186.5,-132.25 183,-122.25 179.5,-132.25 186.5,-132.25"/>
<text xml:space="preserve" text-anchor="middle" x="216.75" y="-133.95" font-family="Times,serif" font-size="14.00">routes to</text>
</g>
<!-- BrowserEngines -->
<g id="node5" class="node">
<title>BrowserEngines</title>
<polygon fill="lightblue" stroke="#66b2ff" stroke-width="2" points="292.25,-36 73.75,-36 73.75,0 292.25,0 292.25,-36"/>
<text xml:space="preserve" text-anchor="middle" x="183" y="-15.2" font-family="Times,serif" font-size="14.00">Browser Engines</text>
<text xml:space="preserve" text-anchor="middle" x="183" y="-4.7" font-family="Times,serif" font-size="14.00">(Chromium, Firefox, WebKit)</text>
</g>
<!-- ServerObjects&#45;&gt;BrowserEngines -->
<g id="edge4" class="edge">
<title>ServerObjects&#45;&gt;BrowserEngines</title>
<path fill="none" stroke="#66b2ff" stroke-width="1.5" d="M183,-82.02C183,-72.38 183,-60.23 183,-49.18"/>
<polygon fill="#66b2ff" stroke="#66b2ff" stroke-width="1.5" points="186.5,-49.2 183,-39.2 179.5,-49.2 186.5,-49.2"/>
<text xml:space="preserve" text-anchor="middle" x="228" y="-50.95" font-family="Times,serif" font-size="14.00">delegates to</text>
</g>
</g>
</svg>
