<?xml version="1.0" encoding="UTF-8" standalone="no"?>
<!DOCTYPE svg PUBLIC "-//W3C//DTD SVG 1.1//EN"
 "http://www.w3.org/Graphics/SVG/1.1/DTD/svg11.dtd">
<!-- Generated by graphviz version 2.44.1 (20201121.0304)
 -->
<!-- Title: G Pages: 1 -->
<svg width="442pt" height="374pt"
 viewBox="0.00 0.00 442.00 374.00" xmlns="http://www.w3.org/2000/svg" xmlns:xlink="http://www.w3.org/1999/xlink"><style>
  * {
    fill: transparent !important;
    stroke: rgb(30, 30, 30) !important;
    stroke-width: 1 !important;
  }
  polygon:not(.cluster *, .node *, .edge *, text) {
    stroke: transparent !important;
  }
  text {
    font-size: 10px !important;
    font-family: monospace !important;
    fill: rgb(30, 30, 30) !important;
    stroke: transparent !important;
    transform: translateY(-0.5em);
  }
</style>
<g id="graph0" class="graph" transform="scale(1 1) rotate(0) translate(4 370)">
<title>G</title>
<polygon fill="white" stroke="none" points="-4,4 -4,-370 438.3,-370 438.3,4 -4,4"/>
<!-- Playwright BrowserContext -->
<g id="node1" class="node">
<title>Playwright BrowserContext</title>
<polygon fill="lightblue" stroke="black" points="303.16,-366 99.66,-366 99.66,-330 303.16,-330 303.16,-366"/>
<text xml:space="preserve" text-anchor="middle" x="201.41" y="-339.95" font-family="Times,serif" font-size="14.00">Playwright BrowserContext</text>
</g>
<!-- Router -->
<g id="node2" class="node">
<title>Router</title>
<polygon fill="lightblue" stroke="black" points="363.16,-284 39.66,-284 39.66,-248 363.16,-248 363.16,-284"/>
<text xml:space="preserve" text-anchor="middle" x="201.41" y="-257.95" font-family="Times,serif" font-size="14.00">Router (playwright&#45;ct&#45;core/src/router.ts)</text>
</g>
<!-- Playwright BrowserContext&#45;&gt;Router -->
<g id="edge1" class="edge">
<title>Playwright BrowserContext&#45;&gt;Router</title>
<path fill="none" stroke="black" d="M201.41,-329.64C201.41,-319.68 201.41,-306.93 201.41,-295.54"/>
<polygon fill="black" stroke="black" points="204.91,-295.84 201.41,-285.84 197.91,-295.84 204.91,-295.84"/>
<text xml:space="preserve" text-anchor="middle" x="253.91" y="-298.95" font-family="Times,serif" font-size="14.00">manages routes</text>
</g>
<!-- Request Handlers -->
<g id="node3" class="node">
<title>Request Handlers</title>
<polygon fill="lightblue" stroke="black" points="242.91,-201 1.91,-201 1.91,-165 242.91,-165 242.91,-201"/>
<text xml:space="preserve" text-anchor="middle" x="122.41" y="-174.95" font-family="Times,serif" font-size="14.00">Request Handlers (MSW, custom)</text>
</g>
<!-- Router&#45;&gt;Request Handlers -->
<g id="edge2" class="edge">
<title>Router&#45;&gt;Request Handlers</title>
<path fill="none" stroke="black" d="M146.21,-247.51C138.29,-242.76 131.09,-236.78 125.91,-229.25 122.53,-224.35 120.84,-218.39 120.14,-212.44"/>
<polygon fill="black" stroke="black" points="123.65,-212.67 119.86,-202.78 116.65,-212.88 123.65,-212.67"/>
<text xml:space="preserve" text-anchor="middle" x="197.16" y="-215.95" font-family="Times,serif" font-size="14.00">dispatches requests</text>
</g>
<!-- Global Fetch Override -->
<g id="node4" class="node">
<title>Global Fetch Override</title>
<polygon fill="lightblue" stroke="black" points="304.16,-119 100.66,-119 100.66,-83 304.16,-83 304.16,-119"/>
<text xml:space="preserve" text-anchor="middle" x="202.41" y="-92.95" font-family="Times,serif" font-size="14.00">globalThis.fetch Override</text>
</g>
<!-- Router&#45;&gt;Global Fetch Override -->
<g id="edge3" class="edge">
<title>Router&#45;&gt;Global Fetch Override</title>
<path fill="none" stroke="black" d="M249.61,-247.7C257.11,-242.88 263.86,-236.83 268.41,-229.25 289.56,-194 289.65,-171.95 268.41,-136.75 266.07,-132.87 263.13,-129.4 259.81,-126.3"/>
<polygon fill="black" stroke="black" points="262.1,-123.66 252.06,-120.28 257.8,-129.18 262.1,-123.66"/>
<text xml:space="preserve" text-anchor="middle" x="359.3" y="-174.95" font-family="Times,serif" font-size="14.00">enables interception</text>
</g>
<!-- Request Handlers&#45;&gt;Global Fetch Override -->
<g id="edge4" class="edge">
<title>Request Handlers&#45;&gt;Global Fetch Override</title>
<path fill="none" stroke="black" d="M137.18,-164.84C144.8,-156.21 154.37,-145.71 163.41,-136.75 166.74,-133.45 170.32,-130.06 173.91,-126.75"/>
<polygon fill="black" stroke="black" points="175.99,-129.59 181.07,-120.29 171.3,-124.39 175.99,-129.59"/>
<text xml:space="preserve" text-anchor="middle" x="215.91" y="-133.95" font-family="Times,serif" font-size="14.00">may use bypass</text>
</g>
<!-- Original Fetch -->
<g id="node5" class="node">
<title>Original Fetch</title>
<polygon fill="lightblue" stroke="black" points="300.41,-36 104.41,-36 104.41,0 300.41,0 300.41,-36"/>
<text xml:space="preserve" text-anchor="middle" x="202.41" y="-9.95" font-family="Times,serif" font-size="14.00">Original Network Request</text>
</g>
<!-- Global Fetch Override&#45;&gt;Original Fetch -->
<g id="edge5" class="edge">
<title>Global Fetch Override&#45;&gt;Original Fetch</title>
<path fill="none" stroke="black" d="M202.41,-82.82C202.41,-72.69 202.41,-59.6 202.41,-47.92"/>
<polygon fill="black" stroke="black" points="205.91,-47.95 202.41,-37.95 198.91,-47.95 205.91,-47.95"/>
<text xml:space="preserve" text-anchor="middle" x="258.66" y="-50.95" font-family="Times,serif" font-size="14.00">for passthrough</text>
</g>
</g>
</svg>
