<?xml version="1.0" encoding="UTF-8" standalone="no"?>
<!DOCTYPE svg PUBLIC "-//W3C//DTD SVG 1.1//EN"
 "http://www.w3.org/Graphics/SVG/1.1/DTD/svg11.dtd">
<!-- Generated by graphviz version 2.44.1 (20201121.0304)
 -->
<!-- Title: G Pages: 1 -->
<svg width="767pt" height="767pt"
 viewBox="0.00 0.00 767.00 767.00" xmlns="http://www.w3.org/2000/svg" xmlns:xlink="http://www.w3.org/1999/xlink"><style>
  * {
    fill: transparent !important;
    stroke: rgb(30, 30, 30) !important;
    stroke-width: 1 !important;
  }
  polygon:not(.cluster *, .node *, .edge *, text) {
    stroke: transparent !important;
  }
  text {
    font-size: 10px !important;
    font-family: monospace !important;
    fill: rgb(30, 30, 30) !important;
    stroke: transparent !important;
    transform: translateY(-0.5em);
  }
</style>
<g id="graph0" class="graph" transform="scale(1 1) rotate(0) translate(4 762.5)">
<title>G</title>
<polygon fill="white" stroke="none" points="-4,4 -4,-762.5 762.5,-762.5 762.5,4 -4,4"/>
<!-- TestRunnerPlugin -->
<g id="node1" class="node">
<title>TestRunnerPlugin</title>
<polygon fill="lightblue" stroke="black" points="477.25,-618.5 251.25,-618.5 251.25,-547.5 477.25,-547.5 477.25,-618.5"/>
<text xml:space="preserve" text-anchor="middle" x="364.25" y="-601.2" font-family="Times,serif" font-size="14.00">{TestRunnerPlugin| + setup()</text>
<text xml:space="preserve" text-anchor="middle" x="364.25" y="-590.7" font-family="Times,serif" font-size="14.00">+ populateDependencies()</text>
<text xml:space="preserve" text-anchor="middle" x="364.25" y="-580.2" font-family="Times,serif" font-size="14.00">+ clearCache()</text>
<text xml:space="preserve" text-anchor="middle" x="364.25" y="-569.7" font-family="Times,serif" font-size="14.00">+ begin()</text>
<text xml:space="preserve" text-anchor="middle" x="364.25" y="-559.2" font-family="Times,serif" font-size="14.00">+ end()</text>
<text xml:space="preserve" text-anchor="middle" x="364.25" y="-548.7" font-family="Times,serif" font-size="14.00">+ teardown()}</text>
</g>
<!-- WebServerPlugin -->
<g id="node2" class="node">
<title>WebServerPlugin</title>
<polygon fill="lightblue" stroke="black" points="218.5,-107 0,-107 0,-71 218.5,-71 218.5,-107"/>
<text xml:space="preserve" text-anchor="middle" x="109.25" y="-86.2" font-family="Times,serif" font-size="14.00">{WebServerPlugin| + setup()</text>
<text xml:space="preserve" text-anchor="middle" x="109.25" y="-75.7" font-family="Times,serif" font-size="14.00">+ teardown()}</text>
</g>
<!-- TestRunnerPlugin&#45;&gt;WebServerPlugin -->
<g id="edge1" class="edge">
<title>TestRunnerPlugin&#45;&gt;WebServerPlugin</title>
<path fill="none" stroke="black" d="M346.12,-547.01C297.83,-453.84 166.85,-201.13 123.44,-117.38"/>
<polygon fill="black" stroke="black" points="126.66,-115.98 118.95,-108.71 120.44,-119.2 126.66,-115.98"/>
<text xml:space="preserve" text-anchor="middle" x="266.41" y="-284.95" font-family="Times,serif" font-size="14.00">implemented by</text>
</g>
<!-- GitCommitInfoPlugin -->
<g id="node3" class="node">
<title>GitCommitInfoPlugin</title>
<polygon fill="lightblue" stroke="black" points="492.25,-107 236.25,-107 236.25,-71 492.25,-71 492.25,-107"/>
<text xml:space="preserve" text-anchor="middle" x="364.25" y="-80.95" font-family="Times,serif" font-size="14.00">{gitCommitInfoPlugin| + setup()}</text>
</g>
<!-- TestRunnerPlugin&#45;&gt;GitCommitInfoPlugin -->
<g id="edge2" class="edge">
<title>TestRunnerPlugin&#45;&gt;GitCommitInfoPlugin</title>
<path fill="none" stroke="black" d="M364.25,-547.01C364.25,-454.32 364.25,-203.7 364.25,-118.67"/>
<polygon fill="black" stroke="black" points="367.75,-118.88 364.25,-108.88 360.75,-118.88 367.75,-118.88"/>
<text xml:space="preserve" text-anchor="middle" x="416.75" y="-284.95" font-family="Times,serif" font-size="14.00">implemented by</text>
</g>
<!-- TestExecutionLifecycle -->
<g id="node4" class="node">
<title>TestExecutionLifecycle</title>
<polygon fill="lightblue" stroke="black" points="758.5,-107 510,-107 510,-71 758.5,-71 758.5,-107"/>
<text xml:space="preserve" text-anchor="middle" x="634.25" y="-80.95" font-family="Times,serif" font-size="14.00">Test Execution Lifecycle Stages</text>
</g>
<!-- TestRunnerPlugin&#45;&gt;TestExecutionLifecycle -->
<g id="edge3" class="edge">
<title>TestRunnerPlugin&#45;&gt;TestExecutionLifecycle</title>
<path fill="none" stroke="black" d="M383.45,-547.01C434.58,-453.84 573.27,-201.13 619.23,-117.38"/>
<polygon fill="black" stroke="black" points="622.25,-119.14 623.99,-108.69 616.11,-115.77 622.25,-119.14"/>
<text xml:space="preserve" text-anchor="middle" x="575.93" y="-284.95" font-family="Times,serif" font-size="14.00">defines stages</text>
</g>
</g>
</svg>
