<?xml version="1.0" encoding="UTF-8" standalone="no"?>
<!DOCTYPE svg PUBLIC "-//W3C//DTD SVG 1.1//EN"
 "http://www.w3.org/Graphics/SVG/1.1/DTD/svg11.dtd">
<!-- Generated by graphviz version 2.44.1 (20201121.0304)
 -->
<!-- Title: G Pages: 1 -->
<svg width="474pt" height="474pt"
 viewBox="0.00 0.00 474.00 474.00" xmlns="http://www.w3.org/2000/svg" xmlns:xlink="http://www.w3.org/1999/xlink"><style>
  * {
    fill: transparent !important;
    stroke: rgb(30, 30, 30) !important;
    stroke-width: 1 !important;
  }
  polygon:not(.cluster *, .node *, .edge *, text) {
    stroke: transparent !important;
  }
  text {
    font-size: 10px !important;
    font-family: monospace !important;
    fill: rgb(30, 30, 30) !important;
    stroke: transparent !important;
    transform: translateY(-0.5em);
  }
</style>
<g id="graph0" class="graph" transform="scale(1 1) rotate(0) translate(4 470)">
<title>G</title>
<polygon fill="white" stroke="none" points="-4,4 -4,-470 470,-470 470,4 -4,4"/>
<g id="clust1" class="cluster">
<title>cluster_collection</title>
<polygon fill="none" stroke="blue" points="133.35,-387.5 133.35,-458 332.65,-458 332.65,-387.5 133.35,-387.5"/>
<text xml:space="preserve" text-anchor="middle" x="233" y="-440.7" font-family="Times,serif" font-size="14.00">Trace Collection</text>
</g>
<g id="clust2" class="cluster">
<title>cluster_processing</title>
<polygon fill="none" stroke="red" points="93.79,-107 93.79,-260 375.14,-260 375.14,-107 93.79,-107"/>
<text xml:space="preserve" text-anchor="middle" x="234.47" y="-242.7" font-family="Times,serif" font-size="14.00">Trace Processing</text>
</g>
<g id="clust3" class="cluster">
<title>cluster_storage</title>
<polygon fill="none" stroke="green" points="11.72,-288.5 11.72,-359 454.28,-359 454.28,-288.5 11.72,-288.5"/>
<text xml:space="preserve" text-anchor="middle" x="233" y="-341.7" font-family="Times,serif" font-size="14.00">Trace Storage</text>
</g>
<g id="clust4" class="cluster">
<title>cluster_viewer</title>
<polygon fill="none" stroke="purple" points="117.23,-8 117.23,-78.5 350.23,-78.5 350.23,-8 117.23,-8"/>
<text xml:space="preserve" text-anchor="middle" x="233.73" y="-61.2" font-family="Times,serif" font-size="14.00">Trace Visualization</text>
</g>
<!-- Tracing -->
<g id="node1" class="node">
<title>Tracing</title>
<polygon fill="lightblue" stroke="black" points="289.75,-432 176.25,-432 176.25,-396 289.75,-396 289.75,-432"/>
<text xml:space="preserve" text-anchor="middle" x="233" y="-411.2" font-family="Times,serif" font-size="14.00">Tracing Class</text>
<text xml:space="preserve" text-anchor="middle" x="233" y="-400.7" font-family="Times,serif" font-size="14.00">(Recorder)</text>
</g>
<!-- TraceFiles -->
<g id="node2" class="node">
<title>TraceFiles</title>
<polygon fill="lightblue" stroke="black" points="376,-333 90,-333 90,-297 376,-297 376,-333"/>
<text xml:space="preserve" text-anchor="middle" x="233" y="-312.2" font-family="Times,serif" font-size="14.00">Trace Files</text>
<text xml:space="preserve" text-anchor="middle" x="233" y="-301.7" font-family="Times,serif" font-size="14.00">(.trace, .network, resources/, .zip)</text>
</g>
<!-- Tracing&#45;&gt;TraceFiles -->
<g id="edge1" class="edge">
<title>Tracing&#45;&gt;TraceFiles</title>
<path fill="none" stroke="black" d="M233,-395.66C233,-381.45 233,-361.06 233,-344.46"/>
<polygon fill="black" stroke="black" points="236.5,-344.71 233,-334.71 229.5,-344.71 236.5,-344.71"/>
<text xml:space="preserve" text-anchor="middle" x="278" y="-363.95" font-family="Times,serif" font-size="14.00">Records Data</text>
</g>
<!-- TraceLoader -->
<g id="node3" class="node">
<title>TraceLoader</title>
<polygon fill="lightblue" stroke="black" points="319.75,-234 146.25,-234 146.25,-198 319.75,-198 319.75,-234"/>
<text xml:space="preserve" text-anchor="middle" x="233" y="-213.2" font-family="Times,serif" font-size="14.00">TraceLoader</text>
<text xml:space="preserve" text-anchor="middle" x="233" y="-202.7" font-family="Times,serif" font-size="14.00">(Backend, Modernizer)</text>
</g>
<!-- TraceFiles&#45;&gt;TraceLoader -->
<g id="edge2" class="edge">
<title>TraceFiles&#45;&gt;TraceLoader</title>
<path fill="none" stroke="black" d="M233,-296.66C233,-282.45 233,-262.06 233,-245.46"/>
<polygon fill="black" stroke="black" points="236.5,-245.71 233,-235.71 229.5,-245.71 236.5,-245.71"/>
<text xml:space="preserve" text-anchor="middle" x="270.5" y="-264.95" font-family="Times,serif" font-size="14.00">Loads Data</text>
</g>
<!-- TraceModel -->
<g id="node4" class="node">
<title>TraceModel</title>
<polygon fill="lightblue" stroke="black" points="319.75,-151 146.25,-151 146.25,-115 319.75,-115 319.75,-151"/>
<text xml:space="preserve" text-anchor="middle" x="233" y="-130.2" font-family="Times,serif" font-size="14.00">TraceModel</text>
<text xml:space="preserve" text-anchor="middle" x="233" y="-119.7" font-family="Times,serif" font-size="14.00">(Data Representation)</text>
</g>
<!-- TraceLoader&#45;&gt;TraceModel -->
<g id="edge3" class="edge">
<title>TraceLoader&#45;&gt;TraceModel</title>
<path fill="none" stroke="black" d="M233,-197.82C233,-187.69 233,-174.6 233,-162.92"/>
<polygon fill="black" stroke="black" points="236.5,-162.95 233,-152.95 229.5,-162.95 236.5,-162.95"/>
<text xml:space="preserve" text-anchor="middle" x="311.75" y="-165.95" font-family="Times,serif" font-size="14.00">Parses &amp; Builds Model</text>
</g>
<!-- TraceViewer -->
<g id="node5" class="node">
<title>TraceViewer</title>
<polygon fill="lightblue" stroke="black" points="297.25,-52 168.75,-52 168.75,-16 297.25,-16 297.25,-52"/>
<text xml:space="preserve" text-anchor="middle" x="233" y="-31.2" font-family="Times,serif" font-size="14.00">Trace Viewer</text>
<text xml:space="preserve" text-anchor="middle" x="233" y="-20.7" font-family="Times,serif" font-size="14.00">(UI Components)</text>
</g>
<!-- TraceModel&#45;&gt;TraceViewer -->
<g id="edge4" class="edge">
<title>TraceModel&#45;&gt;TraceViewer</title>
<path fill="none" stroke="black" d="M233,-114.66C233,-100.45 233,-80.06 233,-63.46"/>
<polygon fill="black" stroke="black" points="236.5,-63.71 233,-53.71 229.5,-63.71 236.5,-63.71"/>
<text xml:space="preserve" text-anchor="middle" x="281.75" y="-83.95" font-family="Times,serif" font-size="14.00">Displays Data</text>
</g>
</g>
</svg>
