<?xml version="1.0" encoding="UTF-8" standalone="no"?>
<!DOCTYPE svg PUBLIC "-//W3C//DTD SVG 1.1//EN"
 "http://www.w3.org/Graphics/SVG/1.1/DTD/svg11.dtd">
<!-- Generated by graphviz version 2.44.1 (20201121.0304)
 -->
<!-- Title: G Pages: 1 -->
<svg width="682pt" height="682pt"
 viewBox="0.00 0.00 682.00 682.00" xmlns="http://www.w3.org/2000/svg" xmlns:xlink="http://www.w3.org/1999/xlink"><style>
  * {
    fill: transparent !important;
    stroke: rgb(30, 30, 30) !important;
    stroke-width: 1 !important;
  }
  polygon:not(.cluster *, .node *, .edge *, text) {
    stroke: transparent !important;
  }
  text {
    font-size: 10px !important;
    font-family: monospace !important;
    fill: rgb(30, 30, 30) !important;
    stroke: transparent !important;
    transform: translateY(-0.5em);
  }
</style>
<g id="graph0" class="graph" transform="scale(1 1) rotate(0) translate(4 677.75)">
<title>G</title>
<polygon fill="white" stroke="none" points="-4,4 -4,-677.75 677.75,-677.75 677.75,4 -4,4"/>
<!-- Node.js Test Runner -->
<g id="node1" class="node">
<title>Node.js Test Runner</title>
<polygon fill="lightblue" stroke="black" points="513.5,-649 355,-649 355,-613 513.5,-613 513.5,-649"/>
<text xml:space="preserve" text-anchor="middle" x="434.25" y="-628.2" font-family="Times,serif" font-size="14.00">Node.js Test Runner</text>
<text xml:space="preserve" text-anchor="middle" x="434.25" y="-617.7" font-family="Times,serif" font-size="14.00">(mount fixture)</text>
</g>
<!-- Object Serialization -->
<g id="node2" class="node">
<title>Object Serialization</title>
<polygon fill="lightblue" stroke="black" points="398.5,-453 0,-453 0,-417 398.5,-417 398.5,-453"/>
<text xml:space="preserve" text-anchor="middle" x="199.25" y="-432.2" font-family="Times,serif" font-size="14.00">Object Serialization</text>
<text xml:space="preserve" text-anchor="middle" x="199.25" y="-421.7" font-family="Times,serif" font-size="14.00">(wrapObject, __pwUnwrapObject, __pwTransformObject)</text>
</g>
<!-- Node.js Test Runner&#45;&gt;Object Serialization -->
<g id="edge1" class="edge">
<title>Node.js Test Runner&#45;&gt;Object Serialization</title>
<path fill="none" stroke="black" d="M413.4,-612.78C371.61,-578.29 277.49,-500.59 229.15,-460.68"/>
<polygon fill="black" stroke="black" points="231.5,-458.09 221.56,-454.42 227.05,-463.49 231.5,-458.09"/>
<text xml:space="preserve" text-anchor="middle" x="354.25" y="-524.95" font-family="Times,serif" font-size="14.00">Serializes</text>
</g>
<!-- Component Definition -->
<g id="node4" class="node">
<title>Component Definition</title>
<polygon fill="lightblue" stroke="black" points="673.75,-61 342.75,-61 342.75,-25 673.75,-25 673.75,-61"/>
<text xml:space="preserve" text-anchor="middle" x="508.25" y="-40.2" font-family="Times,serif" font-size="14.00">Component Definition</text>
<text xml:space="preserve" text-anchor="middle" x="508.25" y="-29.7" font-family="Times,serif" font-size="14.00">(JsxComponent, ObjectComponent, ImportRef)</text>
</g>
<!-- Node.js Test Runner&#45;&gt;Component Definition -->
<g id="edge4" class="edge">
<title>Node.js Test Runner&#45;&gt;Component Definition</title>
<path fill="none" stroke="black" d="M456.17,-612.71C490.8,-583.9 556.99,-522.35 584.25,-453 621.99,-356.96 616.16,-321.61 593.25,-221 580.29,-164.07 546.62,-104.09 525.76,-70.62"/>
<polygon fill="black" stroke="black" points="528.85,-68.96 520.54,-62.39 522.94,-72.71 528.85,-68.96"/>
<text xml:space="preserve" text-anchor="middle" x="626.51" y="-328.95" font-family="Times,serif" font-size="14.00">Uses</text>
</g>
<!-- Browser Environment -->
<g id="node3" class="node">
<title>Browser Environment</title>
<polygon fill="lightblue" stroke="black" points="583.75,-257 222.75,-257 222.75,-221 583.75,-221 583.75,-257"/>
<text xml:space="preserve" text-anchor="middle" x="403.25" y="-236.2" font-family="Times,serif" font-size="14.00">Browser Environment</text>
<text xml:space="preserve" text-anchor="middle" x="403.25" y="-225.7" font-family="Times,serif" font-size="14.00">(window.playwrightMount, __ctDispatchFunction)</text>
</g>
<!-- Object Serialization&#45;&gt;Browser Environment -->
<g id="edge2" class="edge">
<title>Object Serialization&#45;&gt;Browser Environment</title>
<path fill="none" stroke="black" d="M202.51,-416.57C207.38,-394.58 218.44,-356.63 240.25,-331.75 267.99,-300.1 309.42,-276.99 343.56,-261.87"/>
<polygon fill="black" stroke="black" points="344.7,-265.19 352.51,-258.03 341.94,-258.76 344.7,-265.19"/>
<text xml:space="preserve" text-anchor="middle" x="330.25" y="-328.95" font-family="Times,serif" font-size="14.00">Transmits &amp; Deserializes</text>
</g>
<!-- Browser Environment&#45;&gt;Node.js Test Runner -->
<g id="edge3" class="edge">
<title>Browser Environment&#45;&gt;Node.js Test Runner</title>
<path fill="none" stroke="black" d="M407.22,-257.48C411.23,-275.86 417.24,-305.68 420.25,-331.75 431.65,-430.4 433.83,-548.43 434.2,-601.59"/>
<polygon fill="black" stroke="black" points="430.7,-601.29 434.25,-611.27 437.7,-601.25 430.7,-601.29"/>
<text xml:space="preserve" text-anchor="middle" x="504.76" y="-426.95" font-family="Times,serif" font-size="14.00">Dispatches functions</text>
</g>
<!-- Browser Environment&#45;&gt;Component Definition -->
<g id="edge5" class="edge">
<title>Browser Environment&#45;&gt;Component Definition</title>
<path fill="none" stroke="black" d="M412.57,-220.78C430.81,-187.07 471.38,-112.12 493.38,-71.48"/>
<polygon fill="black" stroke="black" points="496.4,-73.25 498.08,-62.79 490.24,-69.92 496.4,-73.25"/>
<text xml:space="preserve" text-anchor="middle" x="482" y="-132.95" font-family="Times,serif" font-size="14.00">Renders</text>
</g>
</g>
</svg>
