<?xml version="1.0" encoding="UTF-8" standalone="no"?>
<!DOCTYPE svg PUBLIC "-//W3C//DTD SVG 1.1//EN"
 "http://www.w3.org/Graphics/SVG/1.1/DTD/svg11.dtd">
<!-- Generated by graphviz version 2.44.1 (20201121.0304)
 -->
<!-- Title: G Pages: 1 -->
<svg width="395pt" height="388pt"
 viewBox="0.00 0.00 395.00 388.00" xmlns="http://www.w3.org/2000/svg" xmlns:xlink="http://www.w3.org/1999/xlink"><style>
  * {
    fill: transparent !important;
    stroke: rgb(30, 30, 30) !important;
    stroke-width: 1 !important;
  }
  polygon:not(.cluster *, .node *, .edge *, text) {
    stroke: transparent !important;
  }
  text {
    font-size: 10px !important;
    font-family: monospace !important;
    fill: rgb(30, 30, 30) !important;
    stroke: transparent !important;
    transform: translateY(-0.5em);
  }
</style>
<g id="graph0" class="graph" transform="scale(1 1) rotate(0) translate(4 384)">
<title>G</title>
<polygon fill="white" stroke="none" points="-4,4 -4,-384 390.5,-384 390.5,4 -4,4"/>
<!-- ConfigSetup -->
<g id="node1" class="node">
<title>ConfigSetup</title>
<polygon fill="lightblue" stroke="black" points="136,-208 30,-208 30,-172 136,-172 136,-208"/>
<text xml:space="preserve" text-anchor="middle" x="83" y="-181.95" font-family="Times,serif" font-size="14.00">defineConfig</text>
</g>
<!-- TestInfrastructure -->
<g id="node2" class="node">
<title>TestInfrastructure</title>
<polygon fill="lightblue" stroke="black" points="166,-52 0,-52 0,-16 166,-16 166,-52"/>
<text xml:space="preserve" text-anchor="middle" x="83" y="-25.95" font-family="Times,serif" font-size="14.00">experimental&#45;ct&#45;core</text>
</g>
<!-- ConfigSetup&#45;&gt;TestInfrastructure -->
<g id="edge1" class="edge">
<title>ConfigSetup&#45;&gt;TestInfrastructure</title>
<path fill="none" stroke="black" d="M83,-171.63C83,-145.27 83,-94.87 83,-63.2"/>
<polygon fill="black" stroke="black" points="86.5,-63.58 83,-53.58 79.5,-63.58 86.5,-63.58"/>
<text xml:space="preserve" text-anchor="middle" x="120.5" y="-103.95" font-family="Times,serif" font-size="14.00">configures</text>
</g>
<!-- ComponentTestAPI -->
<g id="node3" class="node">
<title>ComponentTestAPI</title>
<polygon fill="lightblue" stroke="black" points="297,-208 191,-208 191,-172 297,-172 297,-208"/>
<text xml:space="preserve" text-anchor="middle" x="244" y="-181.95" font-family="Times,serif" font-size="14.00">mount / test</text>
</g>
<!-- ComponentTestAPI&#45;&gt;TestInfrastructure -->
<g id="edge2" class="edge">
<title>ComponentTestAPI&#45;&gt;TestInfrastructure</title>
<path fill="none" stroke="black" d="M227.28,-171.74C210.88,-154.92 185.05,-128.75 162,-106.75 145.42,-90.92 126.41,-73.64 111.2,-60"/>
<polygon fill="black" stroke="black" points="113.64,-57.49 103.86,-53.43 108.98,-62.71 113.64,-57.49"/>
<text xml:space="preserve" text-anchor="middle" x="186.08" y="-103.95" font-family="Times,serif" font-size="14.00">uses</text>
</g>
<!-- ComponentLifecycleHooks -->
<g id="node4" class="node">
<title>ComponentLifecycleHooks</title>
<polygon fill="lightblue" stroke="black" points="380,-52 184,-52 184,-16 380,-16 380,-52"/>
<text xml:space="preserve" text-anchor="middle" x="282" y="-25.95" font-family="Times,serif" font-size="14.00">beforeMount / afterMount</text>
</g>
<!-- ComponentTestAPI&#45;&gt;ComponentLifecycleHooks -->
<g id="edge3" class="edge">
<title>ComponentTestAPI&#45;&gt;ComponentLifecycleHooks</title>
<path fill="none" stroke="black" d="M248.29,-171.63C254.79,-145.27 267.23,-94.87 275.04,-63.2"/>
<polygon fill="black" stroke="black" points="278.43,-64.08 277.43,-53.54 271.63,-62.41 278.43,-64.08"/>
<text xml:space="preserve" text-anchor="middle" x="301.64" y="-103.95" font-family="Times,serif" font-size="14.00">integrates</text>
</g>
<!-- ComponentRegistration -->
<g id="node5" class="node">
<title>ComponentRegistration</title>
<polygon fill="lightblue" stroke="black" points="289.5,-364 198.5,-364 198.5,-328 289.5,-328 289.5,-364"/>
<text xml:space="preserve" text-anchor="middle" x="244" y="-337.95" font-family="Times,serif" font-size="14.00">pwRegister</text>
</g>
<!-- ComponentRegistration&#45;&gt;ComponentTestAPI -->
<g id="edge4" class="edge">
<title>ComponentRegistration&#45;&gt;ComponentTestAPI</title>
<path fill="none" stroke="black" d="M244,-327.63C244,-301.27 244,-250.87 244,-219.2"/>
<polygon fill="black" stroke="black" points="247.5,-219.58 244,-209.58 240.5,-219.58 247.5,-219.58"/>
<text xml:space="preserve" text-anchor="middle" x="315.25" y="-259.95" font-family="Times,serif" font-size="14.00">provides components</text>
</g>
</g>
</svg>
