<?xml version="1.0" encoding="UTF-8" standalone="no"?>
<!DOCTYPE svg PUBLIC "-//W3C//DTD SVG 1.1//EN"
 "http://www.w3.org/Graphics/SVG/1.1/DTD/svg11.dtd">
<!-- Generated by graphviz version 2.44.1 (20201121.0304)
 -->
<!-- Title: G Pages: 1 -->
<svg width="770pt" height="734pt"
 viewBox="0.00 0.00 770.00 734.00" xmlns="http://www.w3.org/2000/svg" xmlns:xlink="http://www.w3.org/1999/xlink"><style>
  * {
    fill: transparent !important;
    stroke: rgb(30, 30, 30) !important;
    stroke-width: 1 !important;
  }
  polygon:not(.cluster *, .node *, .edge *, text) {
    stroke: transparent !important;
  }
  text {
    font-size: 10px !important;
    font-family: monospace !important;
    fill: rgb(30, 30, 30) !important;
    stroke: transparent !important;
    transform: translateY(-0.5em);
  }
</style>
<g id="graph0" class="graph" transform="scale(1 1) rotate(0) translate(4 730)">
<title>G</title>
<polygon fill="white" stroke="none" points="-4,4 -4,-730 766.28,-730 766.28,4 -4,4"/>
<!-- expect.ts: `expect` Function -->
<g id="node1" class="node">
<title>expect.ts: `expect` Function</title>
<polygon fill="lightblue" stroke="black" points="417.53,-700 191.53,-700 191.53,-664 417.53,-664 417.53,-700"/>
<text xml:space="preserve" text-anchor="middle" x="304.53" y="-679.2" font-family="Times,serif" font-size="14.00">expect.ts: `expect` Function</text>
<text xml:space="preserve" text-anchor="middle" x="304.53" y="-668.7" font-family="Times,serif" font-size="14.00">(Core API)</text>
</g>
<!-- expectLibrary.ts: Jest Matchers -->
<g id="node2" class="node">
<title>expectLibrary.ts: Jest Matchers</title>
<polygon fill="lightblue" stroke="black" points="284.78,-239 36.28,-239 36.28,-203 284.78,-203 284.78,-239"/>
<text xml:space="preserve" text-anchor="middle" x="160.53" y="-218.2" font-family="Times,serif" font-size="14.00">expectLibrary.ts: Jest Matchers</text>
<text xml:space="preserve" text-anchor="middle" x="160.53" y="-207.7" font-family="Times,serif" font-size="14.00">(toBe, toEqual, etc.)</text>
</g>
<!-- expect.ts: `expect` Function&#45;&gt;expectLibrary.ts: Jest Matchers -->
<g id="edge1" class="edge">
<title>expect.ts: `expect` Function&#45;&gt;expectLibrary.ts: Jest Matchers</title>
<path fill="none" stroke="black" d="M269.21,-663.53C218.99,-636.45 129,-579.11 92.53,-500 52.53,-413.25 110.96,-300.01 142.54,-248.99"/>
<polygon fill="black" stroke="black" points="145.43,-250.96 147.83,-240.64 139.52,-247.21 145.43,-250.96"/>
<text xml:space="preserve" text-anchor="middle" x="137.53" y="-473.95" font-family="Times,serif" font-size="14.00">Uses/Extends</text>
</g>
<!-- matchers.ts: Playwright Matchers -->
<g id="node3" class="node">
<title>matchers.ts: Playwright Matchers</title>
<polygon fill="lightblue" stroke="black" points="558.53,-239 302.53,-239 302.53,-203 558.53,-203 558.53,-239"/>
<text xml:space="preserve" text-anchor="middle" x="430.53" y="-218.2" font-family="Times,serif" font-size="14.00">matchers.ts: Playwright Matchers</text>
<text xml:space="preserve" text-anchor="middle" x="430.53" y="-207.7" font-family="Times,serif" font-size="14.00">(toBeVisible, toHaveText, etc.)</text>
</g>
<!-- expect.ts: `expect` Function&#45;&gt;matchers.ts: Playwright Matchers -->
<g id="edge2" class="edge">
<title>expect.ts: `expect` Function&#45;&gt;matchers.ts: Playwright Matchers</title>
<path fill="none" stroke="black" d="M321.63,-663.97C350.33,-634.01 406.95,-568.5 426.53,-500 451.7,-411.92 441.75,-301.65 434.91,-250.5"/>
<polygon fill="black" stroke="black" points="438.42,-250.29 433.56,-240.87 431.49,-251.26 438.42,-250.29"/>
<text xml:space="preserve" text-anchor="middle" x="479.13" y="-473.95" font-family="Times,serif" font-size="14.00">Uses/Extends</text>
</g>
<!-- toMatchSnapshot.ts: Snapshot Matchers -->
<g id="node4" class="node">
<title>toMatchSnapshot.ts: Snapshot Matchers</title>
<polygon fill="lightblue" stroke="black" points="762.28,-369 468.78,-369 468.78,-333 762.28,-333 762.28,-369"/>
<text xml:space="preserve" text-anchor="middle" x="615.53" y="-348.2" font-family="Times,serif" font-size="14.00">toMatchSnapshot.ts: Snapshot Matchers</text>
<text xml:space="preserve" text-anchor="middle" x="615.53" y="-337.7" font-family="Times,serif" font-size="14.00">(toMatchSnapshot, toHaveScreenshot)</text>
</g>
<!-- expect.ts: `expect` Function&#45;&gt;toMatchSnapshot.ts: Snapshot Matchers -->
<g id="edge3" class="edge">
<title>expect.ts: `expect` Function&#45;&gt;toMatchSnapshot.ts: Snapshot Matchers</title>
<path fill="none" stroke="black" d="M342.18,-663.51C376.61,-646.58 428.03,-618.88 467.53,-587.25 508.59,-554.36 518.41,-543.82 547.53,-500 573.33,-461.15 594.11,-410.93 605.63,-380.12"/>
<polygon fill="black" stroke="black" points="608.91,-381.33 609.06,-370.74 602.34,-378.93 608.91,-381.33"/>
<text xml:space="preserve" text-anchor="middle" x="525.46" y="-573.95" font-family="Times,serif" font-size="14.00">Uses/Extends</text>
</g>
<!-- expect.ts: Polling Mechanism -->
<g id="node5" class="node">
<title>expect.ts: Polling Mechanism</title>
<polygon fill="lightblue" stroke="black" points="417.53,-500 191.53,-500 191.53,-464 417.53,-464 417.53,-500"/>
<text xml:space="preserve" text-anchor="middle" x="304.53" y="-479.2" font-family="Times,serif" font-size="14.00">expect.ts: Polling Mechanism</text>
<text xml:space="preserve" text-anchor="middle" x="304.53" y="-468.7" font-family="Times,serif" font-size="14.00">(expect.poll())</text>
</g>
<!-- expect.ts: `expect` Function&#45;&gt;expect.ts: Polling Mechanism -->
<g id="edge4" class="edge">
<title>expect.ts: `expect` Function&#45;&gt;expect.ts: Polling Mechanism</title>
<path fill="none" stroke="black" d="M304.53,-663.78C304.53,-629.69 304.53,-553.35 304.53,-511.6"/>
<polygon fill="black" stroke="black" points="308.03,-511.84 304.53,-501.84 301.03,-511.84 308.03,-511.84"/>
<text xml:space="preserve" text-anchor="middle" x="342.03" y="-573.95" font-family="Times,serif" font-size="14.00">Integrates</text>
</g>
<!-- matcherHint.ts: Error Reporting -->
<g id="node6" class="node">
<title>matcherHint.ts: Error Reporting</title>
<polygon fill="lightblue" stroke="black" points="468.78,-62 190.28,-62 190.28,-26 468.78,-26 468.78,-62"/>
<text xml:space="preserve" text-anchor="middle" x="329.53" y="-41.2" font-family="Times,serif" font-size="14.00">matcherHint.ts: Error Reporting</text>
<text xml:space="preserve" text-anchor="middle" x="329.53" y="-30.7" font-family="Times,serif" font-size="14.00">(ExpectError, formatMatcherMessage)</text>
</g>
<!-- expect.ts: `expect` Function&#45;&gt;matcherHint.ts: Error Reporting -->
<g id="edge7" class="edge">
<title>expect.ts: `expect` Function&#45;&gt;matcherHint.ts: Error Reporting</title>
<path fill="none" stroke="black" d="M266.24,-663.56C232.29,-646.95 182.48,-619.71 145.53,-587.25 48.04,-501.62 -10.52,-462.15 2.03,-333 7.72,-274.4 -7.69,-250.18 27.53,-203 81.7,-130.42 179.06,-88.15 248.59,-65.89"/>
<polygon fill="black" stroke="black" points="249.55,-69.26 258.05,-62.94 247.46,-62.57 249.55,-69.26"/>
<text xml:space="preserve" text-anchor="middle" x="43.28" y="-342.95" font-family="Times,serif" font-size="14.00">Reports via</text>
</g>
<!-- expectLibrary.ts: Jest Matchers&#45;&gt;matcherHint.ts: Error Reporting -->
<g id="edge8" class="edge">
<title>expectLibrary.ts: Jest Matchers&#45;&gt;matcherHint.ts: Error Reporting</title>
<path fill="none" stroke="black" d="M177.35,-202.58C207.34,-171.53 270.15,-106.48 304.97,-70.43"/>
<polygon fill="black" stroke="black" points="307.29,-73.06 311.72,-63.44 302.26,-68.2 307.29,-73.06"/>
</g>
<!-- matchers.ts: Playwright Matchers&#45;&gt;matcherHint.ts: Error Reporting -->
<g id="edge9" class="edge">
<title>matchers.ts: Playwright Matchers&#45;&gt;matcherHint.ts: Error Reporting</title>
<path fill="none" stroke="black" d="M420.47,-202.58C402.85,-172.05 366.27,-108.67 345.27,-72.28"/>
<polygon fill="black" stroke="black" points="348.33,-70.57 340.3,-63.66 342.26,-74.07 348.33,-70.57"/>
</g>
<!-- toMatchSnapshot.ts: Snapshot Matchers&#45;&gt;matcherHint.ts: Error Reporting -->
<g id="edge10" class="edge">
<title>toMatchSnapshot.ts: Snapshot Matchers&#45;&gt;matcherHint.ts: Error Reporting</title>
<path fill="none" stroke="black" d="M613.63,-332.9C609.64,-303.62 598.08,-243.17 567.53,-203 518.69,-138.79 435.83,-92.39 381.9,-67.09"/>
<polygon fill="black" stroke="black" points="383.44,-63.94 372.89,-62.94 380.51,-70.3 383.44,-63.94"/>
</g>
<!-- expect.ts: Polling Mechanism&#45;&gt;expectLibrary.ts: Jest Matchers -->
<g id="edge5" class="edge">
<title>expect.ts: Polling Mechanism&#45;&gt;expectLibrary.ts: Jest Matchers</title>
<path fill="none" stroke="black" d="M294.85,-463.6C270.26,-419.37 205.19,-302.34 175.58,-249.08"/>
<polygon fill="black" stroke="black" points="178.81,-247.68 170.89,-240.64 172.69,-251.08 178.81,-247.68"/>
<text xml:space="preserve" text-anchor="middle" x="278.65" y="-342.95" font-family="Times,serif" font-size="14.00">Applies to</text>
</g>
<!-- expect.ts: Polling Mechanism&#45;&gt;matchers.ts: Playwright Matchers -->
<g id="edge6" class="edge">
<title>expect.ts: Polling Mechanism&#45;&gt;matchers.ts: Playwright Matchers</title>
<path fill="none" stroke="black" d="M310.55,-463.76C320.54,-435.77 341.72,-378.94 364.53,-333 379.24,-303.36 398.93,-270.99 412.97,-248.9"/>
<polygon fill="black" stroke="black" points="415.9,-250.81 418.35,-240.5 410.01,-247.03 415.9,-250.81"/>
<text xml:space="preserve" text-anchor="middle" x="402.03" y="-342.95" font-family="Times,serif" font-size="14.00">Applies to</text>
</g>
</g>
</svg>
