<?xml version="1.0" encoding="UTF-8" standalone="no"?>
<!DOCTYPE svg PUBLIC "-//W3C//DTD SVG 1.1//EN"
 "http://www.w3.org/Graphics/SVG/1.1/DTD/svg11.dtd">
<!-- Generated by graphviz version 2.44.1 (20201121.0304)
 -->
<!-- Title: G Pages: 1 -->
<svg width="1304pt" height="1304pt"
 viewBox="0.00 0.00 1304.00 1304.00" xmlns="http://www.w3.org/2000/svg" xmlns:xlink="http://www.w3.org/1999/xlink"><style>
  * {
    fill: transparent !important;
    stroke: rgb(30, 30, 30) !important;
    stroke-width: 1 !important;
  }
  polygon:not(.cluster *, .node *, .edge *, text) {
    stroke: transparent !important;
  }
  text {
    font-size: 10px !important;
    font-family: monospace !important;
    fill: rgb(30, 30, 30) !important;
    stroke: transparent !important;
    transform: translateY(-0.5em);
  }
</style>
<g id="graph0" class="graph" transform="scale(1 1) rotate(0) translate(4 1299.5)">
<title>G</title>
<polygon fill="white" stroke="none" points="-4,4 -4,-1299.5 1299.5,-1299.5 1299.5,4 -4,4"/>
<!-- PlaywrightCLI -->
<g id="node1" class="node">
<title>PlaywrightCLI</title>
<polygon fill="lightblue" stroke="black" points="758.5,-1197 532.5,-1197 532.5,-1161 758.5,-1161 758.5,-1197"/>
<text xml:space="preserve" text-anchor="middle" x="645.5" y="-1170.95" font-family="Times,serif" font-size="14.00">program.ts (CLI Entry Point)</text>
</g>
<!-- BrowserActions -->
<g id="node2" class="node">
<title>BrowserActions</title>
<polygon fill="lightblue" stroke="black" points="301,-666 0,-666 0,-630 301,-630 301,-666"/>
<text xml:space="preserve" text-anchor="middle" x="150.5" y="-639.95" font-family="Times,serif" font-size="14.00">browserActions.ts (Browser Operations)</text>
</g>
<!-- PlaywrightCLI&#45;&gt;BrowserActions -->
<g id="edge1" class="edge">
<title>PlaywrightCLI&#45;&gt;BrowserActions</title>
<path fill="none" stroke="black" d="M626.32,-1160.77C581.39,-1120.13 466.41,-1014.53 377.5,-919.25 297.36,-833.36 209.94,-724.55 171.09,-675.31"/>
<polygon fill="black" stroke="black" points="173.86,-673.17 164.92,-667.48 168.36,-677.5 173.86,-673.17"/>
<text xml:space="preserve" text-anchor="middle" x="437.5" y="-905.95" font-family="Times,serif" font-size="14.00">invokes commands</text>
</g>
<!-- InstallActions -->
<g id="node3" class="node">
<title>InstallActions</title>
<polygon fill="lightblue" stroke="black" points="635.5,-666 319.5,-666 319.5,-630 635.5,-630 635.5,-666"/>
<text xml:space="preserve" text-anchor="middle" x="477.5" y="-639.95" font-family="Times,serif" font-size="14.00">installActions.ts (Browser Provisioning)</text>
</g>
<!-- PlaywrightCLI&#45;&gt;InstallActions -->
<g id="edge2" class="edge">
<title>PlaywrightCLI&#45;&gt;InstallActions</title>
<path fill="none" stroke="black" d="M632.64,-1160.63C603.72,-1120.54 533.76,-1017.43 503.5,-919.25 477.33,-834.33 475.61,-727.92 476.51,-677.73"/>
<polygon fill="black" stroke="black" points="480.01,-677.82 476.75,-667.74 473.01,-677.65 480.01,-677.82"/>
<text xml:space="preserve" text-anchor="middle" x="608.5" y="-905.95" font-family="Times,serif" font-size="14.00">manages browser installation</text>
</g>
<!-- DriverCore -->
<g id="node4" class="node">
<title>DriverCore</title>
<polygon fill="lightblue" stroke="black" points="871.75,-666 653.25,-666 653.25,-630 871.75,-630 871.75,-666"/>
<text xml:space="preserve" text-anchor="middle" x="762.5" y="-639.95" font-family="Times,serif" font-size="14.00">driver.ts (Driver &amp; Server)</text>
</g>
<!-- PlaywrightCLI&#45;&gt;DriverCore -->
<g id="edge3" class="edge">
<title>PlaywrightCLI&#45;&gt;DriverCore</title>
<path fill="none" stroke="black" d="M651.04,-1160.59C664.07,-1119.15 697.11,-1011.21 717.5,-919.25 736.86,-831.92 752.06,-727.05 758.77,-677.55"/>
<polygon fill="black" stroke="black" points="762.23,-678.07 760.08,-667.7 755.29,-677.14 762.23,-678.07"/>
<text xml:space="preserve" text-anchor="middle" x="786.57" y="-905.95" font-family="Times,serif" font-size="14.00">runs driver/server</text>
</g>
<!-- TestIntegration -->
<g id="node5" class="node">
<title>TestIntegration</title>
<polygon fill="lightblue" stroke="black" points="1295.5,-666 889.5,-666 889.5,-630 1295.5,-630 1295.5,-666"/>
<text xml:space="preserve" text-anchor="middle" x="1092.5" y="-639.95" font-family="Times,serif" font-size="14.00">programWithTestStub.ts (Playwright Test Integration)</text>
</g>
<!-- PlaywrightCLI&#45;&gt;TestIntegration -->
<g id="edge4" class="edge">
<title>PlaywrightCLI&#45;&gt;TestIntegration</title>
<path fill="none" stroke="black" d="M660.12,-1160.7C725.57,-1083.24 991.93,-768.02 1070.55,-674.97"/>
<polygon fill="black" stroke="black" points="1073.01,-677.49 1076.79,-667.59 1067.66,-672.97 1073.01,-677.49"/>
<text xml:space="preserve" text-anchor="middle" x="925.25" y="-905.95" font-family="Times,serif" font-size="14.00">integrates with</text>
</g>
<!-- BinScripts -->
<g id="node6" class="node">
<title>BinScripts</title>
<polygon fill="lightblue" stroke="black" points="676.75,-134 278.25,-134 278.25,-98 676.75,-98 676.75,-134"/>
<text xml:space="preserve" text-anchor="middle" x="477.5" y="-107.95" font-family="Times,serif" font-size="14.00">bin/*.ps1 / bin/*.sh (Platform&#45;Specific Installers)</text>
</g>
<!-- InstallActions&#45;&gt;BinScripts -->
<g id="edge5" class="edge">
<title>InstallActions&#45;&gt;BinScripts</title>
<path fill="none" stroke="black" d="M477.5,-629.67C477.5,-552.84 477.5,-242.59 477.5,-145.91"/>
<polygon fill="black" stroke="black" points="481,-145.98 477.5,-135.98 474,-145.98 481,-145.98"/>
<text xml:space="preserve" text-anchor="middle" x="507.5" y="-373.95" font-family="Times,serif" font-size="14.00">executes</text>
</g>
</g>
</svg>
