<?xml version="1.0" encoding="UTF-8" standalone="no"?>
<!DOCTYPE svg PUBLIC "-//W3C//DTD SVG 1.1//EN"
 "http://www.w3.org/Graphics/SVG/1.1/DTD/svg11.dtd">
<!-- Generated by graphviz version 2.44.1 (20201121.0304)
 -->
<!-- Title: G Pages: 1 -->
<svg width="480pt" height="480pt"
 viewBox="0.00 0.00 480.00 480.00" xmlns="http://www.w3.org/2000/svg" xmlns:xlink="http://www.w3.org/1999/xlink"><style>
  * {
    fill: transparent !important;
    stroke: rgb(30, 30, 30) !important;
    stroke-width: 1 !important;
  }
  polygon:not(.cluster *, .node *, .edge *, text) {
    stroke: transparent !important;
  }
  text {
    font-size: 10px !important;
    font-family: monospace !important;
    fill: rgb(30, 30, 30) !important;
    stroke: transparent !important;
    transform: translateY(-0.5em);
  }
</style>
<g id="graph0" class="graph" transform="scale(1 1) rotate(0) translate(4 475.75)">
<title>G</title>
<polygon fill="white" stroke="none" points="-4,4 -4,-475.75 475.75,-475.75 475.75,4 -4,4"/>
<!-- ElectronLaunch -->
<g id="node1" class="node">
<title>ElectronLaunch</title>
<polygon fill="lightblue" stroke="black" points="244,-467 48,-467 48,-431 244,-431 244,-467"/>
<text xml:space="preserve" text-anchor="middle" x="146" y="-440.95" font-family="Times,serif" font-size="14.00">Electron.launch(options)</text>
</g>
<!-- ElectronAppProcess -->
<g id="node2" class="node">
<title>ElectronAppProcess</title>
<polygon fill="lightblue" stroke="black" points="232.75,-254 59.25,-254 59.25,-218 232.75,-218 232.75,-254"/>
<text xml:space="preserve" text-anchor="middle" x="146" y="-227.95" font-family="Times,serif" font-size="14.00">Electron Main Process</text>
</g>
<!-- ElectronLaunch&#45;&gt;ElectronAppProcess -->
<g id="edge1" class="edge">
<title>ElectronLaunch&#45;&gt;ElectronAppProcess</title>
<path fill="none" stroke="black" d="M143.97,-430.76C141.4,-406.81 137.47,-362.13 139,-324 139.78,-304.51 141.55,-282.61 143.11,-265.67"/>
<polygon fill="black" stroke="black" points="146.59,-266.1 144.05,-255.81 139.62,-265.44 146.59,-266.1"/>
<text xml:space="preserve" text-anchor="middle" x="169" y="-333.95" font-family="Times,serif" font-size="14.00">launches</text>
</g>
<!-- PlaywrightLoader -->
<g id="node3" class="node">
<title>PlaywrightLoader</title>
<polygon fill="lightblue" stroke="black" points="471.75,-360 208.25,-360 208.25,-324 471.75,-324 471.75,-360"/>
<text xml:space="preserve" text-anchor="middle" x="340" y="-333.95" font-family="Times,serif" font-size="14.00">playwright&#45;electron/src/loader.ts</text>
</g>
<!-- ElectronLaunch&#45;&gt;PlaywrightLoader -->
<g id="edge2" class="edge">
<title>ElectronLaunch&#45;&gt;PlaywrightLoader</title>
<path fill="none" stroke="black" d="M178.04,-430.66C210.89,-412.88 262.15,-385.13 298.19,-365.63"/>
<polygon fill="black" stroke="black" points="299.46,-368.92 306.59,-361.08 296.13,-362.77 299.46,-368.92"/>
<text xml:space="preserve" text-anchor="middle" x="331.32" y="-386.95" font-family="Times,serif" font-size="14.00">injects (non&#45;packaged)</text>
</g>
<!-- NodeDebugger -->
<g id="node4" class="node">
<title>NodeDebugger</title>
<polygon fill="lightblue" stroke="black" points="136,-148 0,-148 0,-112 136,-112 136,-148"/>
<text xml:space="preserve" text-anchor="middle" x="68" y="-121.95" font-family="Times,serif" font-size="14.00">Node.js Debugger</text>
</g>
<!-- ElectronAppProcess&#45;&gt;NodeDebugger -->
<g id="edge3" class="edge">
<title>ElectronAppProcess&#45;&gt;NodeDebugger</title>
<path fill="none" stroke="black" d="M133.12,-217.83C120.76,-201.34 101.91,-176.22 87.67,-157.23"/>
<polygon fill="black" stroke="black" points="90.61,-155.31 81.81,-149.41 85.01,-159.51 90.61,-155.31"/>
<text xml:space="preserve" text-anchor="middle" x="139.34" y="-174.95" font-family="Times,serif" font-size="14.00">connects</text>
</g>
<!-- ChromiumDevTools -->
<g id="node5" class="node">
<title>ChromiumDevTools</title>
<polygon fill="lightblue" stroke="black" points="297.75,-148 154.25,-148 154.25,-112 297.75,-112 297.75,-148"/>
<text xml:space="preserve" text-anchor="middle" x="226" y="-121.95" font-family="Times,serif" font-size="14.00">Chromium DevTools</text>
</g>
<!-- ElectronAppProcess&#45;&gt;ChromiumDevTools -->
<g id="edge4" class="edge">
<title>ElectronAppProcess&#45;&gt;ChromiumDevTools</title>
<path fill="none" stroke="black" d="M159.21,-217.83C171.89,-201.34 191.22,-176.22 205.83,-157.23"/>
<polygon fill="black" stroke="black" points="208.52,-159.46 211.85,-149.4 202.98,-155.19 208.52,-159.46"/>
<text xml:space="preserve" text-anchor="middle" x="218.4" y="-174.95" font-family="Times,serif" font-size="14.00">connects</text>
</g>
<!-- PlaywrightLoader&#45;&gt;ElectronAppProcess -->
<g id="edge5" class="edge">
<title>PlaywrightLoader&#45;&gt;ElectronAppProcess</title>
<path fill="none" stroke="black" d="M307.53,-323.59C274.79,-306.04 224.12,-278.88 188.27,-259.66"/>
<polygon fill="black" stroke="black" points="190.38,-256.82 179.91,-255.18 187.07,-262.99 190.38,-256.82"/>
<text xml:space="preserve" text-anchor="middle" x="286.32" y="-280.95" font-family="Times,serif" font-size="14.00">configures</text>
</g>
<!-- ElectronApplicationAPI -->
<g id="node6" class="node">
<title>ElectronApplicationAPI</title>
<polygon fill="lightblue" stroke="black" points="240.25,-41 51.75,-41 51.75,-5 240.25,-5 240.25,-41"/>
<text xml:space="preserve" text-anchor="middle" x="146" y="-14.95" font-family="Times,serif" font-size="14.00">ElectronApplication API</text>
</g>
<!-- NodeDebugger&#45;&gt;ElectronApplicationAPI -->
<g id="edge6" class="edge">
<title>NodeDebugger&#45;&gt;ElectronApplicationAPI</title>
<path fill="none" stroke="black" d="M76.85,-111.53C83.2,-99.61 92.33,-83.69 102,-70.75 107.44,-63.47 113.88,-56.08 120.13,-49.39"/>
<polygon fill="black" stroke="black" points="122.4,-52.08 126.81,-42.45 117.36,-47.23 122.4,-52.08"/>
<text xml:space="preserve" text-anchor="middle" x="147" y="-67.95" font-family="Times,serif" font-size="14.00">communicates</text>
</g>
<!-- ChromiumDevTools&#45;&gt;ElectronApplicationAPI -->
<g id="edge7" class="edge">
<title>ChromiumDevTools&#45;&gt;ElectronApplicationAPI</title>
<path fill="none" stroke="black" d="M217.38,-111.72C211.06,-99.74 201.89,-83.68 192,-70.75 186.36,-63.37 179.64,-55.95 173.11,-49.26"/>
<polygon fill="black" stroke="black" points="175.66,-46.87 166.1,-42.3 170.73,-51.83 175.66,-46.87"/>
<text xml:space="preserve" text-anchor="middle" x="243.43" y="-67.95" font-family="Times,serif" font-size="14.00">communicates</text>
</g>
</g>
</svg>
