<?xml version="1.0" encoding="UTF-8" standalone="no"?>
<!DOCTYPE svg PUBLIC "-//W3C//DTD SVG 1.1//EN"
 "http://www.w3.org/Graphics/SVG/1.1/DTD/svg11.dtd">
<!-- Generated by graphviz version 2.44.1 (20201121.0304)
 -->
<!-- Title: G Pages: 1 -->
<svg width="651pt" height="651pt"
 viewBox="0.00 0.00 651.00 651.00" xmlns="http://www.w3.org/2000/svg" xmlns:xlink="http://www.w3.org/1999/xlink"><style>
  * {
    fill: transparent !important;
    stroke: rgb(30, 30, 30) !important;
    stroke-width: 1 !important;
  }
  polygon:not(.cluster *, .node *, .edge *, text) {
    stroke: transparent !important;
  }
  text {
    font-size: 10px !important;
    font-family: monospace !important;
    fill: rgb(30, 30, 30) !important;
    stroke: transparent !important;
    transform: translateY(-0.5em);
  }
</style>
<g id="graph0" class="graph" transform="scale(1 1) rotate(0) translate(4 647.25)">
<title>G</title>
<polygon fill="white" stroke="none" points="-4,4 -4,-647.25 647.25,-647.25 647.25,4 -4,4"/>
<!-- BrowserTypeLauncher -->
<g id="node1" class="node">
<title>BrowserTypeLauncher</title>
<polygon fill="lightblue" stroke="black" points="417.5,-620 236.5,-620 236.5,-584 417.5,-584 417.5,-620"/>
<text xml:space="preserve" text-anchor="middle" x="327" y="-593.95" font-family="Helvetica,sans-Serif" font-size="14.00">BrowserType / Launcher</text>
</g>
<!-- BrowserFamily -->
<g id="node2" class="node">
<title>BrowserFamily</title>
<polygon fill="lightblue" stroke="black" points="515,-433 139,-433 139,-397 515,-397 515,-433"/>
<text xml:space="preserve" text-anchor="middle" x="327" y="-406.95" font-family="Helvetica,sans-Serif" font-size="14.00">Browser Family (e.g., Chromium, Firefox, WebKit)</text>
</g>
<!-- BrowserTypeLauncher&#45;&gt;BrowserFamily -->
<g id="edge1" class="edge">
<title>BrowserTypeLauncher&#45;&gt;BrowserFamily</title>
<path fill="none" stroke="#333333" d="M327,-583.6C327,-551.71 327,-483.64 327,-444.77"/>
<polygon fill="#333333" stroke="#333333" points="330.5,-445.01 327,-435.01 323.5,-445.01 330.5,-445.01"/>
<text xml:space="preserve" text-anchor="middle" x="353.25" y="-504.75" font-family="Helvetica,sans-Serif" font-size="10.00">manages</text>
</g>
<!-- BrowserInstance -->
<g id="node3" class="node">
<title>BrowserInstance</title>
<polygon fill="lightblue" stroke="black" points="136,-246 0,-246 0,-210 136,-210 136,-246"/>
<text xml:space="preserve" text-anchor="middle" x="68" y="-219.95" font-family="Helvetica,sans-Serif" font-size="14.00">Browser Instance</text>
</g>
<!-- BrowserFamily&#45;&gt;BrowserInstance -->
<g id="edge2" class="edge">
<title>BrowserFamily&#45;&gt;BrowserInstance</title>
<path fill="none" stroke="#333333" d="M302.63,-396.6C256.16,-363.4 154.79,-290.99 101.8,-253.14"/>
<polygon fill="#333333" stroke="#333333" points="103.89,-250.34 93.72,-247.37 99.82,-256.03 103.89,-250.34"/>
<text xml:space="preserve" text-anchor="middle" x="235.27" y="-317.75" font-family="Helvetica,sans-Serif" font-size="10.00">launches</text>
</g>
<!-- BidiImplementations -->
<g id="node5" class="node">
<title>BidiImplementations</title>
<polygon fill="lightblue" stroke="black" points="320,-246 154,-246 154,-210 320,-210 320,-246"/>
<text xml:space="preserve" text-anchor="middle" x="237" y="-219.95" font-family="Helvetica,sans-Serif" font-size="14.00">BiDi Implementations</text>
</g>
<!-- BrowserFamily&#45;&gt;BidiImplementations -->
<g id="edge4" class="edge">
<title>BrowserFamily&#45;&gt;BidiImplementations</title>
<path fill="none" stroke="#333333" d="M318.53,-396.6C302.85,-364.37 269.19,-295.17 250.39,-256.52"/>
<polygon fill="#333333" stroke="#333333" points="253.69,-255.32 246.17,-247.85 247.4,-258.38 253.69,-255.32"/>
<text xml:space="preserve" text-anchor="middle" x="318.45" y="-317.75" font-family="Helvetica,sans-Serif" font-size="10.00">uses BiDi</text>
</g>
<!-- CDPImplementations -->
<g id="node6" class="node">
<title>CDPImplementations</title>
<polygon fill="lightblue" stroke="black" points="496.25,-246 337.75,-246 337.75,-210 496.25,-210 496.25,-246"/>
<text xml:space="preserve" text-anchor="middle" x="417" y="-219.95" font-family="Helvetica,sans-Serif" font-size="14.00">CDP Implementations</text>
</g>
<!-- BrowserFamily&#45;&gt;CDPImplementations -->
<g id="edge5" class="edge">
<title>BrowserFamily&#45;&gt;CDPImplementations</title>
<path fill="none" stroke="#333333" d="M335.47,-396.6C351.15,-364.37 384.81,-295.17 403.61,-256.52"/>
<polygon fill="#333333" stroke="#333333" points="406.6,-258.38 407.83,-247.85 400.31,-255.32 406.6,-258.38"/>
<text xml:space="preserve" text-anchor="middle" x="402" y="-317.75" font-family="Helvetica,sans-Serif" font-size="10.00">uses CDP</text>
</g>
<!-- WebKitSpecific -->
<g id="node7" class="node">
<title>WebKitSpecific</title>
<polygon fill="lightblue" stroke="black" points="643.25,-246 514.75,-246 514.75,-210 643.25,-210 643.25,-246"/>
<text xml:space="preserve" text-anchor="middle" x="579" y="-219.95" font-family="Helvetica,sans-Serif" font-size="14.00">WebKit Specific</text>
</g>
<!-- BrowserFamily&#45;&gt;WebKitSpecific -->
<g id="edge6" class="edge">
<title>BrowserFamily&#45;&gt;WebKitSpecific</title>
<path fill="none" stroke="#333333" d="M350.71,-396.6C395.92,-363.4 494.56,-290.99 546.12,-253.14"/>
<polygon fill="#333333" stroke="#333333" points="547.96,-256.13 553.95,-247.39 543.82,-250.49 547.96,-256.13"/>
<text xml:space="preserve" text-anchor="middle" x="494.25" y="-317.75" font-family="Helvetica,sans-Serif" font-size="10.00">uses WebKit</text>
</g>
<!-- BrowserContexts -->
<g id="node4" class="node">
<title>BrowserContexts</title>
<polygon fill="lightblue" stroke="black" points="132.25,-59 3.75,-59 3.75,-23 132.25,-23 132.25,-59"/>
<text xml:space="preserve" text-anchor="middle" x="68" y="-32.95" font-family="Helvetica,sans-Serif" font-size="14.00">BrowserContexts</text>
</g>
<!-- BrowserInstance&#45;&gt;BrowserContexts -->
<g id="edge3" class="edge">
<title>BrowserInstance&#45;&gt;BrowserContexts</title>
<path fill="none" stroke="#333333" d="M68,-209.6C68,-177.71 68,-109.64 68,-70.77"/>
<polygon fill="#333333" stroke="#333333" points="71.5,-71.01 68,-61.01 64.5,-71.01 71.5,-71.01"/>
<text xml:space="preserve" text-anchor="middle" x="94.25" y="-129.75" font-family="Helvetica,sans-Serif" font-size="10.00">creates</text>
</g>
</g>
</svg>
