<?xml version="1.0" encoding="UTF-8" standalone="no"?>
<!DOCTYPE svg PUBLIC "-//W3C//DTD SVG 1.1//EN"
 "http://www.w3.org/Graphics/SVG/1.1/DTD/svg11.dtd">
<!-- Generated by graphviz version 2.44.1 (20201121.0304)
 -->
<!-- Title: G Pages: 1 -->
<svg width="516pt" height="516pt"
 viewBox="0.00 0.00 516.00 516.00" xmlns="http://www.w3.org/2000/svg" xmlns:xlink="http://www.w3.org/1999/xlink"><style>
  * {
    fill: transparent !important;
    stroke: rgb(30, 30, 30) !important;
    stroke-width: 1 !important;
  }
  polygon:not(.cluster *, .node *, .edge *, text) {
    stroke: transparent !important;
  }
  text {
    font-size: 10px !important;
    font-family: monospace !important;
    fill: rgb(30, 30, 30) !important;
    stroke: transparent !important;
    transform: translateY(-0.5em);
  }
</style>
<g id="graph0" class="graph" transform="scale(1 1) rotate(0) translate(4 511.75)">
<title>G</title>
<polygon fill="white" stroke="none" points="-4,4 -4,-511.75 511.75,-511.75 511.75,4 -4,4"/>
<!-- Playwright -->
<g id="node1" class="node">
<title>Playwright</title>
<polygon fill="lightblue" stroke="black" points="224.5,-449 58.5,-449 58.5,-413 224.5,-413 224.5,-449"/>
<text xml:space="preserve" text-anchor="middle" x="141.5" y="-422.95" font-family="Times,serif" font-size="14.00">Playwright Framework</text>
</g>
<!-- FirefoxPatches -->
<g id="node2" class="node">
<title>FirefoxPatches</title>
<polygon fill="lightblue" stroke="black" points="241,-95 0,-95 0,-59 241,-59 241,-95"/>
<text xml:space="preserve" text-anchor="middle" x="120.5" y="-74.2" font-family="Times,serif" font-size="14.00">Firefox Pinned Version</text>
<text xml:space="preserve" text-anchor="middle" x="120.5" y="-63.7" font-family="Times,serif" font-size="14.00">(Juggler Backend, Preferences)</text>
</g>
<!-- Playwright&#45;&gt;FirefoxPatches -->
<g id="edge1" class="edge">
<title>Playwright&#45;&gt;FirefoxPatches</title>
<path fill="none" stroke="black" d="M130.4,-412.97C111.75,-383.25 74.88,-319.32 61.5,-259.25 49.03,-203.24 80.52,-139.96 102.14,-104.95"/>
<polygon fill="black" stroke="black" points="104.96,-107.03 107.38,-96.72 99.06,-103.27 104.96,-107.03"/>
<text xml:space="preserve" text-anchor="middle" x="114" y="-245.95" font-family="Times,serif" font-size="14.00">Interacts With</text>
</g>
<!-- WebKitEmbedders -->
<g id="node3" class="node">
<title>WebKitEmbedders</title>
<polygon fill="lightblue" stroke="black" points="507.75,-95 289.25,-95 289.25,-59 507.75,-59 507.75,-95"/>
<text xml:space="preserve" text-anchor="middle" x="398.5" y="-74.2" font-family="Times,serif" font-size="14.00">WebKit Pinned Version</text>
<text xml:space="preserve" text-anchor="middle" x="398.5" y="-63.7" font-family="Times,serif" font-size="14.00">(macOS &amp; Windows Embedders)</text>
</g>
<!-- Playwright&#45;&gt;WebKitEmbedders -->
<g id="edge2" class="edge">
<title>Playwright&#45;&gt;WebKitEmbedders</title>
<path fill="none" stroke="black" d="M142.06,-412.58C143.9,-378.51 151.78,-301.75 185.5,-248.75 228.13,-181.74 306.22,-129.29 355.08,-101.06"/>
<polygon fill="black" stroke="black" points="356.76,-104.13 363.72,-96.15 353.3,-98.04 356.76,-104.13"/>
<text xml:space="preserve" text-anchor="middle" x="238" y="-245.95" font-family="Times,serif" font-size="14.00">Interacts With</text>
</g>
<!-- SynchronizationScript -->
<g id="node4" class="node">
<title>SynchronizationScript</title>
<polygon fill="lightblue" stroke="black" points="450.25,-449 276.75,-449 276.75,-413 450.25,-413 450.25,-449"/>
<text xml:space="preserve" text-anchor="middle" x="363.5" y="-422.95" font-family="Times,serif" font-size="14.00">roll_from_upstream.sh</text>
</g>
<!-- SynchronizationScript&#45;&gt;FirefoxPatches -->
<g id="edge3" class="edge">
<title>SynchronizationScript&#45;&gt;FirefoxPatches</title>
<path fill="none" stroke="black" d="M359.55,-412.61C351.34,-378.92 330.17,-303.27 294.5,-248.75 255.03,-188.42 191.05,-132.77 152.65,-102.29"/>
<polygon fill="black" stroke="black" points="155.15,-99.81 145.12,-96.39 150.83,-105.32 155.15,-99.81"/>
<text xml:space="preserve" text-anchor="middle" x="345.04" y="-245.95" font-family="Times,serif" font-size="14.00">Synchronizes</text>
</g>
<!-- SynchronizationScript&#45;&gt;WebKitEmbedders -->
<g id="edge4" class="edge">
<title>SynchronizationScript&#45;&gt;WebKitEmbedders</title>
<path fill="none" stroke="black" d="M369.47,-412.83C379.71,-382.36 400.22,-316.65 407.5,-259.25 414.32,-205.47 407.91,-142.11 402.97,-106.34"/>
<polygon fill="black" stroke="black" points="406.49,-106.21 401.59,-96.82 399.56,-107.22 406.49,-106.21"/>
<text xml:space="preserve" text-anchor="middle" x="453.58" y="-245.95" font-family="Times,serif" font-size="14.00">Synchronizes</text>
</g>
</g>
</svg>
