<?xml version="1.0" encoding="UTF-8" standalone="no"?>
<!DOCTYPE svg PUBLIC "-//W3C//DTD SVG 1.1//EN"
 "http://www.w3.org/Graphics/SVG/1.1/DTD/svg11.dtd">
<!-- Generated by graphviz version 2.44.1 (20201121.0304)
 -->
<!-- Title: G Pages: 1 -->
<svg width="426pt" height="374pt"
 viewBox="0.00 0.00 426.00 374.00" xmlns="http://www.w3.org/2000/svg" xmlns:xlink="http://www.w3.org/1999/xlink"><style>
  * {
    fill: transparent !important;
    stroke: rgb(30, 30, 30) !important;
    stroke-width: 1 !important;
  }
  polygon:not(.cluster *, .node *, .edge *, text) {
    stroke: transparent !important;
  }
  text {
    font-size: 10px !important;
    font-family: monospace !important;
    fill: rgb(30, 30, 30) !important;
    stroke: transparent !important;
    transform: translateY(-0.5em);
  }
</style>
<g id="graph0" class="graph" transform="scale(1 1) rotate(0) translate(4 370)">
<title>G</title>
<polygon fill="white" stroke="none" points="-4,4 -4,-370 421.74,-370 421.74,4 -4,4"/>
<!-- PrintDeps_cpp -->
<g id="node1" class="node">
<title>PrintDeps_cpp</title>
<polygon fill="lightblue" stroke="black" points="217.83,-366 104.33,-366 104.33,-330 217.83,-330 217.83,-366"/>
<text xml:space="preserve" text-anchor="middle" x="161.08" y="-339.95" font-family="Times,serif" font-size="14.00">PrintDeps.cpp</text>
</g>
<!-- buildwin_bat -->
<g id="node2" class="node">
<title>buildwin_bat</title>
<polygon fill="lightblue" stroke="black" points="290.08,-284 184.08,-284 184.08,-248 290.08,-248 290.08,-284"/>
<text xml:space="preserve" text-anchor="middle" x="237.08" y="-257.95" font-family="Times,serif" font-size="14.00">buildwin.bat</text>
</g>
<!-- PrintDeps_cpp&#45;&gt;buildwin_bat -->
<g id="edge1" class="edge">
<title>PrintDeps_cpp&#45;&gt;buildwin_bat</title>
<path fill="none" stroke="black" d="M177.57,-329.64C187.93,-318.74 201.46,-304.49 213.01,-292.34"/>
<polygon fill="black" stroke="black" points="215.23,-295.08 219.58,-285.42 210.15,-290.26 215.23,-295.08"/>
<text xml:space="preserve" text-anchor="middle" x="244.88" y="-298.95" font-family="Times,serif" font-size="14.00">compiled by</text>
</g>
<!-- PrintDeps_exe -->
<g id="node4" class="node">
<title>PrintDeps_exe</title>
<polygon fill="lightblue" stroke="black" points="293.83,-201 180.33,-201 180.33,-165 293.83,-165 293.83,-201"/>
<text xml:space="preserve" text-anchor="middle" x="237.08" y="-174.95" font-family="Times,serif" font-size="14.00">PrintDeps.exe</text>
</g>
<!-- buildwin_bat&#45;&gt;PrintDeps_exe -->
<g id="edge3" class="edge">
<title>buildwin_bat&#45;&gt;PrintDeps_exe</title>
<path fill="none" stroke="black" d="M237.08,-247.82C237.08,-237.69 237.08,-224.6 237.08,-212.92"/>
<polygon fill="black" stroke="black" points="240.58,-212.95 237.08,-202.95 233.58,-212.95 240.58,-212.95"/>
<text xml:space="preserve" text-anchor="middle" x="263.33" y="-215.95" font-family="Times,serif" font-size="14.00">creates</text>
</g>
<!-- build_sh -->
<g id="node3" class="node">
<title>build_sh</title>
<polygon fill="lightblue" stroke="black" points="352.08,-366 276.08,-366 276.08,-330 352.08,-330 352.08,-366"/>
<text xml:space="preserve" text-anchor="middle" x="314.08" y="-339.95" font-family="Times,serif" font-size="14.00">build.sh</text>
</g>
<!-- build_sh&#45;&gt;buildwin_bat -->
<g id="edge2" class="edge">
<title>build_sh&#45;&gt;buildwin_bat</title>
<path fill="none" stroke="black" d="M307.44,-329.82C303.37,-320.77 297.51,-309.9 290.08,-301.75 286.65,-297.99 282.73,-294.45 278.61,-291.18"/>
<polygon fill="black" stroke="black" points="280.75,-288.41 270.6,-285.36 276.63,-294.07 280.75,-288.41"/>
<text xml:space="preserve" text-anchor="middle" x="327.7" y="-298.95" font-family="Times,serif" font-size="14.00">executes</text>
</g>
<!-- archive_sh -->
<g id="node5" class="node">
<title>archive_sh</title>
<polygon fill="lightblue" stroke="black" points="107.58,-119 16.58,-119 16.58,-83 107.58,-83 107.58,-119"/>
<text xml:space="preserve" text-anchor="middle" x="62.08" y="-92.95" font-family="Times,serif" font-size="14.00">archive.sh</text>
</g>
<!-- PrintDeps_exe&#45;&gt;archive_sh -->
<g id="edge4" class="edge">
<title>PrintDeps_exe&#45;&gt;archive_sh</title>
<path fill="none" stroke="black" d="M194.49,-164.6C181.6,-159.19 167.45,-153.1 154.58,-147.25 138.85,-140.09 121.8,-131.89 106.68,-124.45"/>
<polygon fill="black" stroke="black" points="108.43,-121.41 97.92,-120.11 105.33,-127.68 108.43,-121.41"/>
<text xml:space="preserve" text-anchor="middle" x="195.83" y="-133.95" font-family="Times,serif" font-size="14.00">packaged by</text>
</g>
<!-- Target_Executable -->
<g id="node7" class="node">
<title>Target_Executable</title>
<polygon fill="lightblue" stroke="black" points="316.83,-119 173.33,-119 173.33,-83 316.83,-83 316.83,-119"/>
<text xml:space="preserve" text-anchor="middle" x="245.08" y="-92.95" font-family="Times,serif" font-size="14.00">Target Executable</text>
</g>
<!-- PrintDeps_exe&#45;&gt;Target_Executable -->
<g id="edge7" class="edge">
<title>PrintDeps_exe&#45;&gt;Target_Executable</title>
<path fill="none" stroke="black" d="M238.82,-164.64C239.81,-154.68 241.09,-141.93 242.23,-130.54"/>
<polygon fill="black" stroke="black" points="245.68,-131.13 243.2,-120.83 238.72,-130.43 245.68,-131.13"/>
<text xml:space="preserve" text-anchor="middle" x="294.06" y="-133.95" font-family="Times,serif" font-size="14.00">lists DLLs for</text>
</g>
<!-- Distribution_zip -->
<g id="node6" class="node">
<title>Distribution_zip</title>
<polygon fill="lightblue" stroke="black" points="307.83,-36 164.33,-36 164.33,0 307.83,0 307.83,-36"/>
<text xml:space="preserve" text-anchor="middle" x="236.08" y="-9.95" font-family="Times,serif" font-size="14.00">Distribution .zip</text>
</g>
<!-- archive_sh&#45;&gt;Distribution_zip -->
<g id="edge5" class="edge">
<title>archive_sh&#45;&gt;Distribution_zip</title>
<path fill="none" stroke="black" d="M99.41,-82.62C125.35,-70.55 160.16,-54.34 188.15,-41.31"/>
<polygon fill="black" stroke="black" points="189.55,-44.52 197.14,-37.13 186.6,-38.17 189.55,-44.52"/>
<text xml:space="preserve" text-anchor="middle" x="185.75" y="-50.95" font-family="Times,serif" font-size="14.00">creates</text>
</g>
<!-- Distribution_zip&#45;&gt;PrintDeps_exe -->
<g id="edge6" class="edge">
<title>Distribution_zip&#45;&gt;PrintDeps_exe</title>
<path fill="none" stroke="black" d="M271.65,-36.39C315.67,-60.27 381.23,-105.08 350.08,-147.25 339.27,-161.88 322.41,-170.54 304.98,-175.62"/>
<polygon fill="black" stroke="black" points="304.42,-172.15 295.57,-177.97 306.12,-178.94 304.42,-172.15"/>
<text xml:space="preserve" text-anchor="middle" x="387.74" y="-92.95" font-family="Times,serif" font-size="14.00">contains</text>
</g>
</g>
</svg>
