<?xml version="1.0" encoding="UTF-8" standalone="no"?>
<!DOCTYPE svg PUBLIC "-//W3C//DTD SVG 1.1//EN"
 "http://www.w3.org/Graphics/SVG/1.1/DTD/svg11.dtd">
<!-- Generated by graphviz version 2.44.1 (20201121.0304)
 -->
<!-- Title: G Pages: 1 -->
<svg width="991pt" height="991pt"
 viewBox="0.00 0.00 991.00 991.00" xmlns="http://www.w3.org/2000/svg" xmlns:xlink="http://www.w3.org/1999/xlink"><style>
  * {
    fill: transparent !important;
    stroke: rgb(30, 30, 30) !important;
    stroke-width: 1 !important;
  }
  polygon:not(.cluster *, .node *, .edge *, text) {
    stroke: transparent !important;
  }
  text {
    font-size: 10px !important;
    font-family: monospace !important;
    fill: rgb(30, 30, 30) !important;
    stroke: transparent !important;
    transform: translateY(-0.5em);
  }
</style>
<g id="graph0" class="graph" transform="scale(1 1) rotate(0) translate(4 986.75)">
<title>G</title>
<polygon fill="white" stroke="none" points="-4,4 -4,-986.75 986.75,-986.75 986.75,4 -4,4"/>
<!-- BrowserTypes -->
<g id="node1" class="node">
<title>BrowserTypes</title>
<polygon fill="lightblue" stroke="black" points="607.5,-952 96.5,-952 96.5,-916 607.5,-916 607.5,-952"/>
<text xml:space="preserve" text-anchor="middle" x="352" y="-925.95" font-family="Times,serif" font-size="14.00">{BidiChromium / BidiFirefox|Browser&#45;specific Bidi implementations}</text>
</g>
<!-- BidiBrowser -->
<g id="node2" class="node">
<title>BidiBrowser</title>
<polygon fill="lightblue" stroke="black" points="641.25,-731 62.75,-731 62.75,-695 641.25,-695 641.25,-731"/>
<text xml:space="preserve" text-anchor="middle" x="352" y="-704.95" font-family="Times,serif" font-size="14.00">{BidiBrowser / BidiBrowserContext|Top&#45;level browser and context management}</text>
</g>
<!-- BrowserTypes&#45;&gt;BidiBrowser -->
<g id="edge1" class="edge">
<title>BrowserTypes&#45;&gt;BidiBrowser</title>
<path fill="none" stroke="black" d="M352,-915.82C352,-878.33 352,-788.87 352,-742.69"/>
<polygon fill="black" stroke="black" points="355.5,-742.92 352,-732.92 348.5,-742.92 355.5,-742.92"/>
<text xml:space="preserve" text-anchor="middle" x="397" y="-815.95" font-family="Times,serif" font-size="14.00">connects via</text>
</g>
<!-- BidiConnection -->
<g id="node3" class="node">
<title>BidiConnection</title>
<polygon fill="lightblue" stroke="black" points="881,-509 475,-509 475,-473 881,-473 881,-509"/>
<text xml:space="preserve" text-anchor="middle" x="678" y="-482.95" font-family="Times,serif" font-size="14.00">{BidiConnection|Manages Bidi protocol communication}</text>
</g>
<!-- BidiBrowser&#45;&gt;BidiConnection -->
<g id="edge2" class="edge">
<title>BidiBrowser&#45;&gt;BidiConnection</title>
<path fill="none" stroke="black" d="M377.85,-694.55C435.99,-655.32 577.07,-560.11 642.98,-515.63"/>
<polygon fill="black" stroke="black" points="644.56,-518.79 650.89,-510.3 640.64,-512.99 644.56,-518.79"/>
<text xml:space="preserve" text-anchor="middle" x="530" y="-593.95" font-family="Times,serif" font-size="14.00">uses</text>
</g>
<!-- BidiSession -->
<g id="node4" class="node">
<title>BidiSession</title>
<polygon fill="lightblue" stroke="black" points="601,-288 135,-288 135,-252 601,-252 601,-288"/>
<text xml:space="preserve" text-anchor="middle" x="368" y="-261.95" font-family="Times,serif" font-size="14.00">{BidiSession|Handles specific browsing context interactions}</text>
</g>
<!-- BidiConnection&#45;&gt;BidiSession -->
<g id="edge3" class="edge">
<title>BidiConnection&#45;&gt;BidiSession</title>
<path fill="none" stroke="black" d="M653.42,-472.63C598.25,-433.66 464.52,-339.19 401.68,-294.8"/>
<polygon fill="black" stroke="black" points="404.01,-292.15 393.82,-289.24 399.97,-297.87 404.01,-292.15"/>
<text xml:space="preserve" text-anchor="middle" x="586.75" y="-372.95" font-family="Times,serif" font-size="14.00">creates &amp; manages</text>
</g>
<!-- BidiSession&#45;&gt;BidiBrowser -->
<g id="edge5" class="edge">
<title>BidiSession&#45;&gt;BidiBrowser</title>
<path fill="none" stroke="black" d="M367.38,-288.17C364.95,-355.13 356.09,-599.19 353.04,-683.29"/>
<polygon fill="black" stroke="black" points="349.55,-683.08 352.68,-693.2 356.54,-683.33 349.55,-683.08"/>
<text xml:space="preserve" text-anchor="middle" x="413.03" y="-482.95" font-family="Times,serif" font-size="14.00">interacts with</text>
</g>
<!-- BidiManagers -->
<g id="node5" class="node">
<title>BidiManagers</title>
<polygon fill="lightblue" stroke="black" points="736,-66 0,-66 0,-30 736,-30 736,-66"/>
<text xml:space="preserve" text-anchor="middle" x="368" y="-39.95" font-family="Times,serif" font-size="14.00">{BidiNetworkManager / BidiPage / BidiPDF / BidiInput|Functional managers for browser operations}</text>
</g>
<!-- BidiSession&#45;&gt;BidiManagers -->
<g id="edge4" class="edge">
<title>BidiSession&#45;&gt;BidiManagers</title>
<path fill="none" stroke="black" d="M368,-251.74C368,-214.08 368,-124.21 368,-77.82"/>
<polygon fill="black" stroke="black" points="371.5,-78 368,-68 364.5,-78 371.5,-78"/>
<text xml:space="preserve" text-anchor="middle" x="398" y="-150.95" font-family="Times,serif" font-size="14.00">controls</text>
</g>
<!-- BidiChromium -->
<g id="node6" class="node">
<title>BidiChromium</title>
<polygon fill="lightblue" stroke="black" points="874,-952 768,-952 768,-916 874,-916 874,-952"/>
<text xml:space="preserve" text-anchor="middle" x="821" y="-925.95" font-family="Times,serif" font-size="14.00">BidiChromium</text>
</g>
<!-- BidiOverCdp -->
<g id="node7" class="node">
<title>BidiOverCdp</title>
<polygon fill="lightblue" stroke="black" points="982.75,-731 659.25,-731 659.25,-695 982.75,-695 982.75,-731"/>
<text xml:space="preserve" text-anchor="middle" x="821" y="-704.95" font-family="Times,serif" font-size="14.00">{BidiOverCdp|Chromium CDP to Bidi bridge}</text>
</g>
<!-- BidiChromium&#45;&gt;BidiOverCdp -->
<g id="edge6" class="edge">
<title>BidiChromium&#45;&gt;BidiOverCdp</title>
<path fill="none" stroke="black" d="M821,-915.82C821,-878.33 821,-788.87 821,-742.69"/>
<polygon fill="black" stroke="black" points="824.5,-742.92 821,-732.92 817.5,-742.92 824.5,-742.92"/>
<text xml:space="preserve" text-anchor="middle" x="866" y="-815.95" font-family="Times,serif" font-size="14.00">uses for CDP</text>
</g>
<!-- BidiOverCdp&#45;&gt;BidiConnection -->
<g id="edge7" class="edge">
<title>BidiOverCdp&#45;&gt;BidiConnection</title>
<path fill="none" stroke="black" d="M809.78,-694.74C784.99,-656.6 725.39,-564.91 695.59,-519.06"/>
<polygon fill="black" stroke="black" points="698.58,-517.23 690.19,-510.76 692.71,-521.05 698.58,-517.23"/>
<text xml:space="preserve" text-anchor="middle" x="835.75" y="-593.95" font-family="Times,serif" font-size="14.00">provides Bidi transport</text>
</g>
</g>
</svg>
